<svg width="970" height="124" viewBox="0 0 970 124" fill="none" xmlns="http://www.w3.org/2000/svg">
<mask id="mask0_68_678" style="mask-type:luminance" maskUnits="userSpaceOnUse" x="0" y="36" width="359" height="53">
<path d="M0 88.7024L0 36L359 36V88.7024L0 88.7024Z" fill="white"/>
</mask>
<g mask="url(#mask0_68_678)">
<path d="M77.2382 36.5979C77.2926 39.2069 76.8958 41.7969 76.094 44.2673C75.2977 46.7133 74.1182 49.0125 72.6289 51.1052C71.1505 53.1788 69.354 55.0432 67.3511 56.6004C65.3399 58.1604 63.0951 59.435 60.7143 60.3156C58.2874 61.2097 55.7354 61.7261 53.1454 61.7804C52.8111 61.7913 52.4877 61.7913 52.1535 61.7804C49.5553 61.8348 46.9843 61.438 44.5139 60.6417C42.0788 59.8427 39.7769 58.6496 37.6924 57.1549C35.6459 55.6791 33.806 53.8854 32.2623 51.8852C30.7023 49.8659 29.4304 47.602 28.539 45.2022C27.6367 42.7644 27.104 40.1853 27.0307 37.5844C27.0225 37.2583 27.0225 36.924 27.0225 36.5897C27.0225 36.2174 26.7426 36.038 26.4545 36.0462C26.1746 36.0462 25.8865 36.2282 25.8946 36.5897C25.9408 39.196 25.5522 41.786 24.7505 44.2592C23.9569 46.7051 22.7747 49.0043 21.2854 51.097C19.8069 53.1706 18.0213 55.035 16.0102 56.5923C13.9964 58.1495 11.7515 59.4269 9.37077 60.3047C6.94383 61.2016 4.39187 61.7179 1.80186 61.7723C1.46758 61.7804 1.14417 61.7804 0.809889 61.7723C0.448429 61.7804 0.269058 62.0631 0.269058 62.3512C0.269058 62.6338 0.448429 62.9219 0.809889 62.9219C3.40805 62.9056 5.99534 63.3105 8.46848 64.1259C10.8954 64.9249 13.1865 66.118 15.2601 67.6046C17.3256 69.0803 19.1845 70.8822 20.7364 72.9014C22.2882 74.9126 23.5411 77.1656 24.4243 79.5572C25.3185 81.9923 25.8321 84.566 25.8946 87.1642C25.9055 87.4984 25.9055 87.8246 25.8946 88.1588C25.8865 88.523 26.1746 88.7024 26.4545 88.7024C26.7344 88.7024 27.0225 88.523 27.0225 88.1588C27.0035 85.5335 27.4111 82.9353 28.2319 80.435C29.0255 78.0081 30.2077 75.717 31.6861 73.6352C33.1564 71.5698 34.9338 69.7244 36.9259 68.1753C38.9289 66.618 41.1847 65.3407 43.5654 64.452C46.0005 63.547 48.5715 63.0143 51.1696 62.9328C51.5039 62.9219 51.8273 62.9137 52.1616 62.9219C54.7598 62.8947 57.3307 63.3024 59.793 64.1177C62.2281 64.9249 64.53 66.118 66.6227 67.6127C68.6882 69.0993 70.5444 70.9012 72.1071 72.9286C73.6481 74.9289 74.9009 77.1765 75.7761 79.549C76.6783 81.9923 77.192 84.566 77.2464 87.1723C77.2572 87.5066 77.2572 87.8327 77.2464 88.1697C77.23 88.523 77.5181 88.7024 77.7981 88.7024C78.078 88.7024 78.3661 88.523 78.3661 88.1588C78.347 85.5335 78.7629 82.9353 79.5755 80.435C80.369 78.0081 81.5513 75.717 83.0297 73.6352C84.4891 71.5698 86.2774 69.7244 88.2695 68.1753C90.2725 66.618 92.5282 65.3407 94.9008 64.452C97.3359 63.5388 99.9069 63.0143 102.505 62.9328C102.837 62.9219 103.163 62.9137 103.497 62.9219C105.399 62.9219 107.302 62.9219 109.207 62.9219C114.338 62.9219 119.472 62.9219 124.603 62.9219C132.215 62.9219 139.82 62.9219 147.435 62.9219C156.716 62.9219 166.005 62.9219 175.289 62.9219C185.426 62.9219 195.555 62.9219 205.695 62.9219C215.995 62.9219 226.298 62.9219 236.59 62.9219C246.124 62.9219 255.666 62.9219 265.203 62.9219C273.293 62.9219 281.373 62.9219 289.467 62.9219C295.283 62.9219 301.093 62.9219 306.912 62.9219C309.662 62.9219 312.412 62.9681 315.155 62.9219C315.272 62.9219 315.399 62.9219 315.516 62.9219C319.674 62.9137 323.553 65.7103 325.007 69.6048C325.42 70.7273 325.637 71.8959 325.629 73.0917C325.629 73.464 325.906 73.6434 326.197 73.6352C326.477 73.6352 326.765 73.4531 326.754 73.0917C326.664 68.8982 329.523 65.0064 333.404 63.547C334.513 63.1312 335.676 62.9137 336.867 62.9137C341.006 62.9056 344.941 65.7293 346.357 69.6238C346.762 70.7381 346.952 71.8959 346.925 73.0835C346.914 73.445 347.194 73.6271 347.474 73.6271C347.762 73.6271 348.042 73.4531 348.042 73.0835C348.034 68.9172 350.803 65.0146 354.682 63.547C355.79 63.1312 356.964 62.9056 358.155 62.9137C358.524 62.9137 358.704 62.6229 358.696 62.343C358.696 62.0631 358.516 61.7804 358.155 61.7913C353.969 61.9 350.108 59.0111 348.675 55.1165C348.268 54.0131 348.053 52.8527 348.053 51.6677C348.053 51.2954 347.762 51.1133 347.482 51.1242C347.205 51.1242 346.925 51.3036 346.933 51.6677C347.042 55.8313 344.183 59.7802 340.321 61.2097C339.212 61.6174 338.057 61.8267 336.875 61.7913C332.709 61.9082 328.784 59.0192 327.36 55.1356C326.952 54.0213 326.746 52.8608 326.773 51.6677C326.781 51.3036 326.504 51.1242 326.213 51.1242C325.925 51.1242 325.645 51.2954 325.645 51.6677C325.672 55.8313 322.868 59.7883 318.979 61.2206C317.87 61.6283 316.715 61.8267 315.535 61.7913C313.63 61.7913 311.728 61.7913 309.825 61.7913C304.691 61.7913 299.56 61.7913 294.426 61.7913C286.814 61.7913 279.21 61.7913 271.597 61.7913C262.314 61.7913 253.024 61.7913 243.743 61.7913C233.603 61.7913 223.474 61.7913 213.335 61.7913C203.034 61.7913 192.734 61.7913 182.442 61.7913C172.905 61.7913 163.363 61.7913 153.83 61.7913C145.739 61.7913 137.656 61.7913 129.566 61.7913C123.747 61.7913 117.936 61.7913 112.12 61.7913C109.367 61.7913 106.617 61.7451 103.875 61.7913C103.758 61.7913 103.63 61.7913 103.513 61.7913C100.915 61.8457 98.336 61.4462 95.8738 60.6499C93.4387 59.8536 91.1395 58.6578 89.0549 57.163C87.0058 55.6873 85.1659 53.8936 83.6249 51.8933C82.0649 49.874 80.793 47.6101 79.8989 45.2104C78.9966 42.7753 78.4639 40.1934 78.3851 37.5953C78.3742 37.2583 78.3742 36.9321 78.3742 36.5979C78.3742 36.2282 78.0943 36.0462 77.8062 36.0543C77.5181 36.0543 77.23 36.2364 77.2382 36.5979Z" fill="#7A8450"/>
</g>
<mask id="mask1_68_678" style="mask-type:luminance" maskUnits="userSpaceOnUse" x="611" y="36" width="359" height="53">
<path d="M970 36V88.7024L611 88.7024V36L970 36Z" fill="white"/>
</mask>
<g mask="url(#mask1_68_678)">
<path d="M892.762 88.1045C892.707 85.4954 893.104 82.9054 893.906 80.435C894.702 77.989 895.882 75.6898 897.371 73.5972C898.85 71.5235 900.646 69.6592 902.649 68.1019C904.66 66.5419 906.905 65.2673 909.286 64.3867C911.713 63.4926 914.265 62.9762 916.855 62.9219C917.189 62.911 917.512 62.911 917.847 62.9219C920.445 62.8675 923.016 63.2643 925.486 64.0606C927.921 64.8596 930.223 66.0527 932.308 67.5475C934.354 69.0232 936.194 70.8169 937.738 72.8172C939.298 74.8365 940.57 77.1003 941.461 79.5001C942.363 81.9379 942.896 84.5171 942.969 87.1179C942.978 87.4441 942.978 87.7783 942.978 88.1126C942.978 88.485 943.257 88.6643 943.546 88.6562C943.825 88.6562 944.114 88.4741 944.105 88.1126C944.059 85.5063 944.448 82.9163 945.25 80.4432C946.043 77.9972 947.225 75.698 948.715 73.6053C950.193 71.5317 951.979 69.6673 953.99 68.1101C956.004 66.5528 958.249 65.2754 960.629 64.3976C963.056 63.5008 965.608 62.9844 968.198 62.93C968.532 62.9219 968.856 62.9219 969.19 62.93C969.552 62.9219 969.731 62.6392 969.731 62.3512C969.731 62.0685 969.552 61.7804 969.19 61.7804C966.592 61.7967 964.005 61.3918 961.532 60.5765C959.105 59.7775 956.814 58.5844 954.74 57.0978C952.674 55.622 950.815 53.8202 949.264 51.8009C947.712 49.7898 946.459 47.5367 945.576 45.1451C944.682 42.71 944.168 40.1363 944.105 37.5382C944.095 37.2039 944.095 36.8778 944.105 36.5435C944.114 36.1793 943.825 35.9999 943.546 35.9999C943.266 35.9999 942.978 36.1793 942.978 36.5435C942.997 39.1688 942.589 41.767 941.768 44.2673C940.975 46.6943 939.792 48.9853 938.314 51.0671C936.844 53.1326 935.066 54.9779 933.074 56.527C931.071 58.0843 928.815 59.3616 926.435 60.2503C924 61.1553 921.429 61.688 918.83 61.7696C918.496 61.7804 918.173 61.7886 917.838 61.7804C915.24 61.8076 912.669 61.3999 910.207 60.5846C907.772 59.7775 905.47 58.5844 903.377 57.0896C901.312 55.603 899.456 53.8011 897.893 51.7737C896.352 49.7735 895.099 47.5259 894.224 45.1533C893.322 42.71 892.808 40.1363 892.754 37.53C892.743 37.1957 892.743 36.8696 892.754 36.5326C892.77 36.1793 892.482 35.9999 892.202 35.9999C891.922 35.9999 891.634 36.1793 891.634 36.5435C891.653 39.1688 891.237 41.767 890.425 44.2673C889.631 46.6943 888.449 48.9853 886.97 51.0671C885.511 53.1326 883.723 54.9779 881.73 56.527C879.728 58.0843 877.472 59.3616 875.099 60.2503C872.664 61.1635 870.093 61.688 867.495 61.7696C867.163 61.7804 866.837 61.7886 866.503 61.7804C864.601 61.7804 862.698 61.7804 860.793 61.7804C855.662 61.7804 850.528 61.7804 845.397 61.7804C837.785 61.7804 830.18 61.7804 822.565 61.7804C813.284 61.7804 803.995 61.7804 794.711 61.7804C784.574 61.7804 774.445 61.7804 764.305 61.7804C754.005 61.7804 743.702 61.7804 733.41 61.7804C723.876 61.7804 714.334 61.7804 704.797 61.7804C696.707 61.7804 688.627 61.7804 680.533 61.7804C674.717 61.7804 668.907 61.7804 663.088 61.7804C660.338 61.7804 657.588 61.7342 654.845 61.7804C654.728 61.7804 654.601 61.7804 654.484 61.7804C650.326 61.7886 646.448 58.992 644.993 55.0975C644.58 53.9751 644.363 52.8064 644.371 51.6106C644.371 51.2383 644.094 51.0589 643.803 51.0671C643.523 51.0671 643.235 51.2492 643.246 51.6106C643.336 55.8041 640.477 59.6959 636.596 61.1553C635.487 61.5712 634.324 61.7886 633.133 61.7886C628.994 61.7967 625.059 58.973 623.643 55.0785C623.238 53.9642 623.048 52.8064 623.075 51.6188C623.086 51.2573 622.806 51.0752 622.526 51.0752C622.238 51.0752 621.958 51.2492 621.958 51.6188C621.966 55.7851 619.197 59.6878 615.319 61.1553C614.21 61.5712 613.036 61.7967 611.845 61.7886C611.476 61.7886 611.296 62.0794 611.304 62.3593C611.304 62.6392 611.484 62.9219 611.845 62.911C616.031 62.8023 619.892 65.6913 621.325 69.5858C621.732 70.6892 621.947 71.8497 621.947 73.0346C621.947 73.4069 622.238 73.589 622.518 73.5781C622.795 73.5781 623.075 73.3988 623.067 73.0346C622.958 68.871 625.817 64.9221 629.679 63.4926C630.788 63.0849 631.943 62.8757 633.125 62.911C637.291 62.7941 641.216 65.6831 642.64 69.5668C643.048 70.681 643.254 71.8415 643.227 73.0346C643.219 73.3988 643.496 73.5781 643.787 73.5781C644.075 73.5781 644.355 73.4069 644.355 73.0346C644.328 68.871 647.132 64.914 651.021 63.4817C652.13 63.0741 653.285 62.8757 654.465 62.911C656.37 62.911 658.272 62.911 660.175 62.911C665.309 62.911 670.44 62.911 675.574 62.911C683.186 62.911 690.79 62.911 698.403 62.911C707.686 62.911 716.976 62.911 726.257 62.911C736.397 62.911 746.526 62.911 756.665 62.911C766.966 62.911 777.266 62.911 787.558 62.911C797.095 62.911 806.637 62.911 816.17 62.911C824.261 62.911 832.344 62.911 840.434 62.911C846.253 62.911 852.064 62.911 857.88 62.911C860.633 62.911 863.383 62.9572 866.125 62.911C866.242 62.911 866.37 62.911 866.487 62.911C869.085 62.8567 871.664 63.2562 874.126 64.0525C876.561 64.8488 878.861 66.0446 880.945 67.5393C882.994 69.0151 884.834 70.8088 886.375 72.809C887.935 74.8283 889.207 77.0922 890.101 79.492C891.003 81.927 891.536 84.5089 891.615 87.1071C891.626 87.4441 891.626 87.7702 891.626 88.1045C891.626 88.4741 891.906 88.6562 892.194 88.648C892.482 88.648 892.77 88.4659 892.762 88.1045Z" fill="#7A8450"/>
</g>
<mask id="mask2_68_678" style="mask-type:luminance" maskUnits="userSpaceOnUse" x="447" y="10" width="68" height="114">
<path d="M447 10.0703H514.657V124H447V10.0703Z" fill="white"/>
</mask>
<g mask="url(#mask2_68_678)">
<path d="M514.458 66.4626C481.944 67.8694 481.397 69.2747 480.722 123.988C480.044 69.2567 479.496 67.8455 446.981 66.4626C479.496 66.491 480.044 65.1365 480.722 10.3992C481.397 65.1365 481.944 66.491 514.458 66.4626Z" fill="#7A8450"/>
</g>
<mask id="mask3_68_678" style="mask-type:luminance" maskUnits="userSpaceOnUse" x="495" y="13" width="28" height="47">
<path d="M495.139 13.5146H522.204V59.0579H495.139V13.5146Z" fill="white"/>
</mask>
<g mask="url(#mask3_68_678)">
<path d="M522.204 35.9365C509.348 36.4851 509.129 37.0427 508.861 58.6856C508.595 37.0427 508.393 36.4851 495.52 35.9365C508.38 35.9365 508.595 35.4117 508.861 13.7643C509.129 35.3983 509.348 35.9469 522.204 35.9365Z" fill="#7A8450"/>
</g>
<mask id="mask4_68_678" style="mask-type:luminance" maskUnits="userSpaceOnUse" x="450" y="0" width="20" height="31">
<path d="M450.743 0H469.114V30.3542H450.743V0Z" fill="white"/>
</mask>
<g mask="url(#mask4_68_678)">
<path d="M468.994 14.9783C460.308 15.349 460.163 15.7243 459.981 30.3452C459.803 15.7243 459.653 15.3446 450.972 14.9783C459.653 14.9783 459.803 14.6225 459.981 0.00750732C460.15 14.6225 460.308 14.9887 468.994 14.9783Z" fill="#7A8450"/>
</g>
<mask id="mask5_68_678" style="mask-type:luminance" maskUnits="userSpaceOnUse" x="447" y="10" width="68" height="114">
<path d="M447 10.0703H514.657V124H447V10.0703Z" fill="white"/>
</mask>
<g mask="url(#mask5_68_678)">
<path d="M514.458 66.4626C481.944 67.8694 481.397 69.2747 480.722 123.988C480.044 69.2567 479.496 67.8455 446.981 66.4626C479.496 66.491 480.044 65.1365 480.722 10.3992C481.397 65.1365 481.944 66.491 514.458 66.4626Z" fill="#7A8450"/>
</g>
<mask id="mask6_68_678" style="mask-type:luminance" maskUnits="userSpaceOnUse" x="447" y="10" width="68" height="114">
<path d="M447 10.0703H514.657V124H447V10.0703Z" fill="white"/>
</mask>
<g mask="url(#mask6_68_678)">
<path d="M514.458 66.4626C481.944 67.8694 481.397 69.2747 480.722 123.988C480.044 69.2567 479.496 67.8455 446.981 66.4626C479.496 66.491 480.044 65.1365 480.722 10.3992C481.397 65.1365 481.944 66.491 514.458 66.4626Z" fill="#7A8450"/>
</g>
</svg>
