<svg width="1400" height="678" viewBox="0 0 1400 678" fill="none" xmlns="http://www.w3.org/2000/svg">
<g clip-path="url(#clip0_68_122)">
<mask id="mask0_68_122" style="mask-type:luminance" maskUnits="userSpaceOnUse" x="215" y="590" width="359" height="53">
<path d="M215 642.702V590H574V642.702H215Z" fill="white"/>
</mask>
<g mask="url(#mask0_68_122)">
<path d="M292.238 590.598C292.293 593.207 291.896 595.797 291.094 598.267C290.298 600.713 289.118 603.013 287.629 605.105C286.15 607.179 284.354 609.043 282.351 610.6C280.34 612.16 278.095 613.435 275.714 614.316C273.287 615.21 270.735 615.726 268.145 615.78C267.811 615.791 267.488 615.791 267.153 615.78C264.555 615.835 261.984 615.438 259.514 614.642C257.079 613.843 254.777 612.65 252.692 611.155C250.646 609.679 248.806 607.885 247.262 605.885C245.702 603.866 244.43 601.602 243.539 599.202C242.637 596.764 242.104 594.185 242.031 591.584C242.023 591.258 242.023 590.924 242.023 590.59C242.023 590.217 241.743 590.038 241.454 590.046C241.175 590.046 240.886 590.228 240.895 590.59C240.941 593.196 240.552 595.786 239.75 598.259C238.957 600.705 237.775 603.004 236.285 605.097C234.807 607.171 233.021 609.035 231.01 610.592C228.996 612.15 226.752 613.427 224.371 614.305C221.944 615.202 219.392 615.718 216.802 615.772C216.468 615.78 216.144 615.78 215.81 615.772C215.448 615.78 215.269 616.063 215.269 616.351C215.269 616.634 215.448 616.922 215.81 616.922C218.408 616.906 220.995 617.311 223.468 618.126C225.895 618.925 228.186 620.118 230.26 621.605C232.326 623.08 234.185 624.882 235.736 626.901C237.288 628.913 238.541 631.166 239.424 633.557C240.318 635.992 240.832 638.566 240.895 641.164C240.906 641.498 240.906 641.825 240.895 642.159C240.886 642.523 241.175 642.702 241.454 642.702C241.734 642.702 242.023 642.523 242.023 642.159C242.003 639.534 242.411 636.935 243.232 634.435C244.025 632.008 245.208 629.717 246.686 627.635C248.156 625.57 249.934 623.724 251.926 622.175C253.929 620.618 256.185 619.341 258.565 618.452C261 617.547 263.571 617.014 266.17 616.933C266.504 616.922 266.827 616.914 267.162 616.922C269.76 616.895 272.331 617.302 274.793 618.118C277.228 618.925 279.53 620.118 281.623 621.613C283.688 623.099 285.544 624.901 287.107 626.929C288.648 628.929 289.901 631.176 290.776 633.549C291.678 635.992 292.192 638.566 292.246 641.172C292.257 641.507 292.257 641.833 292.246 642.17C292.23 642.523 292.518 642.702 292.798 642.702C293.078 642.702 293.366 642.523 293.366 642.159C293.347 639.534 293.763 636.935 294.575 634.435C295.369 632.008 296.551 629.717 298.03 627.635C299.489 625.57 301.277 623.724 303.27 622.175C305.272 620.618 307.528 619.341 309.901 618.452C312.336 617.539 314.907 617.014 317.505 616.933C317.837 616.922 318.163 616.914 318.497 616.922C320.399 616.922 322.302 616.922 324.207 616.922C329.338 616.922 334.472 616.922 339.603 616.922C347.215 616.922 354.82 616.922 362.435 616.922C371.716 616.922 381.005 616.922 390.289 616.922C400.426 616.922 410.555 616.922 420.695 616.922C430.995 616.922 441.298 616.922 451.59 616.922C461.124 616.922 470.666 616.922 480.203 616.922C488.293 616.922 496.373 616.922 504.467 616.922C510.283 616.922 516.093 616.922 521.912 616.922C524.662 616.922 527.412 616.968 530.155 616.922C530.272 616.922 530.399 616.922 530.516 616.922C534.674 616.914 538.553 619.71 540.007 623.605C540.42 624.727 540.637 625.896 540.629 627.092C540.629 627.464 540.906 627.643 541.197 627.635C541.477 627.635 541.765 627.453 541.754 627.092C541.664 622.898 544.523 619.006 548.404 617.547C549.513 617.131 550.676 616.914 551.867 616.914C556.006 616.906 559.941 619.729 561.357 623.624C561.762 624.738 561.952 625.896 561.925 627.084C561.914 627.445 562.194 627.627 562.474 627.627C562.762 627.627 563.042 627.453 563.042 627.084C563.034 622.917 565.803 619.015 569.682 617.547C570.79 617.131 571.964 616.906 573.155 616.914C573.524 616.914 573.704 616.623 573.696 616.343C573.696 616.063 573.516 615.78 573.155 615.791C568.969 615.9 565.108 613.011 563.675 609.117C563.268 608.013 563.053 606.853 563.053 605.668C563.053 605.295 562.762 605.113 562.482 605.124C562.205 605.124 561.925 605.304 561.933 605.668C562.042 609.831 559.183 613.78 555.321 615.21C554.212 615.617 553.057 615.827 551.875 615.791C547.709 615.908 543.784 613.019 542.36 609.136C541.952 608.021 541.746 606.861 541.773 605.668C541.781 605.304 541.504 605.124 541.213 605.124C540.925 605.124 540.645 605.295 540.645 605.668C540.672 609.831 537.868 613.788 533.979 615.221C532.87 615.628 531.715 615.827 530.535 615.791C528.63 615.791 526.728 615.791 524.825 615.791C519.691 615.791 514.56 615.791 509.426 615.791C501.814 615.791 494.21 615.791 486.597 615.791C477.314 615.791 468.024 615.791 458.743 615.791C448.603 615.791 438.474 615.791 428.335 615.791C418.034 615.791 407.734 615.791 397.442 615.791C387.905 615.791 378.363 615.791 368.83 615.791C360.739 615.791 352.656 615.791 344.566 615.791C338.747 615.791 332.936 615.791 327.12 615.791C324.367 615.791 321.617 615.745 318.875 615.791C318.758 615.791 318.63 615.791 318.513 615.791C315.915 615.846 313.336 615.446 310.874 614.65C308.439 613.854 306.139 612.658 304.055 611.163C302.006 609.687 300.166 607.894 298.625 605.893C297.065 603.874 295.793 601.61 294.899 599.21C293.997 596.775 293.464 594.193 293.385 591.595C293.374 591.258 293.374 590.932 293.374 590.598C293.374 590.228 293.094 590.046 292.806 590.054C292.518 590.054 292.23 590.236 292.238 590.598Z" fill="#7A8450"/>
</g>
<mask id="mask1_68_122" style="mask-type:luminance" maskUnits="userSpaceOnUse" x="826" y="590" width="359" height="53">
<path d="M1185 590V642.702H826V590H1185Z" fill="white"/>
</mask>
<g mask="url(#mask1_68_122)">
<path d="M1107.76 642.104C1107.71 639.495 1108.1 636.905 1108.91 634.435C1109.7 631.989 1110.88 629.69 1112.37 627.597C1113.85 625.524 1115.65 623.659 1117.65 622.102C1119.66 620.542 1121.9 619.267 1124.29 618.387C1126.71 617.493 1129.26 616.976 1131.85 616.922C1132.19 616.911 1132.51 616.911 1132.85 616.922C1135.44 616.868 1138.02 617.264 1140.49 618.061C1142.92 618.86 1145.22 620.053 1147.31 621.547C1149.35 623.023 1151.19 624.817 1152.74 626.817C1154.3 628.836 1155.57 631.1 1156.46 633.5C1157.36 635.938 1157.9 638.517 1157.97 641.118C1157.98 641.444 1157.98 641.778 1157.98 642.113C1157.98 642.485 1158.26 642.664 1158.55 642.656C1158.83 642.656 1159.11 642.474 1159.11 642.113C1159.06 639.506 1159.45 636.916 1160.25 634.443C1161.04 631.997 1162.23 629.698 1163.71 627.605C1165.19 625.532 1166.98 623.667 1168.99 622.11C1171 620.553 1173.25 619.275 1175.63 618.398C1178.06 617.501 1180.61 616.984 1183.2 616.93C1183.53 616.922 1183.86 616.922 1184.19 616.93C1184.55 616.922 1184.73 616.639 1184.73 616.351C1184.73 616.069 1184.55 615.78 1184.19 615.78C1181.59 615.797 1179 615.392 1176.53 614.576C1174.1 613.777 1171.81 612.584 1169.74 611.098C1167.67 609.622 1165.82 607.82 1164.26 605.801C1162.71 603.79 1161.46 601.537 1160.58 599.145C1159.68 596.71 1159.17 594.136 1159.11 591.538C1159.09 591.204 1159.09 590.878 1159.11 590.543C1159.11 590.179 1158.83 590 1158.55 590C1158.27 590 1157.98 590.179 1157.98 590.543C1158 593.169 1157.59 595.767 1156.77 598.267C1155.97 600.694 1154.79 602.985 1153.31 605.067C1151.84 607.133 1150.07 608.978 1148.07 610.527C1146.07 612.084 1143.82 613.362 1141.43 614.25C1139 615.155 1136.43 615.688 1133.83 615.77C1133.5 615.78 1133.17 615.789 1132.84 615.78C1130.24 615.808 1127.67 615.4 1125.21 614.585C1122.77 613.777 1120.47 612.584 1118.38 611.09C1116.31 609.603 1114.46 607.801 1112.89 605.774C1111.35 603.773 1110.1 601.526 1109.22 599.153C1108.32 596.71 1107.81 594.136 1107.75 591.53C1107.74 591.196 1107.74 590.87 1107.75 590.533C1107.77 590.179 1107.48 590 1107.2 590C1106.92 590 1106.63 590.179 1106.63 590.543C1106.65 593.169 1106.24 595.767 1105.42 598.267C1104.63 600.694 1103.45 602.985 1101.97 605.067C1100.51 607.133 1098.72 608.978 1096.73 610.527C1094.73 612.084 1092.47 613.362 1090.1 614.25C1087.66 615.164 1085.09 615.688 1082.49 615.77C1082.16 615.78 1081.84 615.789 1081.5 615.78C1079.6 615.78 1077.7 615.78 1075.79 615.78C1070.66 615.78 1065.53 615.78 1060.4 615.78C1052.78 615.78 1045.18 615.78 1037.57 615.78C1028.28 615.78 1018.99 615.78 1009.71 615.78C999.574 615.78 989.445 615.78 979.305 615.78C969.005 615.78 958.702 615.78 948.41 615.78C938.876 615.78 929.334 615.78 919.797 615.78C911.707 615.78 903.627 615.78 895.533 615.78C889.717 615.78 883.907 615.78 878.088 615.78C875.338 615.78 872.588 615.734 869.845 615.78C869.728 615.78 869.601 615.78 869.484 615.78C865.326 615.789 861.448 612.992 859.993 609.098C859.58 607.975 859.363 606.806 859.371 605.611C859.371 605.238 859.094 605.059 858.803 605.067C858.523 605.067 858.235 605.249 858.246 605.611C858.336 609.804 855.477 613.696 851.596 615.155C850.487 615.571 849.324 615.789 848.133 615.789C843.994 615.797 840.059 612.973 838.643 609.078C838.238 607.964 838.048 606.806 838.075 605.619C838.086 605.257 837.806 605.075 837.526 605.075C837.238 605.075 836.958 605.249 836.958 605.619C836.966 609.785 834.197 613.688 830.319 615.155C829.21 615.571 828.036 615.797 826.845 615.789C826.476 615.789 826.296 616.079 826.304 616.359C826.304 616.639 826.484 616.922 826.845 616.911C831.031 616.802 834.892 619.691 836.325 623.586C836.732 624.689 836.947 625.85 836.947 627.035C836.947 627.407 837.238 627.589 837.518 627.578C837.795 627.578 838.075 627.399 838.067 627.035C837.958 622.871 840.817 618.922 844.679 617.493C845.788 617.085 846.943 616.876 848.125 616.911C852.291 616.794 856.216 619.683 857.64 623.567C858.048 624.681 858.254 625.842 858.227 627.035C858.219 627.399 858.496 627.578 858.787 627.578C859.075 627.578 859.355 627.407 859.355 627.035C859.328 622.871 862.132 618.914 866.021 617.482C867.13 617.074 868.285 616.876 869.465 616.911C871.37 616.911 873.272 616.911 875.175 616.911C880.309 616.911 885.44 616.911 890.574 616.911C898.186 616.911 905.79 616.911 913.403 616.911C922.686 616.911 931.976 616.911 941.257 616.911C951.397 616.911 961.526 616.911 971.665 616.911C981.966 616.911 992.266 616.911 1002.56 616.911C1012.09 616.911 1021.64 616.911 1031.17 616.911C1039.26 616.911 1047.34 616.911 1055.43 616.911C1061.25 616.911 1067.06 616.911 1072.88 616.911C1075.63 616.911 1078.38 616.957 1081.13 616.911C1081.24 616.911 1081.37 616.911 1081.49 616.911C1084.08 616.857 1086.66 617.256 1089.13 618.052C1091.56 618.849 1093.86 620.045 1095.95 621.539C1097.99 623.015 1099.83 624.809 1101.38 626.809C1102.94 628.828 1104.21 631.092 1105.1 633.492C1106 635.927 1106.54 638.509 1106.61 641.107C1106.63 641.444 1106.63 641.77 1106.63 642.104C1106.63 642.474 1106.91 642.656 1107.19 642.648C1107.48 642.648 1107.77 642.466 1107.76 642.104Z" fill="#7A8450"/>
</g>
<mask id="mask2_68_122" style="mask-type:luminance" maskUnits="userSpaceOnUse" x="662" y="564" width="68" height="114">
<path d="M662 564.07H729.657V678H662V564.07Z" fill="white"/>
</mask>
<g mask="url(#mask2_68_122)">
<path d="M729.458 620.463C696.944 621.869 696.397 623.275 695.722 677.988C695.044 623.257 694.496 621.845 661.981 620.463C694.496 620.491 695.044 619.137 695.722 564.399C696.397 619.137 696.944 620.491 729.458 620.463Z" fill="#7A8450"/>
</g>
<mask id="mask3_68_122" style="mask-type:luminance" maskUnits="userSpaceOnUse" x="710" y="567" width="28" height="47">
<path d="M710.139 567.515H737.204V613.058H710.139V567.515Z" fill="white"/>
</mask>
<g mask="url(#mask3_68_122)">
<path d="M737.204 589.936C724.348 590.485 724.129 591.043 723.861 612.686C723.595 591.043 723.393 590.485 710.52 589.936C723.38 589.936 723.595 589.412 723.861 567.764C724.129 589.398 724.348 589.947 737.204 589.936Z" fill="#7A8450"/>
</g>
<mask id="mask4_68_122" style="mask-type:luminance" maskUnits="userSpaceOnUse" x="665" y="554" width="20" height="31">
<path d="M665.743 554H684.114V584.354H665.743V554Z" fill="white"/>
</mask>
<g mask="url(#mask4_68_122)">
<path d="M683.994 568.978C675.308 569.349 675.163 569.724 674.981 584.345C674.803 569.724 674.653 569.345 665.972 568.978C674.653 568.978 674.803 568.622 674.981 554.008C675.15 568.622 675.308 568.989 683.994 568.978Z" fill="#7A8450"/>
</g>
<mask id="mask5_68_122" style="mask-type:luminance" maskUnits="userSpaceOnUse" x="662" y="564" width="68" height="114">
<path d="M662 564.07H729.657V678H662V564.07Z" fill="white"/>
</mask>
<g mask="url(#mask5_68_122)">
<path d="M729.458 620.463C696.944 621.869 696.397 623.275 695.722 677.988C695.044 623.257 694.496 621.845 661.981 620.463C694.496 620.491 695.044 619.137 695.722 564.399C696.397 619.137 696.944 620.491 729.458 620.463Z" fill="#7A8450"/>
</g>
<mask id="mask6_68_122" style="mask-type:luminance" maskUnits="userSpaceOnUse" x="662" y="564" width="68" height="114">
<path d="M662 564.07H729.657V678H662V564.07Z" fill="white"/>
</mask>
<g mask="url(#mask6_68_122)">
<path d="M729.458 620.463C696.944 621.869 696.397 623.275 695.722 677.988C695.044 623.257 694.496 621.845 661.981 620.463C694.496 620.491 695.044 619.137 695.722 564.399C696.397 619.137 696.944 620.491 729.458 620.463Z" fill="#7A8450"/>
</g>
<mask id="mask7_68_122" style="mask-type:luminance" maskUnits="userSpaceOnUse" x="285" y="25" width="88" height="93">
<path d="M285.922 25H373V117.522H285.922V25Z" fill="white"/>
</mask>
<g mask="url(#mask7_68_122)">
<path d="M366.51 105.671C332.941 74.1412 333.505 67.1267 373 25.0197C333.505 67.1267 326.549 68.1366 292.98 36.6028C326.549 68.1366 325.985 75.1472 286.49 117.254C325.985 75.1472 332.941 74.1412 366.51 105.671Z" fill="#7A8450"/>
</g>
<path d="M236.816 160.9C233.751 150.098 234.749 148.701 248.281 144.859C234.749 148.701 233.167 148.038 230.106 137.233C233.167 148.038 232.173 149.435 218.637 153.278C232.173 149.435 233.751 150.098 236.816 160.9Z" fill="#7A8450"/>
<mask id="mask8_68_122" style="mask-type:luminance" maskUnits="userSpaceOnUse" x="-83" y="152" width="295" height="201">
<path d="M-83 152.871H211.184V352.229H-83V152.871Z" fill="white"/>
</mask>
<g mask="url(#mask8_68_122)">
<path d="M210.699 153.57C206.888 155.136 202.943 156.225 198.867 156.832C186.827 159.006 174.585 160.087 162.493 161.701C154.445 162.714 146.475 164.17 138.585 166.064C115.403 171.848 92.7341 184.61 79.6361 205.086C66.2501 225.983 67.0352 251.734 60.6559 275.069C51.0809 311.815 22.0957 325.398 -11.9434 334.077C-34.7938 339.932 -60.2087 346.572 -83 352.245C-60.4336 345.885 -35.1173 338.819 -12.3536 332.562C10.6112 326.286 35.0832 317.129 48.6704 296.377C62.4549 275.661 61.2713 249.741 67.6191 226.409C75.6554 192.907 105.864 171.437 138.025 163.788C153.944 159.854 170.34 158.896 186.527 156.939C194.646 156.165 202.568 154.142 210.699 153.57Z" fill="#7A8450"/>
</g>
<path d="M287.472 116.201C276.173 127.342 262.874 137.84 251.465 143.434C251.465 143.434 310.958 93.0426 287.472 116.201Z" fill="#7A8450"/>
<mask id="mask9_68_122" style="mask-type:luminance" maskUnits="userSpaceOnUse" x="1015" y="476" width="88" height="94">
<path d="M1102.08 569.229H1015V476.707H1102.08V569.229Z" fill="white"/>
</mask>
<g mask="url(#mask9_68_122)">
<path d="M1021.49 488.558C1055.06 520.088 1054.5 527.102 1015 569.209C1054.5 527.102 1061.45 526.093 1095.02 557.626C1061.45 526.093 1062.01 519.082 1101.51 476.975C1062.01 519.082 1055.06 520.088 1021.49 488.558Z" fill="#7A8450"/>
</g>
<path d="M1151.18 433.329C1154.25 444.131 1153.25 445.528 1139.72 449.371C1153.25 445.528 1154.83 446.191 1157.89 456.997C1154.83 446.191 1155.83 444.794 1169.36 440.952C1155.83 444.794 1154.25 444.131 1151.18 433.329Z" fill="#7A8450"/>
<mask id="mask10_68_122" style="mask-type:luminance" maskUnits="userSpaceOnUse" x="1176" y="242" width="295" height="200">
<path d="M1471 441.358L1176.82 441.358V242L1471 242V441.358Z" fill="white"/>
</mask>
<g mask="url(#mask10_68_122)">
<path d="M1177.3 440.66C1181.11 439.093 1185.06 438.005 1189.13 437.397C1201.17 435.223 1213.42 434.142 1225.51 432.529C1233.56 431.515 1241.52 430.059 1249.41 428.165C1272.6 422.382 1295.27 409.619 1308.36 389.143C1321.75 368.246 1320.96 342.496 1327.34 319.16C1336.92 282.414 1365.9 268.831 1399.94 260.152C1422.79 254.297 1448.21 247.657 1471 241.984C1448.43 248.344 1423.12 255.41 1400.35 261.667C1377.39 267.944 1352.92 277.1 1339.33 297.852C1325.55 318.568 1326.73 344.488 1320.38 367.82C1312.34 401.322 1282.14 422.792 1249.98 430.442C1234.06 434.375 1217.66 435.334 1201.47 437.29C1193.35 438.064 1185.43 440.088 1177.3 440.66Z" fill="#7A8450"/>
</g>
<path d="M1100.53 478.028C1111.83 466.887 1125.13 456.389 1136.54 450.795C1136.54 450.795 1077.04 501.187 1100.53 478.028Z" fill="#7A8450"/>
</g>
<defs>
<clipPath id="clip0_68_122">
<rect width="1400" height="678" fill="white"/>
</clipPath>
</defs>
</svg>
