<svg width="1400" height="700" viewBox="0 0 1400 700" fill="none" xmlns="http://www.w3.org/2000/svg">
<mask id="mask0_68_122" style="mask-type:luminance" maskUnits="userSpaceOnUse" x="1065" y="533" width="70" height="73">
<path d="M1134.66 606H1066V533.052H1134.66V606Z" fill="white"/>
</mask>
<g mask="url(#mask0_68_122)">
<path d="M1071.12 542.396C1097.58 567.255 1097.14 572.786 1066 605.984C1097.14 572.786 1102.62 571.989 1129.09 596.852C1102.62 571.989 1103.07 566.462 1134.21 533.263C1103.07 566.462 1097.58 567.255 1071.12 542.396Z" fill="#738942"/>
</g>
<path d="M1173.37 498.852C1175.79 507.368 1175 508.469 1164.33 511.499C1175 508.469 1176.25 508.992 1178.66 517.512C1176.25 508.992 1177.03 507.891 1187.71 504.861C1177.03 507.891 1175.79 507.368 1173.37 498.852Z" fill="#738942"/>
<mask id="mask1_68_122" style="mask-type:luminance" maskUnits="userSpaceOnUse" x="1193" y="348" width="233" height="158">
<path d="M1425.53 505.181L1193.58 505.181V348H1425.53V505.181Z" fill="white"/>
</mask>
<g mask="url(#mask1_68_122)">
<path d="M1193.96 504.631C1196.97 503.396 1200.08 502.537 1203.29 502.058C1212.79 500.345 1222.44 499.492 1231.97 498.22C1238.32 497.421 1244.6 496.273 1250.82 494.78C1269.1 490.22 1286.97 480.157 1297.3 464.014C1307.85 447.537 1307.23 427.235 1312.26 408.836C1319.81 379.864 1342.67 369.155 1369.5 362.312C1387.52 357.696 1407.56 352.461 1425.53 347.988C1407.74 353.002 1387.78 358.573 1369.83 363.506C1351.72 368.455 1332.43 375.674 1321.71 392.036C1310.85 408.369 1311.78 428.805 1306.77 447.201C1300.44 473.616 1276.62 490.543 1251.26 496.575C1238.71 499.676 1225.79 500.432 1213.02 501.974C1206.62 502.584 1200.38 504.18 1193.96 504.631Z" fill="#738942"/>
</g>
<path d="M1133.43 534.094C1142.34 525.31 1152.83 517.032 1161.82 512.622C1161.82 512.622 1114.92 552.353 1133.43 534.094Z" fill="#738942"/>
<mask id="mask2_68_122" style="mask-type:luminance" maskUnits="userSpaceOnUse" x="255" y="109" width="70" height="73">
<path d="M255.872 109H324.528V181.948H255.872V109Z" fill="white"/>
</mask>
<g mask="url(#mask2_68_122)">
<path d="M319.411 172.604C292.944 147.745 293.388 142.214 324.528 109.016C293.388 142.214 287.905 143.011 261.437 118.148C287.905 143.011 287.46 148.538 256.32 181.737C287.46 148.538 292.944 147.745 319.411 172.604Z" fill="#738942"/>
</g>
<path d="M217.155 216.149C214.739 207.632 215.526 206.531 226.195 203.501C215.526 206.531 214.278 206.008 211.864 197.488C214.278 206.008 213.494 207.109 202.822 210.139C213.494 207.109 214.739 207.632 217.155 216.149Z" fill="#738942"/>
<mask id="mask3_68_122" style="mask-type:luminance" maskUnits="userSpaceOnUse" x="-35" y="209" width="232" height="158">
<path d="M-35 209.819H196.946V367H-35V209.819Z" fill="white"/>
</mask>
<g mask="url(#mask3_68_122)">
<path d="M196.564 210.369C193.559 211.604 190.448 212.463 187.235 212.942C177.742 214.655 168.09 215.508 158.556 216.78C152.21 217.579 145.927 218.727 139.706 220.22C121.429 224.78 103.556 234.843 93.2285 250.986C82.6745 267.463 83.2935 287.765 78.2638 306.164C70.7145 335.136 47.8614 345.845 21.0238 352.688C3.00758 357.304 -17.0305 362.539 -35 367.012C-17.2078 361.998 2.75252 356.427 20.7003 351.494C38.8067 346.545 58.1013 339.326 68.814 322.964C79.6822 306.631 78.749 286.195 83.7539 267.799C90.09 241.384 113.907 224.457 139.264 218.425C151.815 215.324 164.743 214.568 177.505 213.026C183.907 212.416 190.153 210.82 196.564 210.369Z" fill="#738942"/>
</g>
<path d="M257.095 180.906C248.186 189.69 237.7 197.968 228.705 202.378C228.705 202.378 275.612 162.647 257.095 180.906Z" fill="#738942"/>
</svg>
