<svg width="1400" height="678" viewBox="0 0 1400 678" fill="none" xmlns="http://www.w3.org/2000/svg">
<mask id="mask0_68_122" style="mask-type:luminance" maskUnits="userSpaceOnUse" x="215" y="590" width="359" height="53">
<path d="M215 642.702V590H574V642.702H215Z" fill="white"/>
</mask>
<g mask="url(#mask0_68_122)">
<path d="M292.238 590.598C292.293 593.207 291.896 595.797 291.094 598.267C290.298 600.713 289.118 603.013 287.629 605.105C286.15 607.179 284.354 609.043 282.351 610.6C280.34 612.16 278.095 613.435 275.714 614.316C273.287 615.21 270.735 615.726 268.145 615.78C267.811 615.791 267.488 615.791 267.153 615.78C264.555 615.835 261.984 615.438 259.514 614.642C257.079 613.843 254.777 612.65 252.692 611.155C250.646 609.679 248.806 607.885 247.262 605.885C245.702 603.866 244.43 601.602 243.539 599.202C242.637 596.764 242.104 594.185 242.031 591.584C242.023 591.258 242.023 590.924 242.023 590.59C242.023 590.217 241.743 590.038 241.454 590.046C241.175 590.046 240.886 590.228 240.895 590.59C240.941 593.196 240.552 595.786 239.75 598.259C238.957 600.705 237.775 603.004 236.285 605.097C234.807 607.171 233.021 609.035 231.01 610.592C228.996 612.15 226.752 613.427 224.371 614.305C221.944 615.202 219.392 615.718 216.802 615.772C216.468 615.78 216.144 615.78 215.81 615.772C215.448 615.78 215.269 616.063 215.269 616.351C215.269 616.634 215.448 616.922 215.81 616.922C218.408 616.906 220.995 617.311 223.468 618.126C225.895 618.925 228.186 620.118 230.26 621.605C232.326 623.08 234.185 624.882 235.736 626.901C237.288 628.913 238.541 631.166 239.424 633.557C240.318 635.992 240.832 638.566 240.895 641.164C240.906 641.498 240.906 641.825 240.895 642.159C240.886 642.523 241.175 642.702 241.454 642.702C241.734 642.702 242.023 642.523 242.023 642.159C242.003 639.534 242.411 636.935 243.232 634.435C244.025 632.008 245.208 629.717 246.686 627.635C248.156 625.57 249.934 623.724 251.926 622.175C253.929 620.618 256.185 619.341 258.565 618.452C261 617.547 263.571 617.014 266.17 616.933C266.504 616.922 266.827 616.914 267.162 616.922C269.76 616.895 272.331 617.302 274.793 618.118C277.228 618.925 279.53 620.118 281.623 621.613C283.688 623.099 285.544 624.901 287.107 626.929C288.648 628.929 289.901 631.176 290.776 633.549C291.678 635.992 292.192 638.566 292.246 641.172C292.257 641.507 292.257 641.833 292.246 642.17C292.23 642.523 292.518 642.702 292.798 642.702C293.078 642.702 293.366 642.523 293.366 642.159C293.347 639.534 293.763 636.935 294.575 634.435C295.369 632.008 296.551 629.717 298.03 627.635C299.489 625.57 301.277 623.724 303.27 622.175C305.272 620.618 307.528 619.341 309.901 618.452C312.336 617.539 314.907 617.014 317.505 616.933C317.837 616.922 318.163 616.914 318.497 616.922C320.399 616.922 322.302 616.922 324.207 616.922C329.338 616.922 334.472 616.922 339.603 616.922C347.215 616.922 354.82 616.922 362.435 616.922C371.716 616.922 381.005 616.922 390.289 616.922C400.426 616.922 410.555 616.922 420.695 616.922C430.995 616.922 441.298 616.922 451.59 616.922C461.124 616.922 470.666 616.922 480.203 616.922C488.293 616.922 496.373 616.922 504.467 616.922C510.283 616.922 516.093 616.922 521.912 616.922C524.662 616.922 527.412 616.968 530.155 616.922C530.272 616.922 530.399 616.922 530.516 616.922C534.674 616.914 538.553 619.71 540.007 623.605C540.42 624.727 540.637 625.896 540.629 627.092C540.629 627.464 540.906 627.643 541.197 627.635C541.477 627.635 541.765 627.453 541.754 627.092C541.664 622.898 544.523 619.006 548.404 617.547C549.513 617.131 550.676 616.914 551.867 616.914C556.006 616.906 559.941 619.729 561.357 623.624C561.762 624.738 561.952 625.896 561.925 627.084C561.914 627.445 562.194 627.627 562.474 627.627C562.762 627.627 563.042 627.453 563.042 627.084C563.034 622.917 565.803 619.015 569.682 617.547C570.79 617.131 571.964 616.906 573.155 616.914C573.524 616.914 573.704 616.623 573.696 616.343C573.696 616.063 573.516 615.78 573.155 615.791C568.969 615.9 565.108 613.011 563.675 609.117C563.268 608.013 563.053 606.853 563.053 605.668C563.053 605.295 562.762 605.113 562.482 605.124C562.205 605.124 561.925 605.304 561.933 605.668C562.042 609.831 559.183 613.78 555.321 615.21C554.212 615.617 553.057 615.827 551.875 615.791C547.709 615.908 543.784 613.019 542.36 609.136C541.952 608.021 541.746 606.861 541.773 605.668C541.781 605.304 541.504 605.124 541.213 605.124C540.925 605.124 540.645 605.295 540.645 605.668C540.672 609.831 537.868 613.788 533.979 615.221C532.87 615.628 531.715 615.827 530.535 615.791C528.63 615.791 526.728 615.791 524.825 615.791C519.691 615.791 514.56 615.791 509.426 615.791C501.814 615.791 494.21 615.791 486.597 615.791C477.314 615.791 468.024 615.791 458.743 615.791C448.603 615.791 438.474 615.791 428.335 615.791C418.034 615.791 407.734 615.791 397.442 615.791C387.905 615.791 378.363 615.791 368.83 615.791C360.739 615.791 352.656 615.791 344.566 615.791C338.747 615.791 332.936 615.791 327.12 615.791C324.367 615.791 321.617 615.745 318.875 615.791C318.758 615.791 318.63 615.791 318.513 615.791C315.915 615.846 313.336 615.446 310.874 614.65C308.439 613.854 306.139 612.658 304.055 611.163C302.006 609.687 300.166 607.894 298.625 605.893C297.065 603.874 295.793 601.61 294.899 599.21C293.997 596.775 293.464 594.193 293.385 591.595C293.374 591.258 293.374 590.932 293.374 590.598C293.374 590.228 293.094 590.046 292.806 590.054C292.518 590.054 292.23 590.236 292.238 590.598Z" fill="#7A8450"/>
</g>
<mask id="mask1_68_122" style="mask-type:luminance" maskUnits="userSpaceOnUse" x="826" y="590" width="359" height="53">
<path d="M1185 590V642.702H826V590H1185Z" fill="white"/>
</mask>
<g mask="url(#mask1_68_122)">
<path d="M1107.76 642.104C1107.71 639.495 1108.1 636.905 1108.91 634.435C1109.7 631.989 1110.88 629.69 1112.37 627.597C1113.85 625.524 1115.65 623.659 1117.65 622.102C1119.66 620.542 1121.9 619.267 1124.29 618.387C1126.71 617.493 1129.26 616.976 1131.85 616.922C1132.19 616.911 1132.51 616.911 1132.85 616.922C1135.44 616.868 1138.02 617.264 1140.49 618.061C1142.92 618.86 1145.22 620.053 1147.31 621.547C1149.35 623.023 1151.19 624.817 1152.74 626.817C1154.3 628.836 1155.57 631.1 1156.46 633.5C1157.36 635.938 1157.9 638.517 1157.97 641.118C1157.98 641.444 1157.98 641.778 1157.98 642.113C1157.98 642.485 1158.26 642.664 1158.55 642.656C1158.83 642.656 1159.11 642.474 1159.11 642.113C1159.06 639.506 1159.45 636.916 1160.25 634.443C1161.04 631.997 1162.23 629.698 1163.71 627.605C1165.19 625.532 1166.98 623.667 1168.99 622.11C1171 620.553 1173.25 619.275 1175.63 618.398C1178.06 617.501 1180.61 616.984 1183.2 616.93C1183.53 616.922 1183.86 616.922 1184.19 616.93C1184.55 616.922 1184.73 616.639 1184.73 616.351C1184.73 616.069 1184.55 615.78 1184.19 615.78C1181.59 615.797 1179 615.392 1176.53 614.576C1174.1 613.777 1171.81 612.584 1169.74 611.098C1167.67 609.622 1165.82 607.82 1164.26 605.801C1162.71 603.79 1161.46 601.537 1160.58 599.145C1159.68 596.71 1159.17 594.136 1159.11 591.538C1159.09 591.204 1159.09 590.878 1159.11 590.543C1159.11 590.179 1158.83 590 1158.55 590C1158.27 590 1157.98 590.179 1157.98 590.543C1158 593.169 1157.59 595.767 1156.77 598.267C1155.97 600.694 1154.79 602.985 1153.31 605.067C1151.84 607.133 1150.07 608.978 1148.07 610.527C1146.07 612.084 1143.82 613.362 1141.43 614.25C1139 615.155 1136.43 615.688 1133.83 615.77C1133.5 615.78 1133.17 615.789 1132.84 615.78C1130.24 615.808 1127.67 615.4 1125.21 614.585C1122.77 613.777 1120.47 612.584 1118.38 611.09C1116.31 609.603 1114.46 607.801 1112.89 605.774C1111.35 603.773 1110.1 601.526 1109.22 599.153C1108.32 596.71 1107.81 594.136 1107.75 591.53C1107.74 591.196 1107.74 590.87 1107.75 590.533C1107.77 590.179 1107.48 590 1107.2 590C1106.92 590 1106.63 590.179 1106.63 590.543C1106.65 593.169 1106.24 595.767 1105.42 598.267C1104.63 600.694 1103.45 602.985 1101.97 605.067C1100.51 607.133 1098.72 608.978 1096.73 610.527C1094.73 612.084 1092.47 613.362 1090.1 614.25C1087.66 615.164 1085.09 615.688 1082.49 615.77C1082.16 615.78 1081.84 615.789 1081.5 615.78C1079.6 615.78 1077.7 615.78 1075.79 615.78C1070.66 615.78 1065.53 615.78 1060.4 615.78C1052.78 615.78 1045.18 615.78 1037.57 615.78C1028.28 615.78 1018.99 615.78 1009.71 615.78C999.574 615.78 989.445 615.78 979.305 615.78C969.005 615.78 958.702 615.78 948.41 615.78C938.876 615.78 929.334 615.78 919.797 615.78C911.707 615.78 903.627 615.78 895.533 615.78C889.717 615.78 883.907 615.78 878.088 615.78C875.338 615.78 872.588 615.734 869.845 615.78C869.728 615.78 869.601 615.78 869.484 615.78C865.326 615.789 861.448 612.992 859.994 609.098C859.58 607.975 859.363 606.806 859.371 605.611C859.371 605.238 859.094 605.059 858.803 605.067C858.523 605.067 858.235 605.249 858.246 605.611C858.336 609.804 855.477 613.696 851.596 615.155C850.487 615.571 849.324 615.789 848.133 615.789C843.994 615.797 840.059 612.973 838.643 609.078C838.238 607.964 838.048 606.806 838.075 605.619C838.086 605.257 837.806 605.075 837.526 605.075C837.238 605.075 836.958 605.249 836.958 605.619C836.966 609.785 834.197 613.688 830.318 615.155C829.21 615.571 828.036 615.797 826.845 615.789C826.476 615.789 826.296 616.079 826.304 616.359C826.304 616.639 826.484 616.922 826.845 616.911C831.031 616.802 834.892 619.691 836.325 623.586C836.732 624.689 836.947 625.85 836.947 627.035C836.947 627.407 837.238 627.589 837.518 627.578C837.795 627.578 838.075 627.399 838.067 627.035C837.958 622.871 840.817 618.922 844.679 617.493C845.788 617.085 846.943 616.876 848.125 616.911C852.291 616.794 856.216 619.683 857.64 623.567C858.048 624.681 858.254 625.842 858.227 627.035C858.219 627.399 858.496 627.578 858.787 627.578C859.075 627.578 859.355 627.407 859.355 627.035C859.328 622.871 862.132 618.914 866.021 617.482C867.13 617.074 868.285 616.876 869.465 616.911C871.37 616.911 873.272 616.911 875.175 616.911C880.309 616.911 885.44 616.911 890.574 616.911C898.186 616.911 905.79 616.911 913.403 616.911C922.686 616.911 931.976 616.911 941.257 616.911C951.397 616.911 961.526 616.911 971.665 616.911C981.966 616.911 992.266 616.911 1002.56 616.911C1012.09 616.911 1021.64 616.911 1031.17 616.911C1039.26 616.911 1047.34 616.911 1055.43 616.911C1061.25 616.911 1067.06 616.911 1072.88 616.911C1075.63 616.911 1078.38 616.957 1081.13 616.911C1081.24 616.911 1081.37 616.911 1081.49 616.911C1084.08 616.857 1086.66 617.256 1089.13 618.052C1091.56 618.849 1093.86 620.045 1095.95 621.539C1097.99 623.015 1099.83 624.809 1101.38 626.809C1102.94 628.828 1104.21 631.092 1105.1 633.492C1106 635.927 1106.54 638.509 1106.61 641.107C1106.63 641.444 1106.63 641.77 1106.63 642.104C1106.63 642.474 1106.91 642.656 1107.19 642.648C1107.48 642.648 1107.77 642.466 1107.76 642.104Z" fill="#7A8450"/>
</g>
<mask id="mask2_68_122" style="mask-type:luminance" maskUnits="userSpaceOnUse" x="662" y="564" width="68" height="114">
<path d="M662 564.07H729.657V678H662V564.07Z" fill="white"/>
</mask>
<g mask="url(#mask2_68_122)">
<path d="M729.458 620.463C696.944 621.869 696.397 623.275 695.722 677.988C695.044 623.257 694.496 621.845 661.981 620.463C694.496 620.491 695.044 619.137 695.722 564.399C696.397 619.137 696.944 620.491 729.458 620.463Z" fill="#7A8450"/>
</g>
<mask id="mask3_68_122" style="mask-type:luminance" maskUnits="userSpaceOnUse" x="710" y="567" width="28" height="47">
<path d="M710.139 567.515H737.204V613.058H710.139V567.515Z" fill="white"/>
</mask>
<g mask="url(#mask3_68_122)">
<path d="M737.204 589.936C724.348 590.485 724.129 591.043 723.861 612.686C723.595 591.043 723.393 590.485 710.52 589.936C723.38 589.936 723.595 589.412 723.861 567.764C724.129 589.398 724.348 589.947 737.204 589.936Z" fill="#7A8450"/>
</g>
<mask id="mask4_68_122" style="mask-type:luminance" maskUnits="userSpaceOnUse" x="665" y="554" width="20" height="31">
<path d="M665.743 554H684.114V584.354H665.743V554Z" fill="white"/>
</mask>
<g mask="url(#mask4_68_122)">
<path d="M683.994 568.978C675.308 569.349 675.163 569.724 674.981 584.345C674.803 569.724 674.653 569.345 665.972 568.978C674.653 568.978 674.803 568.622 674.981 554.008C675.15 568.622 675.308 568.989 683.994 568.978Z" fill="#7A8450"/>
</g>
<mask id="mask5_68_122" style="mask-type:luminance" maskUnits="userSpaceOnUse" x="662" y="564" width="68" height="114">
<path d="M662 564.07H729.657V678H662V564.07Z" fill="white"/>
</mask>
<g mask="url(#mask5_68_122)">
<path d="M729.458 620.463C696.944 621.869 696.397 623.275 695.722 677.988C695.044 623.257 694.496 621.845 661.981 620.463C694.496 620.491 695.044 619.137 695.722 564.399C696.397 619.137 696.944 620.491 729.458 620.463Z" fill="#7A8450"/>
</g>
<mask id="mask6_68_122" style="mask-type:luminance" maskUnits="userSpaceOnUse" x="662" y="564" width="68" height="114">
<path d="M662 564.07H729.657V678H662V564.07Z" fill="white"/>
</mask>
<g mask="url(#mask6_68_122)">
<path d="M729.458 620.463C696.944 621.869 696.397 623.275 695.722 677.988C695.044 623.257 694.496 621.845 661.981 620.463C694.496 620.491 695.044 619.137 695.722 564.399C696.397 619.137 696.944 620.491 729.458 620.463Z" fill="#7A8450"/>
</g>
<path d="M554.35 181.827C554.563 188.812 555.031 193.306 555.755 195.308H541.316C542.551 192.326 543.169 186.129 543.169 176.716C543.169 167.303 542.551 161.297 541.316 158.699C543.616 158.4 546.193 157.825 549.047 156.974C551.943 156.079 554.179 155.185 555.755 154.29C555.287 155.738 554.903 158.592 554.605 162.851C554.35 167.111 554.243 171.711 554.286 176.652C555.053 173.5 555.947 170.902 556.969 168.857C557.992 166.77 559.291 165.258 560.867 164.321C561.633 163.852 562.506 163.554 563.486 163.426C564.466 163.256 565.467 163.32 566.489 163.618C567.554 163.874 568.512 164.364 569.364 165.088C570.216 165.769 570.919 166.834 571.472 168.282C572.026 169.688 572.303 171.37 572.303 173.33C572.303 173.457 572.303 174.203 572.303 175.566C572.303 176.929 572.303 178.036 572.303 178.888C572.303 179.697 572.303 180.89 572.303 182.466C572.346 183.999 572.41 185.32 572.495 186.427C572.58 187.535 572.665 188.706 572.75 189.941C572.878 191.176 573.048 192.263 573.261 193.2C573.474 194.094 573.709 194.797 573.964 195.308H560.036C560.59 194.541 561.037 192.177 561.378 188.216C561.761 184.212 561.804 180.315 561.506 176.524C561.207 172.691 560.505 170.731 559.397 170.646C558.46 170.604 557.629 171.392 556.905 173.01C556.181 174.629 555.5 176.822 554.861 179.591C554.69 180.272 554.52 181.018 554.35 181.827ZM589.253 195.308H575.325C576.262 193.178 576.837 190.687 577.05 187.833C577.263 184.936 577.178 182.338 576.794 180.038C576.454 177.695 575.964 175.885 575.325 174.607C577.923 174.607 580.479 174.331 582.992 173.777C585.547 173.223 587.635 172.392 589.253 171.285C588.316 173.67 587.784 177.44 587.656 182.594C587.571 187.748 588.103 191.986 589.253 195.308ZM577.369 169.688C576.049 168.666 575.389 167.43 575.389 165.982C575.389 164.534 576.049 163.299 577.369 162.276C578.732 161.254 580.372 160.743 582.289 160.743C584.206 160.743 585.846 161.254 587.209 162.276C588.572 163.299 589.253 164.534 589.253 165.982C589.253 167.43 588.572 168.666 587.209 169.688C585.846 170.667 584.206 171.157 582.289 171.157C580.372 171.157 578.732 170.667 577.369 169.688ZM640.451 195.308H626.075C626.629 193.945 627.076 191.538 627.417 188.088C624.946 191.07 622.646 193.2 620.517 194.477C619.707 194.946 618.77 195.287 617.705 195.5C616.641 195.67 615.533 195.627 614.383 195.372C613.233 195.116 612.147 194.669 611.125 194.03C610.145 193.391 609.336 192.369 608.697 190.963C608.058 189.558 607.738 187.897 607.738 185.98C607.738 185.767 607.738 184.766 607.738 182.977C607.781 181.146 607.781 179.932 607.738 179.335C607.738 178.739 607.717 177.632 607.675 176.013C607.675 174.352 607.632 173.117 607.547 172.307C607.462 171.455 607.355 170.412 607.227 169.177C607.142 167.941 606.993 166.919 606.78 166.11C606.567 165.258 606.333 164.513 606.077 163.874C607.525 163.576 609.059 163.171 610.677 162.66C612.296 162.149 613.872 161.531 615.405 160.807C616.981 160.083 618.217 159.38 619.111 158.699V163.874H624.67V166.046H618.983L619.047 182.53C619.047 183.765 619.111 184.872 619.239 185.852C619.409 186.832 619.686 187.662 620.069 188.344C620.495 189.025 621.006 189.387 621.603 189.43C623.136 189.515 625.159 187.918 627.672 184.638L639.045 169.879C642.495 165.492 645.796 163.32 648.948 163.363C651.163 163.363 653.058 164.193 654.634 165.854C656.253 167.473 657.062 169.965 657.062 173.33C657.062 173.457 657.041 174.203 656.998 175.566C656.998 176.929 656.998 178.036 656.998 178.888C657.041 179.697 657.062 180.89 657.062 182.466C657.105 183.999 657.147 185.32 657.19 186.427C657.275 187.535 657.382 188.706 657.509 189.941C657.637 191.176 657.786 192.263 657.957 193.2C658.17 194.094 658.404 194.797 658.659 195.308H644.731C645.37 194.414 645.839 191.219 646.137 185.724C646.478 180.23 646.371 175.864 645.817 172.627C645.562 171.306 645.178 170.433 644.667 170.007C644.156 169.539 643.56 169.475 642.878 169.816C642.197 170.156 641.537 170.667 640.898 171.349C640.259 171.988 639.62 172.776 638.981 173.713C638.896 185.171 639.386 192.369 640.451 195.308ZM627.8 180.933C627.971 176.162 627.885 171.626 627.545 167.324C627.246 163.022 626.757 160.147 626.075 158.699C628.333 158.4 630.888 157.825 633.742 156.974C636.638 156.079 638.875 155.185 640.451 154.29C639.854 156.164 639.428 160.211 639.173 166.429L627.8 180.933ZM689.255 184.574C689.127 185.639 688.85 186.661 688.424 187.641C688.041 188.578 687.551 189.451 686.955 190.261C686.358 191.07 685.655 191.815 684.846 192.497C684.079 193.178 683.206 193.775 682.227 194.286C681.29 194.797 680.289 195.202 679.224 195.5C674.964 196.65 670.982 196.096 667.276 193.838C665.146 192.561 663.443 190.9 662.165 188.855C660.93 186.768 660.163 184.617 659.865 182.402C659.609 180.187 659.758 177.951 660.312 175.694C660.866 173.393 661.76 171.349 662.996 169.56C664.273 167.728 665.956 166.259 668.043 165.152C670.13 164.001 672.409 163.426 674.879 163.426C678.713 163.426 682.014 164.789 684.782 167.515C687.551 170.242 689.106 173.628 689.446 177.674H668.362C669.427 179.761 670.918 181.529 672.835 182.977C674.794 184.383 677.179 185.32 679.99 185.788C682.802 186.257 685.89 185.852 689.255 184.574ZM667.596 167.515C666.786 167.686 666.339 168.516 666.254 170.007C666.169 171.455 666.552 173.287 667.404 175.502H676.029C675.22 173.159 673.921 171.179 672.132 169.56C670.343 167.941 668.831 167.26 667.596 167.515ZM703.85 172.563C703.68 173.628 703.552 175.182 703.467 177.227C703.382 179.229 703.36 181.358 703.403 183.616C703.445 185.831 703.616 188.046 703.914 190.261C704.212 192.433 704.596 194.115 705.064 195.308H690.561C691.541 193.178 692.137 190.005 692.35 185.788C692.605 181.571 692.541 177.653 692.158 174.032C691.775 170.369 691.242 167.92 690.561 166.685C695.033 166.259 699.314 165.322 703.403 163.874V167.196C703.701 166.728 704.021 166.323 704.361 165.982C706.108 164.278 708.216 163.448 710.686 163.49C713.072 163.576 715.052 164.619 716.628 166.621C718.247 168.623 719.077 170.902 719.12 173.457C719.12 175.331 718.694 176.95 717.842 178.313C717.033 179.633 715.989 180.592 714.712 181.188C713.476 181.742 712.113 181.997 710.623 181.955C709.174 181.87 707.833 181.465 706.597 180.741C707.705 179.932 708.45 178.59 708.834 176.716C709.26 174.799 709.26 173.01 708.834 171.349C708.45 169.688 707.769 168.772 706.789 168.602C705.384 168.303 704.404 169.624 703.85 172.563ZM750.65 184.574C750.522 185.639 750.245 186.661 749.819 187.641C749.436 188.578 748.946 189.451 748.35 190.261C747.753 191.07 747.05 191.815 746.241 192.497C745.474 193.178 744.601 193.775 743.622 194.286C742.685 194.797 741.684 195.202 740.619 195.5C736.359 196.65 732.377 196.096 728.671 193.838C726.542 192.561 724.838 190.9 723.56 188.855C722.325 186.768 721.558 184.617 721.26 182.402C721.004 180.187 721.153 177.951 721.707 175.694C722.261 173.393 723.155 171.349 724.391 169.56C725.668 167.728 727.351 166.259 729.438 165.152C731.525 164.001 733.804 163.426 736.274 163.426C740.108 163.426 743.409 164.789 746.177 167.515C748.946 170.242 750.501 173.628 750.841 177.674H729.757C730.822 179.761 732.313 181.529 734.23 182.977C736.189 184.383 738.574 185.32 741.385 185.788C744.197 186.257 747.285 185.852 750.65 184.574ZM728.991 167.515C728.181 167.686 727.734 168.516 727.649 170.007C727.564 171.455 727.947 173.287 728.799 175.502H737.424C736.615 173.159 735.316 171.179 733.527 169.56C731.738 167.941 730.226 167.26 728.991 167.515ZM754.192 190.516C754.916 189.792 755.789 189.43 756.812 189.43C757.834 189.43 758.707 189.792 759.431 190.516C760.155 191.24 760.517 192.092 760.517 193.072C760.517 194.392 760.134 195.691 759.367 196.969C758.643 198.204 757.706 199.141 756.556 199.78L756.301 199.333C757.152 198.694 757.77 197.757 758.153 196.522C757.727 196.692 757.28 196.777 756.812 196.777C755.789 196.777 754.916 196.415 754.192 195.691C753.511 194.967 753.17 194.115 753.17 193.136C753.17 192.113 753.511 191.24 754.192 190.516ZM791.532 195.308H777.604C778.541 193.178 779.116 190.687 779.329 187.833C779.542 184.936 779.457 182.338 779.074 180.038C778.733 177.695 778.243 175.885 777.604 174.607C780.202 174.607 782.758 174.331 785.271 173.777C787.827 173.223 789.914 172.392 791.532 171.285C790.595 173.67 790.063 177.44 789.935 182.594C789.85 187.748 790.382 191.986 791.532 195.308ZM779.649 169.688C778.328 168.666 777.668 167.43 777.668 165.982C777.668 164.534 778.328 163.299 779.649 162.276C781.012 161.254 782.651 160.743 784.568 160.743C786.485 160.743 788.125 161.254 789.488 162.276C790.851 163.299 791.532 164.534 791.532 165.982C791.532 167.43 790.851 168.666 789.488 169.688C788.125 170.667 786.485 171.157 784.568 171.157C782.651 171.157 781.012 170.667 779.649 169.688ZM792.755 163.874C795.055 163.448 797.483 162.745 800.039 161.765C802.637 160.743 804.575 159.721 805.853 158.699V163.874H811.475V166.046C810.836 166.046 809.878 166.046 808.6 166.046C807.322 166.046 806.385 166.046 805.789 166.046C805.831 177.674 805.874 184.617 805.917 186.874C805.917 189.132 806.108 190.836 806.492 191.986C806.918 193.136 807.599 193.626 808.536 193.455C809.814 193.029 810.304 191.602 810.006 189.174C809.708 186.704 808.856 184.638 807.45 182.977C809.921 181.742 811.795 182.04 813.072 183.872C814.265 185.575 814.457 187.62 813.647 190.005C812.71 192.859 810.687 194.69 807.578 195.5C806.598 195.755 805.555 195.904 804.447 195.947C797.845 195.947 794.544 192.284 794.544 184.958C794.544 183.808 794.544 182.274 794.544 180.358C794.587 178.398 794.587 177.014 794.544 176.205C794.544 175.395 794.523 174.309 794.48 172.946C794.48 171.583 794.438 170.582 794.352 169.943C794.31 169.304 794.225 168.559 794.097 167.707C793.969 166.855 793.799 166.152 793.586 165.599C793.373 165.002 793.096 164.427 792.755 163.874ZM818.68 160.615C819.362 160.615 819.98 160.786 820.533 161.126C821.087 161.467 821.534 161.914 821.875 162.468C822.216 163.022 822.386 163.639 822.386 164.321C822.386 165.173 822.216 166.046 821.875 166.94C821.534 167.792 821.044 168.58 820.405 169.304C819.809 169.986 819.149 170.54 818.425 170.966L818.169 170.518C819.021 169.879 819.639 168.942 820.022 167.707C819.596 167.878 819.149 167.963 818.68 167.963C817.658 167.963 816.785 167.622 816.061 166.94C815.379 166.216 815.039 165.343 815.039 164.321C815.039 163.299 815.379 162.426 816.061 161.701C816.785 160.977 817.658 160.615 818.68 160.615ZM828.5 168.666C829.224 167.175 830.417 165.94 832.078 164.96C833.782 163.98 835.571 163.384 837.445 163.171C839.362 162.915 841.214 162.915 843.003 163.171C844.835 163.384 846.368 164.001 847.603 165.024C848.839 166.003 849.478 167.217 849.52 168.666C849.563 169.603 849.286 170.433 848.69 171.157C848.136 171.881 847.391 172.392 846.453 172.691C845.559 172.946 844.601 173.031 843.578 172.946C842.599 172.861 841.662 172.52 840.767 171.924C839.873 171.328 839.191 170.497 838.723 169.432C839.958 169.091 840.703 168.58 840.959 167.899C841.257 167.175 841.108 166.536 840.512 165.982C839.915 165.428 839.127 165.13 838.148 165.088C836.998 165.045 836.167 165.428 835.656 166.238C835.145 167.004 834.974 167.792 835.145 168.602C835.187 168.815 835.23 169.006 835.273 169.177C835.358 169.347 835.464 169.539 835.592 169.752C835.762 169.922 835.89 170.092 835.975 170.263C836.103 170.391 836.274 170.54 836.486 170.71C836.699 170.88 836.849 171.029 836.934 171.157C837.061 171.242 837.274 171.392 837.573 171.605C837.871 171.817 838.062 171.967 838.148 172.052C838.275 172.094 838.51 172.222 838.85 172.435C839.191 172.648 839.404 172.797 839.489 172.882C844.388 176.077 847.369 178.079 848.434 178.888C850.053 180.081 851.288 181.231 852.14 182.338C853.034 183.446 853.588 184.702 853.801 186.108C854.056 187.811 853.78 189.345 852.97 190.708C852.204 192.028 851.054 193.093 849.52 193.902C847.987 194.712 846.304 195.329 844.473 195.755C842.641 196.139 840.725 196.352 838.723 196.394C833.228 196.479 829.267 195.734 826.839 194.158C824.411 192.582 823.24 190.644 823.325 188.344C823.368 186.981 823.9 185.852 824.922 184.958C825.987 184.063 827.393 183.595 829.139 183.552C830.928 183.509 832.994 184.127 835.336 185.405C834.357 186.172 833.76 187.109 833.547 188.216C833.335 189.281 833.441 190.261 833.867 191.155C834.335 192.05 835.102 192.816 836.167 193.455C837.232 194.051 838.424 194.328 839.745 194.286C841.321 194.201 842.428 193.54 843.067 192.305C843.408 191.794 843.514 191.262 843.387 190.708C843.301 190.112 843.131 189.6 842.876 189.174C842.62 188.706 842.215 188.216 841.662 187.705C841.151 187.194 840.618 186.725 840.064 186.299C839.511 185.873 838.872 185.448 838.148 185.022C837.424 184.553 836.763 184.148 836.167 183.808C835.613 183.467 835.017 183.126 834.378 182.785C833.782 182.402 833.292 182.061 832.909 181.763C831.205 180.528 829.884 179.122 828.947 177.546C828.053 175.97 827.584 174.458 827.542 173.01C827.542 171.519 827.861 170.071 828.5 168.666Z" fill="#738942"/>
<path d="M224.701 373.79C211.098 371.944 200.216 372.09 192.054 374.228C193.608 369.661 194.531 364.608 194.823 359.07C195.795 342.358 196.038 324.577 195.552 305.727C195.26 291.153 193.9 281.776 191.471 277.598C196.718 277.113 202.596 276.044 209.106 274.392C215.713 272.74 220.814 271.088 224.409 269.437C222.466 274.489 221.349 286.052 221.057 304.124C220.96 310.051 220.96 316.318 221.057 322.925C221.154 337.305 221.349 347.022 221.64 352.074C222.126 362.471 223.146 369.71 224.701 373.79ZM312.148 411.684C309.525 411.587 307.144 410.664 305.007 408.915C302.869 407.263 301.314 405.223 300.343 402.794C299.371 400.462 298.934 397.887 299.031 395.069C299.128 392.251 299.857 389.725 301.217 387.49C303.841 383.312 307.824 380.592 313.168 379.329C318.609 378.066 324.002 378.357 329.346 380.203C334.787 382.049 338.965 384.964 341.88 388.948C344.115 392.154 345.427 395.604 345.815 399.296C346.204 402.988 345.475 407.118 343.629 411.684C341.88 415.571 339.014 418.923 335.03 421.741C331.144 424.656 326.723 426.842 321.767 428.299C316.812 429.757 311.371 430.291 305.444 429.902C299.614 429.611 293.93 428.396 288.392 426.259C282.853 424.121 277.461 420.623 272.214 415.765C267.064 411.004 262.74 405.126 259.242 398.13C256.716 393.077 254.481 387.296 252.538 380.786C250.692 374.276 249.186 368.641 248.02 363.88C246.854 359.119 245.445 354.503 243.793 350.034C242.142 345.467 239.761 341.824 236.652 339.103C233.64 336.382 229.705 334.682 224.847 334.002V331.67C231.357 329.144 236.846 325.84 241.316 321.759C245.785 317.581 248.943 313.209 250.789 308.642C252.733 304.075 253.607 299.412 253.413 294.651C253.218 289.792 252.052 285.371 249.915 281.388C247.777 277.307 244.619 273.809 240.441 270.894C236.263 267.979 231.405 266.084 225.867 265.21C221.009 264.433 216.005 264.578 210.855 265.647C205.802 266.619 200.993 268.514 196.426 271.331C191.859 274.149 187.779 277.647 184.184 281.825C180.686 285.906 178.014 290.91 176.168 296.837C174.419 302.667 173.836 308.934 174.419 315.638C174.904 321.662 176.508 327.103 179.228 331.961C182.046 336.722 185.835 340.318 190.596 342.747C183.601 344.884 177.334 345.71 171.795 345.224C166.257 344.641 161.496 343.087 157.512 340.56C153.626 337.937 150.614 334.585 148.476 330.504C146.338 326.423 145.172 321.856 144.978 316.804C144.784 308.934 146.29 301.598 149.496 294.796C152.703 287.995 157.172 282.165 162.905 277.307C168.735 272.449 175.439 268.416 183.018 265.21C190.596 261.906 198.71 259.623 207.357 258.36C216.102 257.097 224.895 256.854 233.737 257.631C239.761 258.214 245.348 259.283 250.498 260.838C255.647 262.392 260.02 264.287 263.615 266.522C267.307 268.756 270.513 271.331 273.234 274.246C276.052 277.064 278.141 280.027 279.501 283.137C280.861 286.246 281.784 289.501 282.27 292.902C282.853 296.205 282.756 299.509 281.979 302.812C279.938 311.071 275.663 317.678 269.153 322.634C262.643 327.492 254.676 330.844 245.251 332.69C251.664 335.216 257.348 338.763 262.303 343.33C267.258 347.799 271.194 352.609 274.109 357.758C277.023 362.908 279.647 368.349 281.979 374.082C284.408 379.717 286.643 385.11 288.683 390.26C290.821 395.409 293.104 400.122 295.533 404.397C297.962 408.672 301.071 412.17 304.861 414.891C308.65 417.611 313.071 419.117 318.124 419.409C321.524 419.603 325.022 419.069 328.617 417.806C332.212 416.64 335.127 414.793 337.362 412.267C339.597 409.741 340.18 406.972 339.111 403.96C338.139 401.433 336.488 399.393 334.156 397.838C331.824 396.187 329.297 395.312 326.577 395.215C323.953 395.118 321.427 395.555 318.998 396.527C316.569 397.498 314.674 399.296 313.314 401.919C312.051 404.64 311.662 407.895 312.148 411.684ZM283.818 325.403C286.247 315.784 291.542 308.788 299.704 304.416C307.866 300.043 316.513 299.557 325.647 302.958C334.877 306.359 341.873 312.626 346.634 321.759C351.395 330.893 352.561 340.269 350.132 349.888C347.703 359.41 342.407 366.357 334.246 370.73C326.084 375.102 317.388 375.588 308.157 372.187C299.024 368.786 292.077 362.519 287.316 353.386C282.555 344.253 281.389 334.925 283.818 325.403ZM324.189 333.71C320.108 325.646 315.882 319.282 311.509 314.618C307.234 309.954 304.076 308.156 302.036 309.225C299.995 310.294 299.704 313.938 301.161 320.156C302.619 326.277 305.437 333.37 309.615 341.435C313.793 349.402 318.019 355.767 322.294 360.528C326.667 365.191 329.873 366.989 331.914 365.92C333.857 364.851 334.1 361.208 332.642 354.989C331.282 348.771 328.464 341.678 324.189 333.71ZM465.895 373.79H434.122C436.26 368.932 437.572 363.248 438.057 356.738C438.543 350.131 438.349 344.204 437.474 338.957C436.697 333.613 435.58 329.484 434.122 326.569C440.049 326.569 445.879 325.937 451.612 324.674C457.442 323.411 462.203 321.516 465.895 318.99C463.757 324.431 462.543 333.03 462.251 344.787C462.057 356.447 463.271 366.114 465.895 373.79ZM423.629 391.426C419.645 394.923 413.135 397.45 404.099 399.004C395.16 400.462 386.269 400.656 377.427 399.587C368.683 398.421 362.513 396.187 358.918 392.883C356.974 391.134 355.614 389.094 354.837 386.762C354.059 384.43 354.059 382.098 354.837 379.766C355.711 377.434 357.46 375.539 360.084 374.082C361.93 373.11 364.067 372.527 366.496 372.333C369.023 372.139 371.452 372.333 373.784 372.916C376.116 373.499 378.205 374.665 380.051 376.414C381.994 378.066 383.306 380.106 383.986 382.535C380.779 383.507 379.128 385.207 379.03 387.636C379.03 390.357 380.974 392.349 384.86 393.612C387.289 394.389 390.204 394.729 393.605 394.632C397.783 394.535 400.844 393.369 402.787 391.134C404.827 388.802 405.459 386.276 404.682 383.555C403.904 380.738 401.961 378.551 398.852 376.997C396.714 375.928 393.654 374.956 389.67 374.082C385.686 373.11 382.043 372.333 378.739 371.75C375.533 371.07 372.326 369.855 369.12 368.106C365.913 366.357 363.581 364.074 362.124 361.256C360.667 358.633 360.424 355.815 361.395 352.803C362.367 349.791 364.504 347.313 367.808 345.37C363.339 342.455 359.986 338.86 357.752 334.585C355.517 330.213 354.545 325.937 354.837 321.759C355.225 317.581 357.266 313.695 360.958 310.1C364.747 306.407 369.946 303.784 376.553 302.229C389.184 299.217 400.115 301.112 409.346 307.913C412.358 304.61 416.876 301.646 422.9 299.023C428.924 296.302 435.24 294.602 441.847 293.922C448.551 293.242 454.478 294.408 459.628 297.42C463.709 299.849 465.749 303.007 465.749 306.893C465.749 309.031 465.02 311.023 463.563 312.869C462.203 314.715 460.308 316.172 457.879 317.241C455.45 318.213 452.826 318.699 450.008 318.699C445.15 318.699 441.118 317.29 437.912 314.472C437.523 314.083 437.134 313.695 436.746 313.306C434.219 310.877 431.693 309.128 429.167 308.059C426.641 306.893 424.309 306.456 422.171 306.747C420.131 307.039 418.382 307.525 416.924 308.205C415.467 308.885 414.107 309.711 412.843 310.683V310.828C415.078 312.869 417.167 315.201 419.11 317.824C421.151 321.225 422.317 324.723 422.608 328.318C422.997 331.816 422.463 335.168 421.005 338.374C419.645 341.581 416.973 344.398 412.989 346.827C409.103 349.159 404.147 350.714 398.123 351.491C388.601 352.657 380.051 351.491 372.472 347.993C371.209 349.062 370.723 350.325 371.014 351.783C371.403 353.24 372.472 354.455 374.221 355.426C376.067 356.398 378.399 356.933 381.217 357.03C384.132 357.127 387.192 356.981 390.399 356.592C393.702 356.107 397.006 355.718 400.309 355.426C403.71 355.135 407.208 355.232 410.803 355.718C414.495 356.204 417.799 357.321 420.714 359.07C426.641 362.568 429.944 367.669 430.624 374.373C431.304 380.981 428.973 386.665 423.629 391.426ZM377.573 307.185C375.338 307.865 374.464 310.44 374.95 314.909C375.435 319.282 377.039 323.994 379.759 329.047C381.994 333.419 384.326 337.014 386.755 339.832C389.281 342.649 391.516 344.544 393.459 345.516C395.5 346.487 397.151 346.682 398.415 346.099C399.678 345.516 400.504 344.35 400.892 342.601C401.281 340.852 401.087 338.471 400.309 335.459C399.629 332.35 398.269 328.901 396.228 325.111C393.605 319.962 390.447 315.541 386.755 311.849C383.16 308.059 380.099 306.505 377.573 307.185ZM554.982 326.715C556.633 336.625 562.463 342.407 572.471 344.058C567.807 344.933 563.921 346.876 560.811 349.888C557.799 352.9 555.856 356.69 554.982 361.256C554.107 356.592 552.164 352.754 549.152 349.742C546.14 346.633 542.302 344.738 537.638 344.058C547.549 342.309 553.33 336.528 554.982 326.715ZM657.004 406.146C651.951 405.854 648.259 403.377 645.927 398.713C643.498 393.758 643.692 389.142 646.51 384.867C649.813 380.3 655.449 377.92 663.416 377.726C666.817 377.726 670.023 378.649 673.036 380.495C676.145 382.244 678.574 384.527 680.323 387.345C682.072 390.162 683.286 393.272 683.966 396.672C684.744 400.073 684.452 403.328 683.092 406.437C681.44 410.907 678.088 414.405 673.036 416.931C668.08 419.554 661.084 420.478 652.048 419.7C637.279 418.437 624.308 412.073 613.134 400.608C601.96 389.239 591.855 371.264 582.819 346.682C572.908 319.573 564.99 298.586 559.063 283.72C558.965 283.623 558.917 283.477 558.917 283.282C557.945 280.951 557.071 279.056 556.293 277.598C555.613 276.044 554.447 274.149 552.795 271.914C551.241 269.582 549.346 267.979 547.111 267.105C544.974 266.23 542.642 266.182 540.116 266.959C534.772 268.416 531.517 272.546 530.351 279.347C529.282 286.052 531.225 292.367 536.181 298.294C541.233 304.221 548.617 306.796 558.334 306.019C555.905 309.614 552.698 312.48 548.715 314.618C544.731 316.658 540.65 317.776 536.472 317.97C532.391 318.164 528.359 317.776 524.375 316.804C520.489 315.735 517.088 313.986 514.173 311.557C511.258 309.031 509.363 306.067 508.489 302.667C507.129 297.614 507.129 292.61 508.489 287.655C509.849 282.602 512.278 278.23 515.776 274.538C519.274 270.748 523.549 267.493 528.602 264.773C533.751 261.955 539.338 260.206 545.362 259.526C551.484 258.846 557.848 259.137 564.455 260.4C569.022 261.566 573.006 263.17 576.406 265.21C579.904 267.153 582.819 269.582 585.151 272.497C587.483 275.412 589.329 278.279 590.689 281.096C592.147 283.914 593.701 287.363 595.353 291.444C596.13 293.776 598.802 301.258 603.369 313.889C608.033 326.423 612.551 338.52 616.923 350.18C617.312 351.151 617.847 352.657 618.527 354.698C619.79 358.001 620.761 360.625 621.442 362.568C622.219 364.414 623.336 367.232 624.794 371.021C626.348 374.713 627.66 377.726 628.729 380.057C629.895 382.389 631.401 385.256 633.247 388.656C635.093 391.96 636.793 394.681 638.348 396.818C640 398.956 641.895 401.191 644.032 403.522C646.267 405.952 648.453 407.798 650.591 409.061C652.728 410.421 655.06 411.49 657.586 412.267C660.21 413.142 662.882 413.433 665.602 413.142C669.198 412.85 672.55 411.393 675.659 408.769C678.865 406.146 680.177 403.328 679.594 400.316C678.914 395.944 676.485 393.029 672.307 391.571C668.226 390.017 664.437 390.6 660.939 393.32C657.441 395.944 656.129 400.219 657.004 406.146ZM526.416 348.576C524.375 354.115 523.403 358.633 523.501 362.131C523.598 365.531 525.298 369.369 528.602 373.645L500.619 373.79C505.574 371.75 509.703 368.884 513.007 365.191C516.408 361.499 519.225 355.912 521.46 348.431L529.622 321.759C531.274 321.856 532.926 321.856 534.577 321.759L526.416 348.576ZM657.38 340.269C657.38 356.495 658.644 367.669 661.17 373.79H628.086C629.737 370.098 630.903 364.9 631.583 358.196C632.361 351.491 632.652 344.884 632.458 338.374C632.264 331.767 631.778 325.646 631 320.01C630.223 314.375 629.252 310.537 628.086 308.496C638.191 307.525 647.956 305.387 657.38 302.084V328.172C660.975 314.958 665.688 306.602 671.518 303.104C673.364 302.035 675.404 301.355 677.639 301.063C679.874 300.675 682.157 300.82 684.489 301.501C686.918 302.084 689.104 303.201 691.048 304.853C692.991 306.407 694.594 308.837 695.857 312.14C697.12 315.346 697.752 319.184 697.752 323.654C697.752 323.945 697.703 325.646 697.606 328.755C697.606 331.864 697.606 334.391 697.606 336.334C697.703 338.18 697.752 340.901 697.752 344.496C697.849 347.993 697.946 351.006 698.043 353.532C698.238 356.058 698.481 358.73 698.772 361.548C699.064 364.366 699.404 366.843 699.792 368.981C700.278 371.021 700.861 372.624 701.541 373.79H669.623C670.595 372.527 671.421 368.932 672.101 363.005C672.781 356.981 673.218 350.665 673.412 344.058C673.607 337.354 673.267 331.33 672.392 325.986C671.615 320.545 670.255 317.727 668.311 317.533C666.174 317.435 664.279 319.233 662.627 322.925C660.975 326.617 659.372 331.621 657.818 337.937C657.623 338.714 657.478 339.492 657.38 340.269ZM733.384 340.269C733.384 356.495 734.647 367.669 737.174 373.79H704.09C705.741 370.098 706.907 364.9 707.587 358.196C708.365 351.491 708.656 344.884 708.462 338.374C708.268 331.767 707.782 325.646 707.004 320.01C706.227 314.375 705.255 310.537 704.09 308.496C714.195 307.525 723.959 305.387 733.384 302.084V328.172C736.979 314.958 741.692 306.602 747.522 303.104C749.368 302.035 751.408 301.355 753.643 301.063C755.878 300.675 758.161 300.82 760.493 301.501C762.922 302.084 765.108 303.201 767.052 304.853C768.995 306.407 770.598 308.837 771.861 312.14C773.124 315.346 773.756 319.184 773.756 323.654C773.756 323.945 773.707 325.646 773.61 328.755C773.61 331.864 773.61 334.391 773.61 336.334C773.707 338.18 773.756 340.901 773.756 344.496C773.853 347.993 773.95 351.006 774.047 353.532C774.242 356.058 774.485 358.73 774.776 361.548C775.068 364.366 775.408 366.843 775.796 368.981C776.282 371.021 776.865 372.624 777.545 373.79H745.627C746.599 372.527 747.425 368.932 748.105 363.005C748.785 356.981 749.222 350.665 749.416 344.058C749.611 337.354 749.271 331.33 748.396 325.986C747.619 320.545 746.259 317.727 744.315 317.533C742.178 317.435 740.283 319.233 738.631 322.925C736.979 326.617 735.376 331.621 733.822 337.937C733.627 338.714 733.482 339.492 733.384 340.269ZM833.901 295.817C832.832 288.238 834.095 281.485 837.69 275.558C841.382 269.631 846.629 265.161 853.431 262.149C860.232 259.137 867.762 257.826 876.021 258.214C888.847 258.797 897.252 263.024 901.235 270.894C904.15 276.724 904.004 282.651 900.798 288.675C897.786 294.311 893.316 297.42 887.389 298.003C887.001 298.1 886.564 298.149 886.078 298.149C882.774 298.246 879.714 297.225 876.896 295.088C874.175 292.853 872.426 289.987 871.649 286.489C870.969 282.991 871.989 279.104 874.71 274.829C875.584 277.55 877.187 279.687 879.519 281.242C881.948 282.797 884.377 283.477 886.806 283.282C891.373 282.797 893.754 280.805 893.948 277.307C894.24 273.712 892.539 270.603 888.847 267.979C885.543 265.647 881.608 264.627 877.042 264.919C872.183 265.21 867.908 267.056 864.216 270.457C860.621 273.858 859.018 278.084 859.406 283.137C859.795 286.537 861.155 289.695 863.487 292.61C865.916 295.428 869.511 297.614 874.272 299.169C875.147 299.46 876.556 299.946 878.499 300.626C881.608 301.598 883.989 302.375 885.641 302.958C887.292 303.541 889.673 304.416 892.782 305.582C895.988 306.747 898.515 307.816 900.361 308.788C902.207 309.662 904.49 310.877 907.211 312.432C909.931 313.889 912.118 315.346 913.769 316.804C915.421 318.164 917.17 319.865 919.016 321.905C920.862 323.848 922.223 325.889 923.097 328.026C924.069 330.067 924.797 332.399 925.283 335.022C925.769 337.646 925.866 340.366 925.575 343.184C924.992 348.917 923.291 354.066 920.474 358.633C917.753 363.102 914.401 366.697 910.417 369.418C906.531 372.139 901.964 374.422 896.717 376.268C891.47 378.114 886.418 379.426 881.56 380.203C876.701 380.981 871.649 381.466 866.402 381.661C856.297 382.049 847.164 381.078 839.002 378.746C830.84 376.317 824.427 372.624 819.764 367.669C815.1 362.617 813.108 356.641 813.788 349.742C814.274 344.593 816.509 340.172 820.492 336.48C824.573 332.69 829.334 330.018 834.775 328.464C840.217 326.909 845.803 326.132 851.536 326.132C857.269 326.132 862.224 326.958 866.402 328.609C870.483 330.164 873.641 332.593 875.876 335.897C878.208 339.2 879.422 342.649 879.519 346.245C879.714 349.84 879.179 353.289 877.916 356.592C876.75 359.896 874.661 362.617 871.649 364.754C868.637 366.795 865.188 367.718 861.301 367.523C857.9 367.426 854.791 366.163 851.973 363.734C849.253 361.305 847.601 358.293 847.018 354.698C846.532 351.006 847.844 347.022 850.953 342.747C851.633 345.564 853.139 347.896 855.471 349.742C857.9 351.491 860.329 352.317 862.758 352.22C866.354 352.026 868.831 350.714 870.192 348.285C871.649 345.856 871.698 343.232 870.337 340.415C868.977 337.5 866.596 335.362 863.196 334.002C860.378 332.739 857.463 332.253 854.451 332.544C851.536 332.836 848.816 333.662 846.289 335.022C843.86 336.285 841.771 338.277 840.022 340.998C838.37 343.718 837.447 346.876 837.253 350.471C836.962 354.261 837.787 357.807 839.731 361.111C841.674 364.317 844.346 366.94 847.747 368.981C851.147 371.021 854.937 372.624 859.115 373.79C863.293 374.859 867.617 375.296 872.086 375.102C876.556 374.811 880.685 373.936 884.475 372.479C889.721 370.341 893.705 367.475 896.426 363.88C899.243 360.187 900.604 356.398 900.507 352.512C900.409 348.625 898.758 344.738 895.551 340.852C892.442 336.965 887.972 333.759 882.143 331.233C880.005 330.358 877.042 329.192 873.252 327.735C869.463 326.18 866.354 324.917 863.924 323.945C861.495 322.877 858.678 321.614 855.471 320.156C852.265 318.601 849.593 317.095 847.455 315.638C845.318 314.083 843.18 312.334 841.042 310.391C839.002 308.351 837.399 306.116 836.233 303.687C835.067 301.258 834.29 298.634 833.901 295.817ZM928.001 325.403C930.43 315.784 935.726 308.788 943.887 304.416C952.049 300.043 960.697 299.557 969.83 302.958C979.061 306.359 986.056 312.626 990.818 321.759C995.579 330.893 996.744 340.269 994.315 349.888C991.886 359.41 986.591 366.357 978.429 370.73C970.267 375.102 961.571 375.588 952.341 372.187C943.207 368.786 936.26 362.519 931.499 353.386C926.738 344.253 925.572 334.925 928.001 325.403ZM968.373 333.71C964.292 325.646 960.065 319.282 955.693 314.618C951.418 309.954 948.26 308.156 946.219 309.225C944.179 310.294 943.887 313.938 945.345 320.156C946.802 326.277 949.62 333.37 953.798 341.435C957.976 349.402 962.203 355.767 966.478 360.528C970.85 365.191 974.057 366.989 976.097 365.92C978.04 364.851 978.283 361.208 976.826 354.989C975.466 348.771 972.648 341.678 968.373 333.71ZM1030.94 268.416C1028.8 275.121 1027.68 292.659 1027.59 321.031C1027.49 349.402 1028.61 366.989 1030.94 373.79H998C1000.43 368.058 1001.79 354.698 1002.08 333.71C1002.47 312.626 1001.74 297.031 999.895 286.926C997.951 287.218 995.425 287.703 992.316 288.384C989.207 289.064 986.535 289.647 984.3 290.132C982.065 290.618 979.393 291.153 976.284 291.736C973.175 292.222 970.454 292.61 968.122 292.902C965.79 293.193 963.215 293.436 960.398 293.63C957.483 293.728 954.908 293.679 952.673 293.485C950.438 293.29 948.155 292.95 945.823 292.464C943.491 291.881 941.402 291.104 939.556 290.132C937.71 289.161 935.961 287.946 934.309 286.489C932.657 284.934 931.249 283.137 930.083 281.096C927.848 277.404 926.828 273.226 927.022 268.562C927.119 263.898 928.479 259.575 931.103 255.591C933.338 252.384 936.253 249.907 939.848 248.158C943.345 246.409 947.378 245.729 951.944 246.117C956.511 246.409 961.126 247.963 965.79 250.781C961.709 252.433 958.697 255.056 956.754 258.651C954.811 262.247 954.325 265.89 955.297 269.582C956.171 273.177 958.406 275.849 962.001 277.598C966.082 279.542 971.96 280.562 979.636 280.659C987.312 280.659 995.814 279.639 1005.14 277.598C1014.47 275.461 1023.07 272.4 1030.94 268.416ZM1065.93 373.79H1034.16C1036.3 368.932 1037.61 363.248 1038.1 356.738C1038.58 350.131 1038.39 344.204 1037.51 338.957C1036.74 333.613 1035.62 329.484 1034.16 326.569C1040.09 326.569 1045.92 325.937 1051.65 324.674C1057.48 323.411 1062.24 321.516 1065.93 318.99C1063.8 324.431 1062.58 333.03 1062.29 344.787C1062.1 356.544 1063.31 366.212 1065.93 373.79ZM1038.83 315.346C1035.81 313.015 1034.31 310.197 1034.31 306.893C1034.31 303.59 1035.81 300.772 1038.83 298.44C1041.94 296.108 1045.68 294.942 1050.05 294.942C1054.42 294.942 1058.16 296.108 1061.27 298.44C1064.38 300.772 1065.93 303.59 1065.93 306.893C1065.93 310.197 1064.38 313.015 1061.27 315.346C1058.16 317.581 1054.42 318.699 1050.05 318.699C1045.68 318.699 1041.94 317.581 1038.83 315.346ZM1104.39 345.807C1105.07 348.528 1105.89 350.811 1106.87 352.657C1107.84 354.503 1108.91 355.815 1110.07 356.592C1111.24 357.273 1112.5 357.03 1113.86 355.864C1115.22 354.601 1116.44 352.317 1117.5 349.014C1120.52 340.366 1122.17 332.253 1122.46 324.674C1122.56 319.039 1122.12 314.423 1121.15 310.828C1120.18 307.233 1118.28 304.27 1115.46 301.938C1119.25 299.8 1122.46 299.46 1125.08 300.918C1127.8 302.375 1129.41 304.901 1129.89 308.496C1130.67 314.521 1128.87 325.84 1124.5 342.455C1120.23 358.973 1116.24 368.738 1112.55 371.75C1110.51 373.499 1108.08 374.713 1105.26 375.394C1102.44 375.977 1099.43 375.782 1096.23 374.811C1093.12 373.839 1090.54 371.847 1088.5 368.835C1086.36 365.531 1083.98 358.827 1081.36 348.722C1078.74 338.617 1076.16 328.901 1073.64 319.573C1071.11 310.148 1068.73 304.318 1066.49 302.084H1100.89C1099.43 303.833 1098.61 306.99 1098.41 311.557C1098.22 316.027 1098.7 320.933 1099.87 326.277L1104.39 345.807ZM1174.92 338.811C1175.01 334.439 1175.06 331.524 1175.06 330.067C1174.77 330.261 1174.38 330.65 1173.9 331.233C1171.76 333.37 1170.11 335.119 1168.94 336.48C1167.87 337.84 1166.61 339.88 1165.15 342.601C1163.69 345.321 1162.72 348.139 1162.24 351.054C1161.85 353.386 1161.9 355.232 1162.38 356.592C1162.87 357.953 1163.65 358.633 1164.71 358.633C1166.27 358.536 1167.68 357.515 1168.94 355.572C1170.3 353.532 1171.37 351.248 1172.15 348.722C1173.02 346.099 1173.95 342.795 1174.92 338.811ZM1175.06 358.924C1174.97 356.398 1174.92 353.775 1174.92 351.054C1173.95 354.358 1172.92 357.273 1171.86 359.799C1170.88 362.228 1169.52 364.754 1167.78 367.378C1166.12 370.001 1163.99 372.041 1161.36 373.499C1158.84 374.859 1155.92 375.539 1152.62 375.539C1147.08 375.539 1142.71 373.645 1139.5 369.855C1136.39 365.969 1135.03 361.402 1135.42 356.155C1135.81 350.811 1137.85 346.196 1141.54 342.309C1143.48 340.269 1145.72 338.471 1148.25 336.917C1150.77 335.362 1153.15 334.148 1155.39 333.273C1157.72 332.399 1160.1 331.476 1162.53 330.504C1164.96 329.435 1167.1 328.464 1168.94 327.589C1170.79 326.715 1172.39 325.5 1173.75 323.945C1175.21 322.294 1176.23 320.399 1176.81 318.261C1177.69 315.055 1177.59 312.091 1176.52 309.371C1175.45 306.553 1173.31 304.999 1170.11 304.707C1168.36 304.61 1166.66 305.047 1165.01 306.019C1163.45 306.99 1162.24 308.254 1161.36 309.808C1160.59 311.266 1160.44 313.112 1160.93 315.346C1161.41 317.484 1162.72 319.622 1164.86 321.759C1162.82 324.286 1160.05 325.986 1156.55 326.86C1153.06 327.638 1149.7 327.249 1146.5 325.694C1143.39 324.14 1141.44 321.516 1140.67 317.824C1139.89 312.577 1143.05 308.059 1150.14 304.27C1157.82 300.189 1166.27 298.78 1175.5 300.043C1186.67 301.403 1194.2 306.407 1198.09 315.055C1199.74 318.747 1200.57 322.974 1200.57 327.735C1200.67 332.399 1200.71 338.714 1200.71 346.682C1200.71 369.515 1202.32 386.519 1205.52 397.693C1206.11 397.498 1206.93 397.158 1208 396.672C1211.21 395.409 1213.69 394.438 1215.43 393.758C1217.28 393.077 1219.86 392.3 1223.16 391.426C1226.56 390.454 1229.38 389.92 1231.61 389.822C1233.85 389.725 1236.23 389.968 1238.75 390.551C1241.28 391.037 1243.42 392.057 1245.17 393.612C1248.47 396.624 1249.88 400.705 1249.39 405.854C1249 411.101 1246.87 415.571 1242.98 419.263C1238.32 423.635 1232.44 426.21 1225.34 426.987C1218.35 427.862 1211.84 426.89 1205.81 424.073C1199.3 421.255 1194.01 417.223 1189.93 411.976C1188.18 412.656 1186.09 413.482 1183.66 414.453C1181.33 415.522 1179.34 416.397 1177.69 417.077C1176.13 417.757 1174.19 418.534 1171.86 419.409C1169.52 420.283 1167.53 420.915 1165.88 421.303C1164.33 421.789 1162.29 422.275 1159.76 422.761C1157.33 423.247 1155.19 423.441 1153.35 423.344C1151.5 423.247 1149.17 423.15 1146.35 423.052C1139.45 422.081 1133.96 419.506 1129.88 415.328C1125.7 411.247 1123.37 406.583 1122.89 401.336C1122.59 398.324 1123.08 395.409 1124.34 392.592C1125.51 389.774 1127.31 387.442 1129.74 385.596C1132.07 383.75 1134.74 382.487 1137.75 381.806C1140.86 381.029 1144.26 381.223 1147.95 382.389C1151.74 383.458 1155.44 385.499 1159.03 388.511C1153.59 393.758 1153.01 398.373 1157.28 402.357C1161.17 405.952 1166.95 407.701 1174.63 407.603C1178.61 407.506 1182.3 406.777 1185.7 405.417C1182.2 398.907 1179.63 392.106 1177.98 385.013C1176.33 377.92 1175.35 369.224 1175.06 358.924ZM1208.15 404.98C1210.87 411.198 1214.66 415.717 1219.51 418.534C1222.72 420.478 1225.98 421.109 1229.28 420.429C1232.68 419.749 1235.01 417.854 1236.28 414.745C1237.15 412.607 1236.96 410.373 1235.69 408.041C1234.43 405.709 1232.29 404.008 1229.28 402.939C1223.84 400.996 1216.79 401.676 1208.15 404.98Z" fill="#738942"/>
<mask id="mask7_68_122" style="mask-type:luminance" maskUnits="userSpaceOnUse" x="906" y="271" width="22" height="38">
<path d="M906.199 271.719H927.828V308.926H906.199V271.719Z" fill="white"/>
</mask>
<g mask="url(#mask7_68_122)">
<path d="M923.102 291.151L927.828 290.322L923.102 289.494C920.14 288.974 917.797 284.946 917.496 279.851L917.013 271.721L916.532 279.85C916.23 284.945 913.887 288.974 910.925 289.493L906.198 290.322L910.924 291.151C913.887 291.67 916.229 295.699 916.531 300.794L917.012 308.923L917.494 300.793C917.797 295.699 920.139 291.67 923.102 291.151Z" fill="#738942"/>
</g>
<mask id="mask8_68_122" style="mask-type:luminance" maskUnits="userSpaceOnUse" x="676" y="398" width="22" height="38">
<path d="M676.645 398.713H697.673V435.92H676.645V398.713Z" fill="white"/>
</mask>
<g mask="url(#mask8_68_122)">
<path d="M693.078 418.145L697.673 417.317L693.078 416.488C690.198 415.969 687.921 411.94 687.628 406.845L687.159 398.716L686.69 406.845C686.397 411.939 684.12 415.969 681.24 416.488L676.644 417.317L681.239 418.145C684.119 418.665 686.397 422.693 686.69 427.788L687.158 435.917L687.626 427.787C687.921 422.693 690.198 418.665 693.078 418.145Z" fill="#738942"/>
</g>
<mask id="mask9_68_122" style="mask-type:luminance" maskUnits="userSpaceOnUse" x="116" y="229" width="47" height="80">
<path d="M116.997 229.992H162.881V308.926H116.997V229.992Z" fill="white"/>
</mask>
<g mask="url(#mask9_68_122)">
<path d="M152.855 271.216L162.883 269.459L152.855 267.702C146.572 266.599 141.602 258.053 140.962 247.245L139.939 229.997L138.917 247.243C138.277 258.051 133.307 266.599 127.024 267.7L116.995 269.459L127.022 271.216C133.306 272.319 138.276 280.865 138.915 291.674L139.937 308.919L140.958 291.672C141.602 280.865 146.57 272.319 152.855 271.216Z" fill="#738942"/>
</g>
<mask id="mask10_68_122" style="mask-type:luminance" maskUnits="userSpaceOnUse" x="759" y="256" width="47" height="80">
<path d="M759.244 256.298H805.129V335.232H759.244V256.298Z" fill="white"/>
</mask>
<g mask="url(#mask10_68_122)">
<path d="M795.103 297.522L805.13 295.765L795.103 294.008C788.819 292.905 783.85 284.359 783.21 273.55L782.186 256.303L781.165 273.549C780.525 284.357 775.555 292.905 769.271 294.006L759.242 295.765L769.269 297.522C775.553 298.625 780.523 307.171 781.163 317.979L782.185 335.225L783.206 317.978C783.85 307.171 788.818 298.625 795.103 297.522Z" fill="#738942"/>
</g>
<mask id="mask11_68_122" style="mask-type:luminance" maskUnits="userSpaceOnUse" x="340" y="280" width="22" height="38">
<path d="M340.15 280.79H361.779V317.997H340.15V280.79Z" fill="white"/>
</mask>
<g mask="url(#mask11_68_122)">
<path d="M357.053 300.222L361.78 299.394L357.053 298.565C354.091 298.046 351.749 294.017 351.447 288.922L350.965 280.793L350.483 288.922C350.181 294.016 347.839 298.046 344.877 298.565L340.149 299.394L344.876 300.222C347.838 300.742 350.181 304.77 350.482 309.865L350.964 317.994L351.445 309.864C351.749 304.77 354.09 300.742 357.053 300.222Z" fill="#738942"/>
</g>
<mask id="mask12_68_122" style="mask-type:luminance" maskUnits="userSpaceOnUse" x="1239" y="343" width="46" height="80">
<path d="M1239.12 343.38H1285V422.314H1239.12V343.38Z" fill="white"/>
</mask>
<g mask="url(#mask12_68_122)">
<path d="M1274.97 384.604L1285 382.847L1274.97 381.09C1268.69 379.987 1263.72 371.441 1263.08 360.632L1262.06 343.385L1261.04 360.631C1260.4 371.439 1255.43 379.987 1249.14 381.088L1239.11 382.847L1249.14 384.604C1255.42 385.707 1260.39 394.253 1261.03 405.061L1262.06 422.307L1263.08 405.06C1263.72 394.253 1268.69 385.707 1274.97 384.604Z" fill="#738942"/>
</g>
</svg>
