<svg width="256" height="256" viewBox="0 0 256 256" fill="none" xmlns="http://www.w3.org/2000/svg">
<rect width="256" height="256" rx="51.2" fill="#F7EFDA"/>
<path d="M86.9841 112.886C80.2957 111.978 74.9449 112.05 70.9318 113.101C71.6962 110.855 72.1501 108.371 72.2934 105.648C72.7712 97.4308 72.8906 88.688 72.6517 79.4197C72.5084 72.2535 71.8396 67.6433 70.6452 65.589C73.225 65.3501 76.1154 64.8246 79.3163 64.0124C82.565 63.2002 85.0731 62.3881 86.8408 61.5759C85.8853 64.0602 85.3359 69.7453 85.1926 78.6314C85.1448 81.5457 85.1448 84.6272 85.1926 87.8758C85.2403 94.9465 85.3359 99.7239 85.4792 102.208C85.7181 107.32 86.2197 110.879 86.9841 112.886ZM129.981 131.518C128.691 131.47 127.521 131.016 126.47 130.156C125.419 129.344 124.654 128.341 124.177 127.147C123.699 126 123.484 124.734 123.532 123.349C123.579 121.963 123.938 120.721 124.607 119.622C125.897 117.568 127.855 116.23 130.483 115.609C133.158 114.988 135.81 115.131 138.437 116.039C141.113 116.947 143.167 118.38 144.6 120.339C145.699 121.915 146.344 123.611 146.535 125.427C146.726 127.242 146.368 129.273 145.46 131.518C144.6 133.429 143.191 135.077 141.232 136.463C139.321 137.896 137.147 138.971 134.711 139.687C132.274 140.404 129.599 140.667 126.685 140.476C123.818 140.332 121.024 139.735 118.3 138.684C115.577 137.633 112.926 135.913 110.346 133.525C107.814 131.184 105.688 128.293 103.968 124.853C102.726 122.369 101.627 119.527 100.672 116.326C99.7638 113.125 99.0233 110.354 98.45 108.013C97.8767 105.672 97.184 103.403 96.3718 101.205C95.5597 98.9595 94.3892 97.168 92.8604 95.8303C91.3794 94.4926 89.4445 93.6566 87.0558 93.3221V92.1755C90.2567 90.9334 92.9559 89.3091 95.1536 87.3025C97.3512 85.2482 98.9039 83.0984 99.8116 80.853C100.767 78.6075 101.197 76.3144 101.102 73.9734C101.006 71.5847 100.433 69.4109 99.3816 67.4522C98.3306 65.4456 96.7779 63.7257 94.7236 62.2925C92.6693 60.8593 90.2806 59.9277 87.5574 59.4977C85.1687 59.1155 82.7083 59.1872 80.1762 59.7127C77.6919 60.1904 75.3271 61.122 73.0817 62.5075C70.8363 63.893 68.8297 65.6128 67.0621 67.6672C65.3422 69.6737 64.0284 72.1341 63.1207 75.0483C62.2607 77.9148 61.9741 80.9963 62.2607 84.2927C62.4996 87.2548 63.2879 89.9301 64.6256 92.3189C66.011 94.6598 67.8743 96.4275 70.2152 97.6219C66.7754 98.6729 63.694 99.079 60.9708 98.8401C58.2477 98.5535 55.9067 97.7891 53.9479 96.5469C52.037 95.257 50.5559 93.6088 49.5049 91.6023C48.4539 89.5957 47.8806 87.3503 47.785 84.866C47.6895 80.9963 48.43 77.3893 50.0065 74.0451C51.5831 70.7008 53.7807 67.8344 56.5994 65.4456C59.4659 63.0569 62.7624 61.0743 66.4888 59.4977C70.2152 57.8733 74.2044 56.7506 78.4563 56.1296C82.7561 55.5085 87.0797 55.3891 91.4272 55.7713C94.3892 56.0579 97.1362 56.5834 99.6683 57.3478C102.2 58.1122 104.35 59.0438 106.118 60.1426C107.933 61.2415 109.51 62.5075 110.848 63.9407C112.233 65.3262 113.26 66.7833 113.929 68.3121C114.598 69.8409 115.052 71.4413 115.291 73.1135C115.577 74.7378 115.529 76.3621 115.147 77.9865C114.144 82.0473 112.042 85.296 108.841 87.7325C105.64 90.1212 101.723 91.7695 97.0885 92.6772C100.242 93.9193 103.036 95.6631 105.473 97.9085C107.909 100.106 109.844 102.471 111.278 105.003C112.711 107.535 114.001 110.21 115.147 113.029C116.342 115.8 117.44 118.452 118.444 120.984C119.495 123.516 120.617 125.833 121.812 127.935C123.006 130.037 124.535 131.757 126.398 133.095C128.261 134.432 130.435 135.173 132.919 135.316C134.592 135.412 136.311 135.149 138.079 134.528C139.847 133.954 141.28 133.047 142.379 131.805C143.478 130.562 143.764 129.201 143.239 127.72C142.761 126.478 141.949 125.474 140.802 124.71C139.656 123.898 138.414 123.468 137.076 123.42C135.786 123.372 134.544 123.587 133.349 124.065C132.155 124.543 131.223 125.427 130.555 126.717C129.934 128.054 129.742 129.655 129.981 131.518ZM116.051 89.0941C117.246 84.3644 119.85 80.9246 123.863 78.7748C127.876 76.6249 132.128 76.386 136.618 78.0581C141.157 79.7303 144.597 82.8117 146.938 87.3025C149.279 91.7934 149.852 96.4036 148.658 101.133C147.463 105.815 144.86 109.231 140.846 111.381C136.833 113.531 132.558 113.77 128.019 112.098C123.528 110.425 120.112 107.344 117.771 102.853C115.43 98.3624 114.857 93.776 116.051 89.0941ZM135.902 93.1788C133.895 89.2135 131.817 86.0843 129.667 83.7911C127.565 81.4979 126.012 80.6141 125.009 81.1396C124.006 81.6651 123.863 83.4567 124.579 86.5143C125.296 89.5241 126.681 93.0116 128.736 96.9769C130.79 100.894 132.868 104.024 134.97 106.365C137.12 108.658 138.697 109.542 139.7 109.016C140.655 108.491 140.775 106.699 140.058 103.641C139.389 100.584 138.004 97.0963 135.902 93.1788ZM205.577 112.886H189.955C191.006 110.497 191.651 107.702 191.89 104.501C192.129 101.253 192.033 98.3385 191.603 95.7586C191.221 93.131 190.672 91.1006 189.955 89.6674C192.869 89.6674 195.736 89.3568 198.555 88.7358C201.421 88.1147 203.762 87.1831 205.577 85.941C204.526 88.6163 203.929 92.8444 203.786 98.6251C203.69 104.358 204.287 109.112 205.577 112.886ZM184.795 121.557C182.837 123.277 179.636 124.519 175.193 125.283C170.797 126 166.426 126.096 162.079 125.57C157.779 124.997 154.745 123.898 152.978 122.274C152.022 121.414 151.353 120.41 150.971 119.264C150.589 118.117 150.589 116.971 150.971 115.824C151.401 114.677 152.261 113.746 153.551 113.029C154.459 112.551 155.51 112.265 156.704 112.169C157.946 112.074 159.14 112.169 160.287 112.456C161.434 112.743 162.461 113.316 163.368 114.176C164.324 114.988 164.969 115.991 165.303 117.186C163.727 117.663 162.915 118.499 162.867 119.694C162.867 121.031 163.822 122.011 165.733 122.632C166.928 123.014 168.361 123.181 170.033 123.134C172.087 123.086 173.592 122.512 174.548 121.414C175.551 120.267 175.862 119.025 175.479 117.687C175.097 116.302 174.142 115.227 172.613 114.462C171.562 113.937 170.057 113.459 168.098 113.029C166.139 112.551 164.348 112.169 162.724 111.883C161.147 111.548 159.57 110.951 157.994 110.091C156.417 109.231 155.271 108.108 154.554 106.723C153.837 105.433 153.718 104.048 154.196 102.567C154.674 101.086 155.725 99.8673 157.349 98.9118C155.151 97.4785 153.503 95.7109 152.404 93.6088C151.305 91.4589 150.828 89.3568 150.971 87.3025C151.162 85.2482 152.165 83.3372 153.981 81.5696C155.844 79.7541 158.4 78.4642 161.649 77.6998C167.859 76.2188 173.234 77.1504 177.773 80.4946C179.254 78.8703 181.475 77.4132 184.437 76.1233C187.399 74.7856 190.504 73.9495 193.753 73.6151C197.05 73.2807 199.964 73.854 202.496 75.335C204.502 76.5293 205.506 78.082 205.506 79.993C205.506 81.0441 205.147 82.0234 204.431 82.9312C203.762 83.8389 202.83 84.5555 201.636 85.081C200.442 85.5588 199.152 85.7976 197.766 85.7976C195.378 85.7976 193.395 85.1049 191.818 83.7194C191.627 83.5283 191.436 83.3372 191.245 83.1461C190.003 81.9518 188.761 81.0918 187.519 80.5663C186.276 79.993 185.13 79.778 184.079 79.9214C183.076 80.0647 182.216 80.3035 181.499 80.638C180.782 80.9724 180.114 81.3785 179.492 81.8562V81.9279C180.591 82.9312 181.618 84.0777 182.574 85.3677C183.577 87.0398 184.15 88.7597 184.294 90.5273C184.485 92.2472 184.222 93.8954 183.506 95.472C182.837 97.0486 181.523 98.434 179.564 99.6284C177.653 100.775 175.217 101.539 172.255 101.922C167.573 102.495 163.368 101.922 159.642 100.202C159.021 100.727 158.782 101.348 158.925 102.065C159.117 102.782 159.642 103.379 160.502 103.856C161.41 104.334 162.556 104.597 163.942 104.645C165.375 104.693 166.88 104.621 168.456 104.43C170.081 104.191 171.705 104 173.33 103.856C175.002 103.713 176.722 103.761 178.489 104C180.305 104.239 181.929 104.788 183.362 105.648C186.276 107.368 187.901 109.876 188.235 113.173C188.57 116.421 187.423 119.216 184.795 121.557ZM162.15 80.1363C161.051 80.4708 160.621 81.7368 160.86 83.9344C161.099 86.0843 161.887 88.4013 163.225 90.8856C164.324 93.0355 165.471 94.8032 166.665 96.1886C167.907 97.5741 169.006 98.5057 169.961 98.9834C170.965 99.4612 171.777 99.5567 172.398 99.2701C173.019 98.9834 173.425 98.4101 173.616 97.5502C173.807 96.6903 173.712 95.5198 173.33 94.0388C172.995 92.51 172.326 90.814 171.323 88.9508C170.033 86.4187 168.48 84.245 166.665 82.4295C164.897 80.5663 163.392 79.8019 162.15 80.1363Z" fill="#738942"/>
<path d="M85.5986 156.922C86.4108 161.795 89.2773 164.638 94.1981 165.45C91.9049 165.88 89.9939 166.835 88.4651 168.316C86.9841 169.797 86.0286 171.661 85.5986 173.906C85.1687 171.613 84.2132 169.726 82.7322 168.245C81.2512 166.716 79.3641 165.784 77.0709 165.45C81.9439 164.59 84.7865 161.747 85.5986 156.922ZM135.762 195.978C133.278 195.835 131.462 194.616 130.316 192.323C129.121 189.887 129.217 187.617 130.602 185.515C132.227 183.27 134.998 182.099 138.915 182.004C140.587 182.004 142.164 182.458 143.645 183.365C145.174 184.225 146.368 185.348 147.228 186.734C148.088 188.119 148.685 189.648 149.019 191.32C149.402 192.992 149.258 194.592 148.59 196.121C147.777 198.319 146.129 200.039 143.645 201.281C141.208 202.571 137.769 203.025 133.326 202.642C126.064 202.021 119.686 198.892 114.192 193.255C108.698 187.665 103.729 178.827 99.2861 166.74C94.4131 153.411 90.5194 143.091 87.6052 135.782C87.5574 135.734 87.5335 135.662 87.5335 135.567C87.0558 134.42 86.6258 133.489 86.2436 132.772C85.9092 132.008 85.3359 131.076 84.5237 129.977C83.7593 128.831 82.8277 128.042 81.7289 127.612C80.6779 127.182 79.5313 127.159 78.2891 127.541C75.6615 128.257 74.0611 130.288 73.4878 133.632C72.9623 136.928 73.9177 140.034 76.3543 142.948C78.8385 145.862 82.4694 147.128 87.2469 146.746C86.0525 148.514 84.4759 149.923 82.5172 150.974C80.5584 151.977 78.5519 152.527 76.4976 152.622C74.491 152.718 72.5084 152.527 70.5496 152.049C68.6386 151.524 66.9665 150.664 65.5333 149.469C64.1001 148.227 63.1684 146.77 62.7385 145.098C62.0696 142.614 62.0696 140.153 62.7385 137.717C63.4073 135.232 64.6017 133.083 66.3216 131.267C68.0415 129.404 70.1435 127.803 72.6278 126.466C75.1599 125.08 77.9069 124.22 80.869 123.886C83.8788 123.552 87.008 123.695 90.2567 124.316C92.5021 124.889 94.4608 125.678 96.133 126.681C97.8528 127.636 99.2861 128.831 100.433 130.264C101.579 131.697 102.487 133.106 103.156 134.492C103.872 135.877 104.637 137.573 105.449 139.58C105.831 140.727 107.145 144.405 109.39 150.616C111.684 156.779 113.905 162.727 116.055 168.46C116.246 168.937 116.509 169.678 116.843 170.681C117.464 172.306 117.942 173.595 118.277 174.551C118.659 175.459 119.208 176.844 119.925 178.707C120.689 180.523 121.334 182.004 121.86 183.15C122.433 184.297 123.173 185.706 124.081 187.378C124.989 189.003 125.825 190.341 126.589 191.392C127.401 192.443 128.333 193.541 129.384 194.688C130.483 195.882 131.558 196.79 132.609 197.411C133.66 198.08 134.807 198.606 136.049 198.988C137.339 199.418 138.652 199.561 139.99 199.418C141.758 199.274 143.406 198.558 144.935 197.268C146.511 195.978 147.156 194.592 146.87 193.111C146.535 190.962 145.341 189.528 143.287 188.812C141.28 188.047 139.417 188.334 137.697 189.672C135.977 190.962 135.332 193.064 135.762 195.978ZM71.5529 167.671C70.5496 170.395 70.0719 172.616 70.1197 174.336C70.1674 176.008 71.0035 177.895 72.6278 179.997L58.8687 180.069C61.3052 179.066 63.3357 177.656 64.96 175.841C66.6321 174.025 68.0176 171.278 69.1164 167.6L73.1295 154.486C73.9416 154.533 74.7538 154.533 75.566 154.486L71.5529 167.671ZM135.947 163.587C135.947 171.565 136.568 177.059 137.811 180.069H121.543C122.355 178.254 122.929 175.698 123.263 172.401C123.645 169.105 123.789 165.856 123.693 162.655C123.598 159.406 123.359 156.397 122.977 153.626C122.594 150.855 122.117 148.968 121.543 147.964C126.512 147.487 131.313 146.436 135.947 144.811V157.639C137.715 151.141 140.032 147.033 142.899 145.313C143.806 144.787 144.81 144.453 145.908 144.31C147.007 144.119 148.13 144.19 149.276 144.525C150.471 144.811 151.546 145.361 152.501 146.173C153.457 146.937 154.245 148.132 154.866 149.756C155.487 151.333 155.798 153.22 155.798 155.417C155.798 155.561 155.774 156.397 155.726 157.925C155.726 159.454 155.726 160.696 155.726 161.652C155.774 162.56 155.798 163.897 155.798 165.665C155.845 167.385 155.893 168.866 155.941 170.108C156.037 171.35 156.156 172.664 156.299 174.049C156.443 175.435 156.61 176.653 156.801 177.704C157.04 178.707 157.326 179.496 157.661 180.069H141.967C142.445 179.448 142.851 177.68 143.185 174.766C143.52 171.804 143.735 168.699 143.83 165.45C143.926 162.153 143.758 159.191 143.329 156.564C142.946 153.888 142.277 152.503 141.322 152.407C140.271 152.36 139.339 153.243 138.527 155.059C137.715 156.874 136.927 159.335 136.162 162.44C136.067 162.822 135.995 163.205 135.947 163.587ZM173.318 163.587C173.318 171.565 173.939 177.059 175.181 180.069H158.914C159.726 178.254 160.299 175.698 160.634 172.401C161.016 169.105 161.159 165.856 161.064 162.655C160.968 159.406 160.729 156.397 160.347 153.626C159.965 150.855 159.487 148.968 158.914 147.964C163.882 147.487 168.684 146.436 173.318 144.811V157.639C175.086 151.141 177.403 147.033 180.269 145.313C181.177 144.787 182.18 144.453 183.279 144.31C184.378 144.119 185.5 144.19 186.647 144.525C187.841 144.811 188.916 145.361 189.872 146.173C190.827 146.937 191.616 148.132 192.237 149.756C192.858 151.333 193.168 153.22 193.168 155.417C193.168 155.561 193.144 156.397 193.097 157.925C193.097 159.454 193.097 160.696 193.097 161.652C193.144 162.56 193.168 163.897 193.168 165.665C193.216 167.385 193.264 168.866 193.312 170.108C193.407 171.35 193.527 172.664 193.67 174.049C193.813 175.435 193.98 176.653 194.172 177.704C194.41 178.707 194.697 179.496 195.032 180.069H179.338C179.815 179.448 180.221 177.68 180.556 174.766C180.89 171.804 181.105 168.699 181.201 165.45C181.296 162.153 181.129 159.191 180.699 156.564C180.317 153.888 179.648 152.503 178.693 152.407C177.642 152.36 176.71 153.243 175.898 155.059C175.086 156.874 174.297 159.335 173.533 162.44C173.437 162.822 173.366 163.205 173.318 163.587Z" fill="#738942"/>
<mask id="mask0_29_948" style="mask-type:luminance" maskUnits="userSpaceOnUse" x="183" y="122" width="24" height="23">
<path d="M183.577 122.465H206.842V144.859H183.577V122.465Z" fill="white"/>
</mask>
<g mask="url(#mask0_29_948)">
<path d="M194.436 140.314L193.973 144.859L193.51 140.314C193.22 137.467 190.969 135.215 188.122 134.924L183.58 134.461L188.122 133.998C190.969 133.708 193.22 131.456 193.51 128.608L193.973 124.064L194.436 128.608C194.726 131.456 196.977 133.708 199.823 133.998L204.366 134.461L199.823 134.924C196.977 135.215 194.726 137.467 194.436 140.314ZM204.804 127.312L206.831 127.106L204.804 126.9C203.533 126.77 202.529 125.765 202.399 124.494L202.193 122.465L201.986 124.494C201.857 125.765 200.852 126.77 199.582 126.9L197.554 127.106L199.582 127.312C200.852 127.442 201.857 128.447 201.986 129.718L202.193 131.747L202.399 129.718C202.529 128.447 203.533 127.442 204.804 127.312Z" fill="#738942"/>
<path d="M194.436 140.314L193.973 144.859L193.51 140.314C193.22 137.467 190.969 135.215 188.122 134.924L183.58 134.461L188.122 133.998C190.969 133.708 193.22 131.456 193.51 128.608L193.973 124.064L194.436 128.608C194.726 131.456 196.977 133.708 199.823 133.998L204.366 134.461L199.823 134.924C196.977 135.215 194.726 137.467 194.436 140.314ZM204.804 127.312L206.831 127.106L204.804 126.9C203.533 126.77 202.529 125.765 202.399 124.494L202.193 122.465L201.986 124.494C201.857 125.765 200.852 126.77 199.582 126.9L197.554 127.106L199.582 127.312C200.852 127.442 201.857 128.447 201.986 129.718L202.193 131.747L202.399 129.718C202.529 128.447 203.533 127.442 204.804 127.312Z" fill="#738942"/>
</g>
<mask id="mask1_29_948" style="mask-type:luminance" maskUnits="userSpaceOnUse" x="138" y="62" width="25" height="23">
<path d="M138.788 62H162.053V84.3944H138.788V62Z" fill="white"/>
</mask>
<g mask="url(#mask1_29_948)">
<path d="M149.647 79.8496L149.184 84.3939L148.721 79.8496C148.431 77.0019 146.18 74.7502 143.333 74.4597L138.791 73.9967L143.333 73.5337C146.18 73.2431 148.431 70.9914 148.721 68.1436L149.184 63.5993L149.647 68.1436C149.937 70.9914 152.188 73.2431 155.035 73.5337L159.577 73.9967L155.035 74.4597C152.188 74.7502 149.937 77.0019 149.647 79.8496ZM160.015 66.8477L162.043 66.6412L160.015 66.4347C158.745 66.3048 157.74 65.3001 157.61 64.0289L157.404 62.0007L157.198 64.0289C157.068 65.3001 156.063 66.3048 154.793 66.4347L152.765 66.6412L154.793 66.8477C156.063 66.9776 157.068 67.9823 157.198 69.2536L157.404 71.2818L157.61 69.2536C157.74 67.9823 158.745 66.9776 160.015 66.8477Z" fill="#738942"/>
<path d="M149.647 79.8496L149.184 84.3939L148.721 79.8496C148.431 77.0019 146.18 74.7502 143.333 74.4597L138.791 73.9967L143.333 73.5337C146.18 73.2431 148.431 70.9914 148.721 68.1436L149.184 63.5993L149.647 68.1436C149.937 70.9914 152.188 73.2431 155.035 73.5337L159.577 73.9967L155.035 74.4597C152.188 74.7502 149.937 77.0019 149.647 79.8496ZM160.015 66.8477L162.043 66.6412L160.015 66.4347C158.745 66.3048 157.74 65.3001 157.61 64.0289L157.404 62.0007L157.198 64.0289C157.068 65.3001 156.063 66.3048 154.793 66.4347L152.765 66.6412L154.793 66.8477C156.063 66.9776 157.068 67.9823 157.198 69.2536L157.404 71.2818L157.61 69.2536C157.74 67.9823 158.745 66.9776 160.015 66.8477Z" fill="#738942"/>
</g>
<mask id="mask2_29_948" style="mask-type:luminance" maskUnits="userSpaceOnUse" x="50" y="113" width="22" height="21">
<path d="M50.7037 113.507H71.6421V133.662H50.7037V113.507Z" fill="white"/>
</mask>
<g mask="url(#mask2_29_948)">
<path d="M60.4764 129.572L60.0599 133.662L59.6433 129.572C59.382 127.009 57.3563 124.982 54.7943 124.721L50.7062 124.304L54.7943 123.887C57.3563 123.626 59.382 121.599 59.6433 119.036L60.0599 114.946L60.4764 119.036C60.7379 121.599 62.7636 123.626 65.3254 123.887L69.4137 124.304L65.3254 124.721C62.7636 124.982 60.7379 127.009 60.4764 129.572ZM69.8079 117.87L71.6326 117.684L69.8079 117.498C68.6644 117.381 67.7604 116.477 67.6437 115.333L67.4579 113.508L67.272 115.333C67.1553 116.477 66.2512 117.381 65.1078 117.498L63.2831 117.684L65.1078 117.87C66.2512 117.987 67.1553 118.891 67.272 120.035L67.4579 121.861L67.6437 120.035C67.7604 118.891 68.6644 117.987 69.8079 117.87Z" fill="#738942"/>
</g>
</svg>
