<svg width="1170" height="315" viewBox="0 0 1170 315" fill="none" xmlns="http://www.w3.org/2000/svg">
<path d="M439.35 51.827C439.563 58.8124 440.031 63.3061 440.755 65.308H426.316C427.551 62.3264 428.169 56.129 428.169 46.7158C428.169 37.3025 427.551 31.2968 426.316 28.6986C428.616 28.4004 431.193 27.8254 434.047 26.9735C436.943 26.079 439.179 25.1846 440.755 24.2901C440.287 25.7383 439.903 28.5921 439.605 32.8515C439.35 37.1109 439.243 41.711 439.286 46.6519C440.053 43.4999 440.947 40.9017 441.969 38.8572C442.992 36.7701 444.291 35.258 445.867 34.321C446.633 33.8524 447.506 33.5543 448.486 33.4265C449.466 33.2561 450.467 33.32 451.489 33.6182C452.554 33.8737 453.512 34.3635 454.364 35.0876C455.216 35.7691 455.919 36.834 456.472 38.2822C457.026 39.6878 457.303 41.3702 457.303 43.3296C457.303 43.4573 457.303 44.2027 457.303 45.5657C457.303 46.9287 457.303 48.0362 457.303 48.8881C457.303 49.6973 457.303 50.89 457.303 52.4659C457.346 53.9993 457.41 55.3197 457.495 56.4272C457.58 57.5346 457.665 58.7059 457.75 59.9412C457.878 61.1764 458.048 62.2625 458.261 63.1996C458.474 64.0941 458.709 64.7969 458.964 65.308H445.036C445.59 64.5413 446.037 62.1773 446.378 58.2161C446.761 54.2123 446.804 50.3149 446.506 46.5241C446.207 42.6906 445.505 40.7313 444.397 40.6461C443.46 40.6035 442.629 41.3915 441.905 43.0101C441.181 44.6287 440.5 46.8223 439.861 49.5909C439.69 50.2724 439.52 51.0177 439.35 51.827ZM474.253 65.308H460.325C461.262 63.1783 461.837 60.6866 462.05 57.8328C462.263 54.9364 462.178 52.3382 461.794 50.0381C461.454 47.6954 460.964 45.8852 460.325 44.6074C462.923 44.6074 465.479 44.3305 467.992 43.7768C470.547 43.2231 472.635 42.3925 474.253 41.2851C473.316 43.6703 472.784 47.4399 472.656 52.5937C472.571 57.7476 473.103 61.9857 474.253 65.308ZM462.369 39.6878C461.049 38.6655 460.389 37.4303 460.389 35.9821C460.389 34.5339 461.049 33.2987 462.369 32.2764C463.732 31.2542 465.372 30.7431 467.289 30.7431C469.206 30.7431 470.846 31.2542 472.209 32.2764C473.572 33.2987 474.253 34.5339 474.253 35.9821C474.253 37.4303 473.572 38.6655 472.209 39.6878C470.846 40.6674 469.206 41.1573 467.289 41.1573C465.372 41.1573 463.732 40.6674 462.369 39.6878ZM525.451 65.308H511.075C511.629 63.945 512.076 61.5384 512.417 58.0883C509.946 61.0699 507.646 63.1996 505.517 64.4774C504.707 64.9459 503.77 65.2867 502.705 65.4997C501.641 65.67 500.533 65.6274 499.383 65.3719C498.233 65.1163 497.147 64.6691 496.125 64.0302C495.145 63.3913 494.336 62.369 493.697 60.9634C493.058 59.5578 492.738 57.8967 492.738 55.9799C492.738 55.767 492.738 54.766 492.738 52.9771C492.781 51.1455 492.781 49.9316 492.738 49.3353C492.738 48.739 492.717 47.6315 492.675 46.013C492.675 44.3518 492.632 43.1166 492.547 42.3073C492.462 41.4554 492.355 40.4119 492.227 39.1767C492.142 37.9414 491.993 36.9192 491.78 36.1099C491.567 35.258 491.333 34.5126 491.077 33.8737C492.525 33.5756 494.059 33.1709 495.677 32.6598C497.296 32.1487 498.872 31.5311 500.405 30.807C501.981 30.0829 503.217 29.3801 504.111 28.6986V33.8737H509.67V36.046H503.983L504.047 52.5298C504.047 53.7651 504.111 54.8725 504.239 55.8521C504.409 56.8318 504.686 57.6624 505.069 58.3439C505.495 59.0254 506.006 59.3874 506.603 59.43C508.136 59.5152 510.159 57.918 512.672 54.6382L524.045 39.8795C527.495 35.4923 530.796 33.32 533.948 33.3626C536.163 33.3626 538.058 34.1932 539.634 35.8543C541.253 37.4729 542.062 39.9646 542.062 43.3296C542.062 43.4573 542.041 44.2027 541.998 45.5657C541.998 46.9287 541.998 48.0362 541.998 48.8881C542.041 49.6973 542.062 50.89 542.062 52.4659C542.105 53.9993 542.147 55.3197 542.19 56.4272C542.275 57.5346 542.382 58.7059 542.509 59.9412C542.637 61.1764 542.786 62.2625 542.957 63.1996C543.17 64.0941 543.404 64.7969 543.659 65.308H529.731C530.37 64.4135 530.839 61.219 531.137 55.7244C531.478 50.2298 531.371 45.8639 530.817 42.6268C530.562 41.3063 530.178 40.4332 529.667 40.0072C529.156 39.5387 528.56 39.4748 527.878 39.8156C527.197 40.1563 526.537 40.6674 525.898 41.3489C525.259 41.9878 524.62 42.7758 523.981 43.7129C523.896 55.1706 524.386 62.369 525.451 65.308ZM512.8 50.9326C512.971 46.162 512.885 41.6258 512.545 37.3238C512.246 33.0218 511.757 30.1468 511.075 28.6986C513.333 28.4004 515.888 27.8254 518.742 26.9735C521.638 26.079 523.875 25.1846 525.451 24.2901C524.854 26.1642 524.428 30.2106 524.173 36.4293L512.8 50.9326ZM574.255 54.5743C574.127 55.6392 573.85 56.6614 573.424 57.6411C573.041 58.5782 572.551 59.4513 571.955 60.2606C571.358 61.0699 570.655 61.8153 569.846 62.4968C569.079 63.1783 568.206 63.7746 567.227 64.2857C566.29 64.7969 565.289 65.2015 564.224 65.4997C559.964 66.6497 555.982 66.096 552.276 63.8385C550.146 62.5607 548.443 60.8995 547.165 58.855C545.93 56.7679 545.163 54.6169 544.865 52.402C544.609 50.1872 544.758 47.951 545.312 45.6935C545.866 43.3934 546.76 41.3489 547.996 39.56C549.273 37.7285 550.956 36.259 553.043 35.1515C555.13 34.0015 557.409 33.4265 559.879 33.4265C563.713 33.4265 567.014 34.7895 569.782 37.5155C572.551 40.2415 574.106 43.6277 574.446 47.6741H553.362C554.427 49.7612 555.918 51.5289 557.835 52.9771C559.794 54.3827 562.179 55.3197 564.99 55.7883C567.802 56.2568 570.89 55.8521 574.255 54.5743ZM552.596 37.5155C551.786 37.6859 551.339 38.5164 551.254 40.0072C551.169 41.4554 551.552 43.287 552.404 45.5018H561.029C560.22 43.1592 558.921 41.1786 557.132 39.56C555.343 37.9414 553.831 37.2599 552.596 37.5155ZM588.85 42.5629C588.68 43.6277 588.552 45.1824 588.467 47.2269C588.382 49.2288 588.36 51.3585 588.403 53.616C588.445 55.8309 588.616 58.0457 588.914 60.2606C589.212 62.4329 589.596 64.1154 590.064 65.308H575.561C576.541 63.1783 577.137 60.0051 577.35 55.7883C577.605 51.5715 577.541 47.6528 577.158 44.0324C576.775 40.3693 576.242 37.9201 575.561 36.6849C580.033 36.259 584.314 35.3219 588.403 33.8737V37.196C588.701 36.7275 589.021 36.3229 589.361 35.9821C591.108 34.2784 593.216 33.4478 595.686 33.4904C598.072 33.5756 600.052 34.6191 601.628 36.621C603.247 38.6229 604.077 40.9017 604.12 43.4573C604.12 45.3315 603.694 46.95 602.842 48.313C602.033 49.6334 600.989 50.5918 599.712 51.1881C598.476 51.7418 597.113 51.9974 595.623 51.9548C594.174 51.8696 592.833 51.465 591.597 50.7409C592.705 49.9316 593.45 48.5899 593.834 46.7158C594.26 44.799 594.26 43.0101 593.834 41.3489C593.45 39.6878 592.769 38.772 591.789 38.6016C590.384 38.3035 589.404 39.6239 588.85 42.5629ZM635.65 54.5743C635.522 55.6392 635.245 56.6614 634.819 57.6411C634.436 58.5782 633.946 59.4513 633.35 60.2606C632.753 61.0699 632.05 61.8153 631.241 62.4968C630.474 63.1783 629.601 63.7746 628.622 64.2857C627.685 64.7969 626.684 65.2015 625.619 65.4997C621.359 66.6497 617.377 66.096 613.671 63.8385C611.542 62.5607 609.838 60.8995 608.56 58.855C607.325 56.7679 606.558 54.6169 606.26 52.402C606.004 50.1872 606.153 47.951 606.707 45.6935C607.261 43.3934 608.155 41.3489 609.391 39.56C610.668 37.7285 612.351 36.259 614.438 35.1515C616.525 34.0015 618.804 33.4265 621.274 33.4265C625.108 33.4265 628.409 34.7895 631.177 37.5155C633.946 40.2415 635.501 43.6277 635.841 47.6741H614.757C615.822 49.7612 617.313 51.5289 619.23 52.9771C621.189 54.3827 623.574 55.3197 626.385 55.7883C629.197 56.2568 632.285 55.8521 635.65 54.5743ZM613.991 37.5155C613.181 37.6859 612.734 38.5164 612.649 40.0072C612.564 41.4554 612.947 43.287 613.799 45.5018H622.424C621.615 43.1592 620.316 41.1786 618.527 39.56C616.738 37.9414 615.226 37.2599 613.991 37.5155ZM639.192 60.5162C639.916 59.7921 640.789 59.43 641.812 59.43C642.834 59.43 643.707 59.7921 644.431 60.5162C645.155 61.2403 645.517 62.0921 645.517 63.0718C645.517 64.3922 645.134 65.6913 644.367 66.9691C643.643 68.2044 642.706 69.1414 641.556 69.7803L641.301 69.3331C642.152 68.6942 642.77 67.7571 643.153 66.5219C642.727 66.6923 642.28 66.7775 641.812 66.7775C640.789 66.7775 639.916 66.4154 639.192 65.6913C638.511 64.9672 638.17 64.1154 638.17 63.1357C638.17 62.1134 638.511 61.2403 639.192 60.5162ZM676.532 65.308H662.604C663.541 63.1783 664.116 60.6866 664.329 57.8328C664.542 54.9364 664.457 52.3382 664.074 50.0381C663.733 47.6954 663.243 45.8852 662.604 44.6074C665.202 44.6074 667.758 44.3305 670.271 43.7768C672.827 43.2231 674.914 42.3925 676.532 41.2851C675.595 43.6703 675.063 47.4399 674.935 52.5937C674.85 57.7476 675.382 61.9857 676.532 65.308ZM664.649 39.6878C663.328 38.6655 662.668 37.4303 662.668 35.9821C662.668 34.5339 663.328 33.2987 664.649 32.2764C666.012 31.2542 667.651 30.7431 669.568 30.7431C671.485 30.7431 673.125 31.2542 674.488 32.2764C675.851 33.2987 676.532 34.5339 676.532 35.9821C676.532 37.4303 675.851 38.6655 674.488 39.6878C673.125 40.6674 671.485 41.1573 669.568 41.1573C667.651 41.1573 666.012 40.6674 664.649 39.6878ZM677.755 33.8737C680.055 33.4478 682.483 32.745 685.039 31.7653C687.637 30.7431 689.575 29.7208 690.853 28.6986V33.8737H696.475V36.046C695.836 36.046 694.878 36.046 693.6 36.046C692.322 36.046 691.385 36.046 690.789 36.046C690.831 47.6741 690.874 54.6169 690.917 56.8744C690.917 59.1319 691.108 60.8356 691.492 61.9857C691.918 63.1357 692.599 63.6255 693.536 63.4552C694.814 63.0292 695.304 61.6023 695.006 59.1745C694.708 56.704 693.856 54.6382 692.45 52.9771C694.921 51.7418 696.795 52.04 698.072 53.8715C699.265 55.5753 699.457 57.6198 698.647 60.0051C697.71 62.8588 695.687 64.6904 692.578 65.4997C691.598 65.7552 690.555 65.9043 689.447 65.9469C682.845 65.9469 679.544 62.2838 679.544 54.9577C679.544 53.8076 679.544 52.2743 679.544 50.3575C679.587 48.3982 679.587 47.0139 679.544 46.2046C679.544 45.3954 679.523 44.3092 679.48 42.9462C679.48 41.5832 679.438 40.5823 679.352 39.9433C679.31 39.3044 679.225 38.559 679.097 37.7072C678.969 36.8553 678.799 36.1525 678.586 35.5988C678.373 35.0025 678.096 34.4274 677.755 33.8737ZM703.68 30.6153C704.362 30.6153 704.98 30.7857 705.533 31.1264C706.087 31.4672 706.534 31.9144 706.875 32.4681C707.216 33.0218 707.386 33.6395 707.386 34.321C707.386 35.1728 707.216 36.046 706.875 36.9405C706.534 37.7924 706.044 38.5803 705.405 39.3044C704.809 39.9859 704.149 40.5397 703.425 40.9656L703.169 40.5184C704.021 39.8795 704.639 38.9424 705.022 37.7072C704.596 37.8775 704.149 37.9627 703.68 37.9627C702.658 37.9627 701.785 37.622 701.061 36.9405C700.379 36.2164 700.039 35.3432 700.039 34.321C700.039 33.2987 700.379 32.4255 701.061 31.7014C701.785 30.9773 702.658 30.6153 703.68 30.6153ZM713.5 38.6655C714.224 37.1747 715.417 35.9395 717.078 34.9599C718.782 33.9802 720.571 33.3839 722.445 33.1709C724.362 32.9154 726.214 32.9154 728.003 33.1709C729.835 33.3839 731.368 34.0015 732.603 35.0238C733.839 36.0034 734.478 37.2173 734.52 38.6655C734.563 39.6026 734.286 40.4332 733.69 41.1573C733.136 41.8814 732.391 42.3925 731.453 42.6906C730.559 42.9462 729.601 43.0314 728.578 42.9462C727.599 42.861 726.662 42.5203 725.767 41.924C724.873 41.3276 724.191 40.4971 723.723 39.4322C724.958 39.0915 725.703 38.5803 725.959 37.8988C726.257 37.1747 726.108 36.5358 725.512 35.9821C724.915 35.4284 724.127 35.1302 723.148 35.0876C721.998 35.0451 721.167 35.4284 720.656 36.2377C720.145 37.0044 719.974 37.7924 720.145 38.6016C720.187 38.8146 720.23 39.0063 720.273 39.1767C720.358 39.347 720.464 39.5387 720.592 39.7517C720.762 39.922 720.89 40.0924 720.975 40.2628C721.103 40.3906 721.274 40.5397 721.486 40.71C721.699 40.8804 721.849 41.0295 721.934 41.1573C722.061 41.2425 722.274 41.3915 722.573 41.6045C722.871 41.8175 723.062 41.9666 723.148 42.0517C723.275 42.0943 723.51 42.2221 723.85 42.4351C724.191 42.6481 724.404 42.7971 724.489 42.8823C729.388 46.0769 732.369 48.0788 733.434 48.8881C735.053 50.0807 736.288 51.2307 737.14 52.3382C738.034 53.4456 738.588 54.7021 738.801 56.1077C739.056 57.8115 738.78 59.3448 737.97 60.7078C737.204 62.0283 736.054 63.0931 734.52 63.9024C732.987 64.7117 731.304 65.3293 729.473 65.7552C727.641 66.1386 725.725 66.3515 723.723 66.3941C718.228 66.4793 714.267 65.7339 711.839 64.158C709.411 62.582 708.24 60.644 708.325 58.3439C708.368 56.9809 708.9 55.8521 709.922 54.9577C710.987 54.0632 712.393 53.5947 714.139 53.5521C715.928 53.5095 717.994 54.1271 720.336 55.4049C719.357 56.1716 718.76 57.1087 718.547 58.2161C718.335 59.281 718.441 60.2606 718.867 61.1551C719.335 62.0496 720.102 62.8162 721.167 63.4552C722.232 64.0515 723.424 64.3283 724.745 64.2857C726.321 64.2005 727.428 63.5403 728.067 62.3051C728.408 61.794 728.514 61.2616 728.387 60.7078C728.301 60.1115 728.131 59.6004 727.876 59.1745C727.62 58.7059 727.215 58.2161 726.662 57.705C726.151 57.1939 725.618 56.7253 725.064 56.2994C724.511 55.8734 723.872 55.4475 723.148 55.0216C722.424 54.553 721.763 54.1484 721.167 53.8076C720.613 53.4669 720.017 53.1261 719.378 52.7854C718.782 52.402 718.292 52.0613 717.909 51.7631C716.205 50.5279 714.884 49.1223 713.947 47.5463C713.053 45.9704 712.584 44.4583 712.542 43.0101C712.542 41.5193 712.861 40.0711 713.5 38.6655Z" fill="#738942"/>
<path d="M109.701 243.79C96.0979 241.944 85.2156 242.09 77.0538 244.228C78.6084 239.661 79.5315 234.608 79.823 229.07C80.7946 212.358 81.0375 194.577 80.5517 175.727C80.2602 161.153 78.8999 151.776 76.4708 147.598C81.7177 147.113 87.5961 146.044 94.106 144.392C100.713 142.74 105.814 141.088 109.409 139.437C107.466 144.489 106.349 156.052 106.057 174.124C105.96 180.051 105.96 186.318 106.057 192.925C106.154 207.305 106.349 217.022 106.64 222.074C107.126 232.471 108.146 239.71 109.701 243.79ZM197.148 281.684C194.525 281.587 192.144 280.664 190.007 278.915C187.869 277.263 186.314 275.223 185.343 272.794C184.371 270.462 183.934 267.887 184.031 265.069C184.128 262.251 184.857 259.725 186.217 257.49C188.841 253.312 192.824 250.592 198.168 249.329C203.609 248.066 209.002 248.357 214.346 250.203C219.787 252.049 223.965 254.964 226.88 258.948C229.115 262.154 230.427 265.604 230.815 269.296C231.204 272.988 230.475 277.118 228.629 281.684C226.88 285.571 224.014 288.923 220.03 291.741C216.144 294.656 211.723 296.842 206.767 298.299C201.812 299.757 196.371 300.291 190.444 299.902C184.614 299.611 178.93 298.396 173.392 296.259C167.853 294.121 162.461 290.623 157.214 285.765C152.064 281.004 147.74 275.126 144.242 268.13C141.716 263.077 139.481 257.296 137.538 250.786C135.692 244.276 134.186 238.641 133.02 233.88C131.854 229.119 130.445 224.503 128.793 220.034C127.142 215.467 124.761 211.824 121.652 209.103C118.64 206.382 114.705 204.682 109.847 204.002V201.67C116.357 199.144 121.846 195.84 126.316 191.759C130.785 187.581 133.943 183.209 135.789 178.642C137.733 174.075 138.607 169.412 138.413 164.651C138.218 159.792 137.052 155.371 134.915 151.388C132.777 147.307 129.619 143.809 125.441 140.894C121.263 137.979 116.405 136.084 110.867 135.21C106.009 134.433 101.005 134.578 95.855 135.647C90.8025 136.619 85.9929 138.514 81.4262 141.331C76.8595 144.149 72.7786 147.647 69.1836 151.825C65.6857 155.906 63.0137 160.91 61.1676 166.837C59.4186 172.667 58.8356 178.934 59.4186 185.638C59.9044 191.662 61.5076 197.103 64.2282 201.961C67.046 206.722 70.8353 210.318 75.5964 212.747C68.6006 214.884 62.3335 215.71 56.7952 215.224C51.2569 214.641 46.4958 213.087 42.5121 210.56C38.6256 207.937 35.6135 204.585 33.4759 200.504C31.3383 196.423 30.1724 191.856 29.978 186.804C29.7837 178.934 31.2897 171.598 34.4961 164.796C37.7025 157.995 42.1721 152.165 47.9047 147.307C53.7345 142.449 60.4388 138.416 68.0176 135.21C75.5964 131.906 83.7095 129.623 92.3571 128.36C101.102 127.097 109.895 126.854 118.737 127.631C124.761 128.214 130.348 129.283 135.498 130.838C140.647 132.392 145.02 134.287 148.615 136.522C152.307 138.756 155.513 141.331 158.234 144.246C161.052 147.064 163.141 150.027 164.501 153.137C165.861 156.246 166.784 159.501 167.27 162.902C167.853 166.205 167.756 169.509 166.979 172.812C164.938 181.071 160.663 187.678 154.153 192.634C147.643 197.492 139.676 200.844 130.251 202.69C136.664 205.216 142.348 208.763 147.303 213.33C152.258 217.799 156.194 222.609 159.109 227.758C162.023 232.908 164.647 238.349 166.979 244.082C169.408 249.717 171.643 255.11 173.683 260.26C175.821 265.409 178.104 270.122 180.533 274.397C182.962 278.672 186.071 282.17 189.861 284.891C193.65 287.611 198.071 289.117 203.124 289.409C206.524 289.603 210.022 289.069 213.617 287.806C217.212 286.64 220.127 284.793 222.362 282.267C224.597 279.741 225.18 276.972 224.111 273.96C223.139 271.433 221.488 269.393 219.156 267.838C216.824 266.187 214.297 265.312 211.577 265.215C208.953 265.118 206.427 265.555 203.998 266.527C201.569 267.498 199.674 269.296 198.314 271.919C197.051 274.64 196.662 277.895 197.148 281.684ZM168.818 195.403C171.247 185.784 176.542 178.788 184.704 174.416C192.866 170.043 201.513 169.557 210.647 172.958C219.877 176.359 226.873 182.626 231.634 191.759C236.395 200.893 237.561 210.269 235.132 219.888C232.703 229.41 227.407 236.357 219.246 240.73C211.084 245.102 202.388 245.588 193.157 242.187C184.024 238.786 177.077 232.519 172.316 223.386C167.555 214.253 166.389 204.925 168.818 195.403ZM209.189 203.71C205.108 195.646 200.882 189.282 196.509 184.618C192.234 179.954 189.076 178.156 187.036 179.225C184.995 180.294 184.704 183.938 186.161 190.156C187.619 196.277 190.437 203.37 194.615 211.435C198.793 219.402 203.019 225.767 207.294 230.528C211.667 235.191 214.873 236.989 216.914 235.92C218.857 234.851 219.1 231.208 217.642 224.989C216.282 218.771 213.464 211.678 209.189 203.71ZM350.895 243.79H319.122C321.26 238.932 322.572 233.248 323.057 226.738C323.543 220.131 323.349 214.204 322.474 208.957C321.697 203.613 320.58 199.484 319.122 196.569C325.049 196.569 330.879 195.937 336.612 194.674C342.442 193.411 347.203 191.516 350.895 188.99C348.757 194.431 347.543 203.03 347.251 214.787C347.057 226.447 348.271 236.114 350.895 243.79ZM308.629 261.426C304.645 264.923 298.135 267.45 289.099 269.004C280.16 270.462 271.269 270.656 262.427 269.587C253.683 268.421 247.513 266.187 243.918 262.883C241.974 261.134 240.614 259.094 239.837 256.762C239.059 254.43 239.059 252.098 239.837 249.766C240.711 247.434 242.46 245.539 245.084 244.082C246.93 243.11 249.067 242.527 251.496 242.333C254.023 242.139 256.452 242.333 258.784 242.916C261.116 243.499 263.205 244.665 265.051 246.414C266.994 248.066 268.306 250.106 268.986 252.535C265.779 253.507 264.128 255.207 264.03 257.636C264.03 260.357 265.974 262.349 269.86 263.612C272.289 264.389 275.204 264.729 278.605 264.632C282.783 264.535 285.844 263.369 287.787 261.134C289.827 258.802 290.459 256.276 289.682 253.555C288.904 250.738 286.961 248.551 283.852 246.997C281.714 245.928 278.654 244.956 274.67 244.082C270.686 243.11 267.043 242.333 263.739 241.75C260.533 241.07 257.326 239.855 254.12 238.106C250.913 236.357 248.581 234.074 247.124 231.256C245.667 228.633 245.424 225.815 246.395 222.803C247.367 219.791 249.504 217.313 252.808 215.37C248.339 212.455 244.986 208.86 242.752 204.585C240.517 200.213 239.545 195.937 239.837 191.759C240.225 187.581 242.266 183.695 245.958 180.1C249.747 176.407 254.946 173.784 261.553 172.229C274.184 169.217 285.115 171.112 294.346 177.913C297.358 174.61 301.876 171.646 307.9 169.023C313.924 166.302 320.24 164.602 326.847 163.922C333.551 163.242 339.478 164.408 344.628 167.42C348.709 169.849 350.749 173.007 350.749 176.893C350.749 179.031 350.02 181.023 348.563 182.869C347.203 184.715 345.308 186.172 342.879 187.241C340.45 188.213 337.826 188.699 335.008 188.699C330.15 188.699 326.118 187.29 322.912 184.472C322.523 184.083 322.134 183.695 321.746 183.306C319.219 180.877 316.693 179.128 314.167 178.059C311.641 176.893 309.309 176.456 307.171 176.747C305.131 177.039 303.382 177.525 301.924 178.205C300.467 178.885 299.107 179.711 297.843 180.683V180.828C300.078 182.869 302.167 185.201 304.11 187.824C306.151 191.225 307.317 194.723 307.608 198.318C307.997 201.816 307.463 205.168 306.005 208.374C304.645 211.581 301.973 214.398 297.989 216.827C294.103 219.159 289.147 220.714 283.123 221.491C273.601 222.657 265.051 221.491 257.472 217.993C256.209 219.062 255.723 220.325 256.014 221.783C256.403 223.24 257.472 224.455 259.221 225.426C261.067 226.398 263.399 226.933 266.217 227.03C269.132 227.127 272.192 226.981 275.399 226.592C278.702 226.107 282.006 225.718 285.309 225.426C288.71 225.135 292.208 225.232 295.803 225.718C299.495 226.204 302.799 227.321 305.714 229.07C311.641 232.568 314.944 237.669 315.624 244.373C316.304 250.981 313.973 256.665 308.629 261.426ZM262.573 177.185C260.338 177.865 259.464 180.44 259.95 184.909C260.435 189.282 262.039 193.994 264.759 199.047C266.994 203.419 269.326 207.014 271.755 209.832C274.281 212.649 276.516 214.544 278.459 215.516C280.5 216.487 282.151 216.682 283.415 216.099C284.678 215.516 285.504 214.35 285.892 212.601C286.281 210.852 286.087 208.471 285.309 205.459C284.629 202.35 283.269 198.901 281.228 195.111C278.605 189.962 275.447 185.541 271.755 181.849C268.16 178.059 265.099 176.505 262.573 177.185ZM439.982 196.715C441.633 206.625 447.463 212.407 457.471 214.058C452.807 214.933 448.921 216.876 445.811 219.888C442.799 222.9 440.856 226.69 439.982 231.256C439.107 226.592 437.164 222.754 434.152 219.742C431.14 216.633 427.302 214.738 422.638 214.058C432.549 212.309 438.33 206.528 439.982 196.715ZM542.004 276.146C536.951 275.854 533.259 273.377 530.927 268.713C528.498 263.758 528.692 259.142 531.51 254.867C534.813 250.3 540.449 247.92 548.416 247.726C551.817 247.726 555.023 248.649 558.036 250.495C561.145 252.244 563.574 254.527 565.323 257.345C567.072 260.162 568.286 263.272 568.966 266.672C569.744 270.073 569.452 273.328 568.092 276.437C566.44 280.907 563.088 284.405 558.036 286.931C553.08 289.554 546.084 290.478 537.048 289.7C522.279 288.437 509.308 282.073 498.134 270.608C486.96 259.239 476.855 241.264 467.819 216.682C457.908 189.573 449.99 168.586 444.063 153.72C443.965 153.623 443.917 153.477 443.917 153.282C442.945 150.951 442.071 149.056 441.293 147.598C440.613 146.044 439.447 144.149 437.795 141.914C436.241 139.582 434.346 137.979 432.111 137.105C429.974 136.23 427.642 136.182 425.116 136.959C419.772 138.416 416.517 142.546 415.351 149.347C414.282 156.052 416.225 162.367 421.181 168.294C426.233 174.221 433.617 176.796 443.334 176.019C440.905 179.614 437.698 182.48 433.715 184.618C429.731 186.658 425.65 187.776 421.472 187.97C417.391 188.164 413.359 187.776 409.375 186.804C405.489 185.735 402.088 183.986 399.173 181.557C396.258 179.031 394.363 176.067 393.489 172.667C392.129 167.614 392.129 162.61 393.489 157.655C394.849 152.602 397.278 148.23 400.776 144.538C404.274 140.748 408.549 137.493 413.602 134.773C418.751 131.955 424.338 130.206 430.362 129.526C436.484 128.846 442.848 129.137 449.455 130.4C454.022 131.566 458.006 133.17 461.406 135.21C464.904 137.153 467.819 139.582 470.151 142.497C472.483 145.412 474.329 148.279 475.689 151.096C477.147 153.914 478.701 157.363 480.353 161.444C481.13 163.776 483.802 171.258 488.369 183.889C493.033 196.423 497.551 208.52 501.923 220.18C502.312 221.151 502.847 222.657 503.527 224.698C504.79 228.001 505.761 230.625 506.442 232.568C507.219 234.414 508.336 237.232 509.794 241.021C511.348 244.713 512.66 247.726 513.729 250.057C514.895 252.389 516.401 255.256 518.247 258.656C520.093 261.96 521.793 264.681 523.348 266.818C525 268.956 526.895 271.191 529.032 273.522C531.267 275.952 533.453 277.798 535.591 279.061C537.728 280.421 540.06 281.49 542.586 282.267C545.21 283.142 547.882 283.433 550.602 283.142C554.198 282.85 557.55 281.393 560.659 278.769C563.865 276.146 565.177 273.328 564.594 270.316C563.914 265.944 561.485 263.029 557.307 261.571C553.226 260.017 549.437 260.6 545.939 263.32C542.441 265.944 541.129 270.219 542.004 276.146ZM411.416 218.576C409.375 224.115 408.403 228.633 408.501 232.131C408.598 235.531 410.298 239.369 413.602 243.645L385.619 243.79C390.574 241.75 394.703 238.884 398.007 235.191C401.408 231.499 404.225 225.912 406.46 218.431L414.622 191.759C416.274 191.856 417.926 191.856 419.577 191.759L411.416 218.576ZM542.38 210.269C542.38 226.495 543.644 237.669 546.17 243.79H513.086C514.737 240.098 515.903 234.9 516.583 228.196C517.361 221.491 517.652 214.884 517.458 208.374C517.264 201.767 516.778 195.646 516 190.01C515.223 184.375 514.252 180.537 513.086 178.496C523.191 177.525 532.956 175.387 542.38 172.084V198.172C545.975 184.958 550.688 176.602 556.518 173.104C558.364 172.035 560.404 171.355 562.639 171.063C564.874 170.675 567.157 170.82 569.489 171.501C571.918 172.084 574.104 173.201 576.048 174.853C577.991 176.407 579.594 178.837 580.857 182.14C582.12 185.346 582.752 189.184 582.752 193.654C582.752 193.945 582.703 195.646 582.606 198.755C582.606 201.864 582.606 204.391 582.606 206.334C582.703 208.18 582.752 210.901 582.752 214.496C582.849 217.993 582.946 221.006 583.043 223.532C583.238 226.058 583.481 228.73 583.772 231.548C584.064 234.366 584.404 236.843 584.792 238.981C585.278 241.021 585.861 242.624 586.541 243.79H554.623C555.595 242.527 556.421 238.932 557.101 233.005C557.781 226.981 558.218 220.665 558.412 214.058C558.607 207.354 558.267 201.33 557.392 195.986C556.615 190.545 555.255 187.727 553.311 187.533C551.174 187.435 549.279 189.233 547.627 192.925C545.975 196.617 544.372 201.621 542.818 207.937C542.623 208.714 542.478 209.492 542.38 210.269ZM618.384 210.269C618.384 226.495 619.647 237.669 622.174 243.79H589.09C590.741 240.098 591.907 234.9 592.587 228.196C593.365 221.491 593.656 214.884 593.462 208.374C593.268 201.767 592.782 195.646 592.004 190.01C591.227 184.375 590.255 180.537 589.09 178.496C599.195 177.525 608.959 175.387 618.384 172.084V198.172C621.979 184.958 626.692 176.602 632.522 173.104C634.368 172.035 636.408 171.355 638.643 171.063C640.878 170.675 643.161 170.82 645.493 171.501C647.922 172.084 650.108 173.201 652.052 174.853C653.995 176.407 655.598 178.837 656.861 182.14C658.124 185.346 658.756 189.184 658.756 193.654C658.756 193.945 658.707 195.646 658.61 198.755C658.61 201.864 658.61 204.391 658.61 206.334C658.707 208.18 658.756 210.901 658.756 214.496C658.853 217.993 658.95 221.006 659.047 223.532C659.242 226.058 659.485 228.73 659.776 231.548C660.068 234.366 660.408 236.843 660.796 238.981C661.282 241.021 661.865 242.624 662.545 243.79H630.627C631.599 242.527 632.425 238.932 633.105 233.005C633.785 226.981 634.222 220.665 634.416 214.058C634.611 207.354 634.271 201.33 633.396 195.986C632.619 190.545 631.259 187.727 629.315 187.533C627.178 187.435 625.283 189.233 623.631 192.925C621.979 196.617 620.376 201.621 618.822 207.937C618.627 208.714 618.482 209.492 618.384 210.269ZM718.901 165.817C717.832 158.238 719.095 151.485 722.69 145.558C726.382 139.631 731.629 135.161 738.431 132.149C745.232 129.137 752.762 127.826 761.021 128.214C773.847 128.797 782.252 133.024 786.235 140.894C789.15 146.724 789.004 152.651 785.798 158.675C782.786 164.311 778.316 167.42 772.389 168.003C772.001 168.1 771.564 168.149 771.078 168.149C767.774 168.246 764.714 167.225 761.896 165.088C759.175 162.853 757.426 159.987 756.649 156.489C755.969 152.991 756.989 149.104 759.71 144.829C760.584 147.55 762.187 149.687 764.519 151.242C766.948 152.797 769.377 153.477 771.806 153.282C776.373 152.797 778.754 150.805 778.948 147.307C779.24 143.712 777.539 140.603 773.847 137.979C770.543 135.647 766.608 134.627 762.042 134.919C757.183 135.21 752.908 137.056 749.216 140.457C745.621 143.858 744.018 148.084 744.406 153.137C744.795 156.537 746.155 159.695 748.487 162.61C750.916 165.428 754.511 167.614 759.272 169.169C760.147 169.46 761.556 169.946 763.499 170.626C766.608 171.598 768.989 172.375 770.641 172.958C772.292 173.541 774.673 174.416 777.782 175.582C780.988 176.747 783.515 177.816 785.361 178.788C787.207 179.662 789.49 180.877 792.211 182.432C794.931 183.889 797.118 185.346 798.769 186.804C800.421 188.164 802.17 189.865 804.016 191.905C805.862 193.848 807.223 195.889 808.097 198.026C809.069 200.067 809.797 202.399 810.283 205.022C810.769 207.646 810.866 210.366 810.575 213.184C809.992 218.917 808.291 224.066 805.474 228.633C802.753 233.102 799.401 236.697 795.417 239.418C791.531 242.139 786.964 244.422 781.717 246.268C776.47 248.114 771.418 249.426 766.56 250.203C761.701 250.981 756.649 251.466 751.402 251.661C741.297 252.049 732.164 251.078 724.002 248.746C715.84 246.317 709.427 242.624 704.764 237.669C700.1 232.617 698.108 226.641 698.788 219.742C699.274 214.593 701.509 210.172 705.492 206.48C709.573 202.69 714.334 200.018 719.775 198.464C725.217 196.909 730.803 196.132 736.536 196.132C742.269 196.132 747.224 196.958 751.402 198.609C755.483 200.164 758.641 202.593 760.876 205.897C763.208 209.2 764.422 212.649 764.519 216.245C764.714 219.84 764.179 223.289 762.916 226.592C761.75 229.896 759.661 232.617 756.649 234.754C753.637 236.795 750.188 237.718 746.301 237.523C742.9 237.426 739.791 236.163 736.973 233.734C734.253 231.305 732.601 228.293 732.018 224.698C731.532 221.006 732.844 217.022 735.953 212.747C736.633 215.564 738.139 217.896 740.471 219.742C742.9 221.491 745.329 222.317 747.758 222.22C751.354 222.026 753.831 220.714 755.192 218.285C756.649 215.856 756.698 213.232 755.337 210.415C753.977 207.5 751.596 205.362 748.196 204.002C745.378 202.739 742.463 202.253 739.451 202.544C736.536 202.836 733.816 203.662 731.289 205.022C728.86 206.285 726.771 208.277 725.022 210.998C723.37 213.718 722.447 216.876 722.253 220.471C721.962 224.261 722.787 227.807 724.731 231.111C726.674 234.317 729.346 236.94 732.747 238.981C736.147 241.021 739.937 242.624 744.115 243.79C748.293 244.859 752.617 245.296 757.086 245.102C761.556 244.811 765.685 243.936 769.475 242.479C774.721 240.341 778.705 237.475 781.426 233.88C784.243 230.187 785.604 226.398 785.507 222.512C785.409 218.625 783.758 214.738 780.551 210.852C777.442 206.965 772.972 203.759 767.143 201.233C765.005 200.358 762.042 199.192 758.252 197.735C754.463 196.18 751.354 194.917 748.924 193.945C746.495 192.877 743.678 191.614 740.471 190.156C737.265 188.601 734.593 187.095 732.455 185.638C730.318 184.083 728.18 182.334 726.042 180.391C724.002 178.351 722.399 176.116 721.233 173.687C720.067 171.258 719.29 168.634 718.901 165.817ZM813.001 195.403C815.43 185.784 820.726 178.788 828.887 174.416C837.049 170.043 845.697 169.557 854.83 172.958C864.061 176.359 871.056 182.626 875.818 191.759C880.579 200.893 881.744 210.269 879.315 219.888C876.886 229.41 871.591 236.357 863.429 240.73C855.267 245.102 846.571 245.588 837.341 242.187C828.207 238.786 821.26 232.519 816.499 223.386C811.738 214.253 810.572 204.925 813.001 195.403ZM853.373 203.71C849.292 195.646 845.065 189.282 840.693 184.618C836.418 179.954 833.26 178.156 831.219 179.225C829.179 180.294 828.887 183.938 830.345 190.156C831.802 196.277 834.62 203.37 838.798 211.435C842.976 219.402 847.203 225.767 851.478 230.528C855.85 235.191 859.057 236.989 861.097 235.92C863.04 234.851 863.283 231.208 861.826 224.989C860.466 218.771 857.648 211.678 853.373 203.71ZM915.939 138.416C913.801 145.121 912.684 162.659 912.586 191.031C912.489 219.402 913.607 236.989 915.939 243.79H883C885.429 238.058 886.789 224.698 887.081 203.71C887.47 182.626 886.741 167.031 884.895 156.926C882.951 157.218 880.425 157.703 877.316 158.384C874.207 159.064 871.535 159.647 869.3 160.132C867.065 160.618 864.393 161.153 861.284 161.736C858.175 162.222 855.454 162.61 853.122 162.902C850.79 163.193 848.215 163.436 845.398 163.63C842.483 163.728 839.908 163.679 837.673 163.485C835.438 163.29 833.155 162.95 830.823 162.464C828.491 161.881 826.402 161.104 824.556 160.132C822.71 159.161 820.961 157.946 819.309 156.489C817.657 154.934 816.249 153.137 815.083 151.096C812.848 147.404 811.828 143.226 812.022 138.562C812.119 133.898 813.479 129.575 816.103 125.591C818.338 122.384 821.253 119.907 824.848 118.158C828.345 116.409 832.378 115.729 836.944 116.117C841.511 116.409 846.126 117.963 850.79 120.781C846.709 122.433 843.697 125.056 841.754 128.651C839.811 132.247 839.325 135.89 840.297 139.582C841.171 143.177 843.406 145.849 847.001 147.598C851.082 149.542 856.96 150.562 864.636 150.659C872.312 150.659 880.814 149.639 890.142 147.598C899.469 145.461 908.068 142.4 915.939 138.416ZM950.935 243.79H919.162C921.3 238.932 922.611 233.248 923.097 226.738C923.583 220.131 923.389 214.204 922.514 208.957C921.737 203.613 920.619 199.484 919.162 196.569C925.089 196.569 930.919 195.937 936.651 194.674C942.481 193.411 947.242 191.516 950.935 188.99C948.797 194.431 947.582 203.03 947.291 214.787C947.097 226.544 948.311 236.212 950.935 243.79ZM923.826 185.346C920.814 183.015 919.308 180.197 919.308 176.893C919.308 173.59 920.814 170.772 923.826 168.44C926.935 166.108 930.676 164.942 935.048 164.942C939.421 164.942 943.161 166.108 946.271 168.44C949.38 170.772 950.935 173.59 950.935 176.893C950.935 180.197 949.38 183.015 946.271 185.346C943.161 187.581 939.421 188.699 935.048 188.699C930.676 188.699 926.935 187.581 923.826 185.346ZM989.387 215.807C990.068 218.528 990.893 220.811 991.865 222.657C992.837 224.503 993.906 225.815 995.071 226.592C996.237 227.273 997.501 227.03 998.861 225.864C1000.22 224.601 1001.44 222.317 1002.5 219.014C1005.52 210.366 1007.17 202.253 1007.46 194.674C1007.56 189.039 1007.12 184.423 1006.15 180.828C1005.18 177.233 1003.28 174.27 1000.46 171.938C1004.25 169.8 1007.46 169.46 1010.08 170.918C1012.8 172.375 1014.41 174.901 1014.89 178.496C1015.67 184.521 1013.87 195.84 1009.5 212.455C1005.23 228.973 1001.24 238.738 997.549 241.75C995.509 243.499 993.08 244.713 990.262 245.394C987.444 245.977 984.432 245.782 981.226 244.811C978.116 243.839 975.542 241.847 973.501 238.835C971.364 235.531 968.983 228.827 966.36 218.722C963.736 208.617 961.161 198.901 958.635 189.573C956.109 180.148 953.728 174.318 951.494 172.084H985.89C984.432 173.833 983.606 176.99 983.412 181.557C983.218 186.027 983.703 190.933 984.869 196.277L989.387 215.807ZM1059.92 208.811C1060.01 204.439 1060.06 201.524 1060.06 200.067C1059.77 200.261 1059.38 200.65 1058.9 201.233C1056.76 203.37 1055.11 205.119 1053.94 206.48C1052.87 207.84 1051.61 209.88 1050.15 212.601C1048.69 215.321 1047.72 218.139 1047.24 221.054C1046.85 223.386 1046.9 225.232 1047.38 226.592C1047.87 227.953 1048.65 228.633 1049.71 228.633C1051.27 228.536 1052.68 227.515 1053.94 225.572C1055.3 223.532 1056.37 221.248 1057.15 218.722C1058.02 216.099 1058.95 212.795 1059.92 208.811ZM1060.06 228.924C1059.97 226.398 1059.92 223.775 1059.92 221.054C1058.95 224.358 1057.92 227.273 1056.86 229.799C1055.88 232.228 1054.52 234.754 1052.78 237.378C1051.12 240.001 1048.99 242.041 1046.36 243.499C1043.84 244.859 1040.92 245.539 1037.62 245.539C1032.08 245.539 1027.71 243.645 1024.5 239.855C1021.39 235.969 1020.03 231.402 1020.42 226.155C1020.81 220.811 1022.85 216.196 1026.54 212.309C1028.48 210.269 1030.72 208.471 1033.25 206.917C1035.77 205.362 1038.15 204.148 1040.39 203.273C1042.72 202.399 1045.1 201.476 1047.53 200.504C1049.96 199.435 1052.1 198.464 1053.94 197.589C1055.79 196.715 1057.39 195.5 1058.75 193.945C1060.21 192.294 1061.23 190.399 1061.81 188.261C1062.69 185.055 1062.59 182.091 1061.52 179.371C1060.45 176.553 1058.31 174.999 1055.11 174.707C1053.36 174.61 1051.66 175.047 1050.01 176.019C1048.45 176.99 1047.24 178.254 1046.36 179.808C1045.59 181.266 1045.44 183.112 1045.93 185.346C1046.41 187.484 1047.72 189.622 1049.86 191.759C1047.82 194.286 1045.05 195.986 1041.55 196.86C1038.06 197.638 1034.7 197.249 1031.5 195.694C1028.39 194.14 1026.44 191.516 1025.67 187.824C1024.89 182.577 1028.05 178.059 1035.14 174.27C1042.82 170.189 1051.27 168.78 1060.5 170.043C1071.67 171.403 1079.2 176.407 1083.09 185.055C1084.74 188.747 1085.57 192.974 1085.57 197.735C1085.67 202.399 1085.71 208.714 1085.71 216.682C1085.71 239.515 1087.32 256.519 1090.52 267.693C1091.11 267.498 1091.93 267.158 1093 266.672C1096.21 265.409 1098.69 264.438 1100.43 263.758C1102.28 263.077 1104.86 262.3 1108.16 261.426C1111.56 260.454 1114.38 259.92 1116.61 259.822C1118.85 259.725 1121.23 259.968 1123.75 260.551C1126.28 261.037 1128.42 262.057 1130.17 263.612C1133.47 266.624 1134.88 270.705 1134.39 275.854C1134 281.101 1131.87 285.571 1127.98 289.263C1123.32 293.635 1117.44 296.21 1110.34 296.987C1103.35 297.862 1096.84 296.89 1090.81 294.073C1084.3 291.255 1079.01 287.223 1074.93 281.976C1073.18 282.656 1071.09 283.482 1068.66 284.453C1066.33 285.522 1064.34 286.397 1062.69 287.077C1061.13 287.757 1059.19 288.534 1056.86 289.409C1054.52 290.283 1052.53 290.915 1050.88 291.303C1049.33 291.789 1047.29 292.275 1044.76 292.761C1042.33 293.247 1040.19 293.441 1038.35 293.344C1036.5 293.247 1034.17 293.15 1031.35 293.052C1024.45 292.081 1018.96 289.506 1014.88 285.328C1010.7 281.247 1008.37 276.583 1007.89 271.336C1007.59 268.324 1008.08 265.409 1009.34 262.592C1010.51 259.774 1012.31 257.442 1014.74 255.596C1017.07 253.75 1019.74 252.487 1022.75 251.806C1025.86 251.029 1029.26 251.223 1032.95 252.389C1036.74 253.458 1040.44 255.499 1044.03 258.511C1038.59 263.758 1038.01 268.373 1042.28 272.357C1046.17 275.952 1051.95 277.701 1059.63 277.603C1063.61 277.506 1067.3 276.777 1070.7 275.417C1067.2 268.907 1064.63 262.106 1062.98 255.013C1061.33 247.92 1060.35 239.224 1060.06 228.924ZM1093.15 274.98C1095.87 281.198 1099.66 285.717 1104.51 288.534C1107.72 290.478 1110.98 291.109 1114.28 290.429C1117.68 289.749 1120.01 287.854 1121.28 284.745C1122.15 282.607 1121.96 280.373 1120.69 278.041C1119.43 275.709 1117.29 274.008 1114.28 272.939C1108.84 270.996 1101.79 271.676 1093.15 274.98Z" fill="#738942"/>
<mask id="mask0_113_7" style="mask-type:luminance" maskUnits="userSpaceOnUse" x="791" y="141" width="22" height="38">
<path d="M791.199 141.719H812.828V178.926H791.199V141.719Z" fill="white"/>
</mask>
<g mask="url(#mask0_113_7)">
<path d="M808.102 161.151L812.828 160.322L808.102 159.494C805.14 158.974 802.797 154.946 802.496 149.851L802.013 141.721L801.532 149.85C801.23 154.945 798.887 158.974 795.925 159.493L791.198 160.322L795.924 161.151C798.887 161.67 801.229 165.699 801.531 170.794L802.012 178.923L802.494 170.793C802.797 165.699 805.139 161.67 808.102 161.151Z" fill="#738942"/>
</g>
<mask id="mask1_113_7" style="mask-type:luminance" maskUnits="userSpaceOnUse" x="561" y="268" width="22" height="38">
<path d="M561.645 268.713H582.673V305.92H561.645V268.713Z" fill="white"/>
</mask>
<g mask="url(#mask1_113_7)">
<path d="M578.078 288.145L582.673 287.317L578.078 286.488C575.198 285.969 572.921 281.94 572.628 276.845L572.159 268.716L571.69 276.845C571.397 281.939 569.12 285.969 566.24 286.488L561.644 287.317L566.239 288.145C569.119 288.665 571.397 292.693 571.69 297.788L572.158 305.917L572.626 297.787C572.921 292.693 575.198 288.665 578.078 288.145Z" fill="#738942"/>
</g>
<mask id="mask2_113_7" style="mask-type:luminance" maskUnits="userSpaceOnUse" x="1" y="99" width="47" height="80">
<path d="M1.99659 99.9918H47.8809V178.926H1.99659V99.9918Z" fill="white"/>
</mask>
<g mask="url(#mask2_113_7)">
<path d="M37.8554 141.216L47.8826 139.459L37.8554 137.702C31.5715 136.599 26.602 128.053 25.962 117.245L24.9386 99.9972L23.917 117.243C23.277 128.051 18.3074 136.599 12.0235 137.7L1.99454 139.459L12.0217 141.216C18.3056 142.319 23.2756 150.865 23.9151 161.674L24.9367 178.919L25.9583 161.672C26.602 150.865 31.5702 142.319 37.8554 141.216Z" fill="#738942"/>
</g>
<mask id="mask3_113_7" style="mask-type:luminance" maskUnits="userSpaceOnUse" x="644" y="126" width="47" height="80">
<path d="M644.244 126.298H690.129V205.232H644.244V126.298Z" fill="white"/>
</mask>
<g mask="url(#mask3_113_7)">
<path d="M680.103 167.522L690.13 165.765L680.103 164.008C673.819 162.905 668.85 154.359 668.21 143.55L667.186 126.303L666.165 143.549C665.525 154.357 660.555 162.905 654.271 164.006L644.242 165.765L654.269 167.522C660.553 168.625 665.523 177.171 666.163 187.979L667.185 205.225L668.206 187.978C668.85 177.171 673.818 168.625 680.103 167.522Z" fill="#738942"/>
</g>
<mask id="mask4_113_7" style="mask-type:luminance" maskUnits="userSpaceOnUse" x="225" y="150" width="22" height="38">
<path d="M225.15 150.79H246.779V187.997H225.15V150.79Z" fill="white"/>
</mask>
<g mask="url(#mask4_113_7)">
<path d="M242.053 170.222L246.78 169.394L242.053 168.565C239.091 168.046 236.749 164.017 236.447 158.922L235.965 150.793L235.483 158.922C235.181 164.016 232.839 168.046 229.877 168.565L225.149 169.394L229.876 170.222C232.838 170.742 235.181 174.77 235.482 179.865L235.964 187.994L236.445 179.864C236.749 174.77 239.09 170.742 242.053 170.222Z" fill="#738942"/>
</g>
<mask id="mask5_113_7" style="mask-type:luminance" maskUnits="userSpaceOnUse" x="1124" y="213" width="46" height="80">
<path d="M1124.12 213.38H1170V292.314H1124.12V213.38Z" fill="white"/>
</mask>
<g mask="url(#mask5_113_7)">
<path d="M1159.97 254.604L1170 252.847L1159.97 251.09C1153.69 249.987 1148.72 241.441 1148.08 230.632L1147.06 213.385L1146.04 230.631C1145.4 241.439 1140.43 249.987 1134.14 251.088L1124.11 252.847L1134.14 254.604C1140.42 255.707 1145.39 264.253 1146.03 275.061L1147.06 292.307L1148.08 275.06C1148.72 264.253 1153.69 255.707 1159.97 254.604Z" fill="#738942"/>
</g>
</svg>
