<svg width="145" height="48" viewBox="0 0 145 48" fill="none" xmlns="http://www.w3.org/2000/svg">
<path d="M18.2918 32.1533C15.3099 31.7486 12.9243 31.7805 11.1352 32.2491C11.476 31.248 11.6783 30.1405 11.7422 28.9264C11.9552 25.2629 12.0085 21.365 11.902 17.2329C11.8381 14.038 11.5399 11.9826 11.0074 11.0667C12.1576 10.9602 13.4462 10.7259 14.8732 10.3638C16.3216 10.0017 17.4398 9.63963 18.2279 9.27754C17.8019 10.3851 17.557 12.9198 17.4931 16.8815C17.4718 18.1808 17.4718 19.5546 17.4931 21.0029C17.5144 24.1553 17.557 26.2852 17.6209 27.3928C17.7274 29.6719 17.951 31.2587 18.2918 32.1533ZM37.4614 40.4601C36.8863 40.4388 36.3645 40.2364 35.8959 39.853C35.4273 39.491 35.0865 39.0437 34.8735 38.5112C34.6605 38 34.5647 37.4355 34.586 36.8179C34.6073 36.2002 34.767 35.6464 35.0652 35.1565C35.6403 34.2406 36.5136 33.6442 37.6851 33.3673C38.8778 33.0904 40.06 33.1543 41.2314 33.559C42.4242 33.9637 43.3401 34.6027 43.9791 35.476C44.469 36.1789 44.7565 36.935 44.8417 37.7444C44.9269 38.5538 44.7672 39.459 44.3625 40.4601C43.9791 41.3121 43.3507 42.0469 42.4775 42.6646C41.6255 43.3036 40.6564 43.7828 39.5701 44.1023C38.4838 44.4218 37.291 44.5389 35.9918 44.4537C34.7138 44.3899 33.4678 44.1236 32.2537 43.655C31.0396 43.1864 29.8575 42.4196 28.7073 41.3547C27.5784 40.311 26.6306 39.0224 25.8638 37.4888C25.31 36.3812 24.8201 35.1139 24.3941 33.6868C23.9895 32.2598 23.6593 31.0244 23.4037 29.9807C23.1481 28.937 22.8393 27.9253 22.4772 26.9455C22.1151 25.9444 21.5933 25.1457 20.9117 24.5493C20.2514 23.9529 19.3888 23.5802 18.3238 23.4311V22.9199C19.7508 22.3661 20.9543 21.6419 21.9341 20.7473C22.9138 19.8315 23.6061 18.873 24.0108 17.8719C24.4367 16.8708 24.6284 15.8485 24.5858 14.8048C24.5432 13.7398 24.2876 12.7707 23.8191 11.8974C23.3505 11.0028 22.6582 10.236 21.7424 9.59703C20.8265 8.95805 19.7615 8.54271 18.5474 8.35101C17.4824 8.18061 16.3855 8.21256 15.2566 8.44686C14.1491 8.65985 13.0947 9.07519 12.0937 9.69288C11.0926 10.3106 10.198 11.0774 9.40991 11.9932C8.64313 12.8878 8.05739 13.9847 7.6527 15.284C7.26931 16.562 7.14151 17.9358 7.26931 19.4055C7.37581 20.726 7.72725 21.9188 8.32364 22.9838C8.94132 24.0275 9.77201 24.8156 10.8157 25.3481C9.28212 25.8166 7.90829 25.9977 6.69422 25.8912C5.48015 25.7634 4.43647 25.4226 3.56319 24.8688C2.7112 24.2937 2.05092 23.5589 1.58233 22.6643C1.11374 21.7697 0.858143 20.7686 0.815544 19.6611C0.772945 17.9358 1.10309 16.3277 1.80597 14.8367C2.50886 13.3458 3.48864 12.0678 4.74531 11.0028C6.02328 9.93783 7.49295 9.05389 9.15432 8.35101C10.8157 7.62682 12.5942 7.12628 14.4899 6.84939C16.4068 6.5725 18.3344 6.51925 20.2727 6.68965C21.5933 6.81744 22.818 7.05174 23.9469 7.39253C25.0757 7.73332 26.0342 8.14866 26.8223 8.63855C27.6317 9.12844 28.3346 9.69288 28.931 10.3319C29.5486 10.9496 30.0066 11.5992 30.3048 12.2808C30.603 12.9624 30.8053 13.6759 30.9118 14.4214C31.0396 15.1456 31.0183 15.8698 30.8479 16.5939C30.4006 18.4044 29.4634 19.8528 28.0364 20.939C26.6093 22.004 24.8627 22.7389 22.7967 23.1435C24.2025 23.6973 25.4485 24.4748 26.5348 25.4758C27.621 26.4556 28.4837 27.51 29.1226 28.6388C29.7616 29.7677 30.3367 30.9605 30.8479 32.2172C31.3804 33.4525 31.8703 34.6347 32.3176 35.7635C32.7862 36.8924 33.2867 37.9254 33.8192 38.8626C34.3517 39.7998 35.0333 40.5666 35.864 41.163C36.6946 41.7594 37.6638 42.0895 38.7713 42.1534C39.5168 42.196 40.2836 42.0788 41.0717 41.802C41.8598 41.5464 42.4988 41.1417 42.9887 40.5879C43.4785 40.0341 43.6063 39.4271 43.372 38.7668C43.1591 38.213 42.797 37.7657 42.2858 37.4249C41.7746 37.0628 41.2208 36.8711 40.6244 36.8498C40.0493 36.8285 39.4955 36.9244 38.963 37.1374C38.4306 37.3503 38.0152 37.7444 37.717 38.3195C37.4401 38.9159 37.3549 39.6294 37.4614 40.4601ZM31.251 21.5461C31.7835 19.4374 32.9443 17.9039 34.7335 16.9454C36.5227 15.9869 38.4183 15.8804 40.4205 16.6259C42.4439 17.3714 43.9775 18.7452 45.0212 20.7473C46.0649 22.7495 46.3205 24.8049 45.788 26.9136C45.2555 29.0009 44.0946 30.5238 42.3055 31.4823C40.5163 32.4408 38.61 32.5473 36.5866 31.8018C34.5844 31.0563 33.0615 29.6825 32.0178 27.6804C30.9741 25.6782 30.7185 23.6334 31.251 21.5461ZM40.101 23.3672C39.2064 21.5993 38.2799 20.2042 37.3214 19.1818C36.3842 18.1595 35.692 17.7654 35.2447 17.9997C34.7974 18.234 34.7335 19.0327 35.053 20.3959C35.3725 21.7378 35.9902 23.2926 36.9061 25.0605C37.8219 26.8071 38.7485 28.2022 39.6856 29.2459C40.6441 30.2682 41.347 30.6623 41.7943 30.428C42.2203 30.1937 42.2735 29.395 41.954 28.0318C41.6559 26.6686 41.0382 25.1138 40.101 23.3672ZM71.1647 32.1533H64.1998C64.6684 31.0883 64.9559 29.8423 65.0624 28.4152C65.1689 26.9668 65.1263 25.6675 64.9346 24.5174C64.7642 23.3459 64.5193 22.4407 64.1998 21.8017C65.499 21.8017 66.777 21.6632 68.0337 21.3863C69.3117 21.1094 70.3553 20.6941 71.1647 20.1403C70.6961 21.3331 70.4299 23.2181 70.366 25.7953C70.3234 28.3513 70.5896 30.4706 71.1647 32.1533ZM61.8994 36.0191C61.0261 36.7859 59.5991 37.3397 57.6182 37.6805C55.6586 38 53.7097 38.0426 51.7715 37.8083C49.8545 37.5527 48.502 37.0628 47.7139 36.3386C47.2879 35.9552 46.9897 35.5079 46.8193 34.9967C46.6489 34.4856 46.6489 33.9744 46.8193 33.4632C47.011 32.952 47.3944 32.5366 47.9695 32.2172C48.3742 32.0042 48.8428 31.8764 49.3753 31.8338C49.9291 31.7912 50.4616 31.8338 50.9727 31.9616C51.4839 32.0894 51.9419 32.345 52.3466 32.7283C52.7726 33.0904 53.0601 33.5377 53.2092 34.0702C52.5063 34.2832 52.1442 34.656 52.1229 35.1884C52.1229 35.7848 52.5489 36.2215 53.4009 36.4984C53.9334 36.6688 54.5724 36.7433 55.3178 36.722C56.2337 36.7007 56.9047 36.4451 57.3307 35.9552C57.7779 35.444 57.9164 34.8903 57.746 34.2939C57.5756 33.6762 57.1496 33.1969 56.468 32.8561C55.9994 32.6218 55.3285 32.4089 54.4552 32.2172C53.5819 32.0042 52.7832 31.8338 52.059 31.706C51.3561 31.5569 50.6532 31.2906 49.9504 30.9072C49.2475 30.5238 48.7363 30.0233 48.4168 29.4056C48.0973 28.8305 48.0441 28.2128 48.257 27.5526C48.47 26.8923 48.9386 26.3491 49.6628 25.9231C48.683 25.2842 47.9482 24.4961 47.4583 23.5589C46.9684 22.6004 46.7554 21.6632 46.8193 20.7473C46.9045 19.8315 47.3518 18.9795 48.1612 18.1914C48.9919 17.382 50.1314 16.8069 51.5798 16.4661C54.3487 15.8059 56.7449 16.2212 58.7684 17.7122C59.4287 16.988 60.4191 16.3383 61.7397 15.7633C63.0602 15.1669 64.4447 14.7941 65.8931 14.645C67.3627 14.4959 68.662 14.7515 69.7909 15.4118C70.6855 15.9443 71.1328 16.6365 71.1328 17.4885C71.1328 17.9571 70.973 18.3937 70.6535 18.7984C70.3553 19.2031 69.94 19.5226 69.4075 19.7569C68.875 19.9699 68.2999 20.0764 67.6822 20.0764C66.6173 20.0764 65.7333 19.7676 65.0304 19.1499C64.9452 19.0647 64.86 18.9795 64.7749 18.8943C64.2211 18.3618 63.6673 17.9784 63.1135 17.7441C62.5597 17.4885 62.0485 17.3927 61.5799 17.4566C61.1326 17.5205 60.7492 17.627 60.4297 17.7761C60.1102 17.9252 59.8121 18.1062 59.5352 18.3192V18.3511C60.0251 18.7984 60.483 19.3096 60.909 19.8847C61.3563 20.6302 61.6119 21.397 61.6758 22.1851C61.761 22.9519 61.6438 23.6867 61.3243 24.3896C61.0261 25.0925 60.4404 25.7101 59.5671 26.2426C58.7151 26.7538 57.6289 27.0946 56.3083 27.265C54.2209 27.5206 52.3466 27.265 50.6852 26.4982C50.4083 26.7325 50.3018 27.0094 50.3657 27.3289C50.4509 27.6484 50.6852 27.9146 51.0686 28.1276C51.4733 28.3406 51.9845 28.4578 52.6022 28.4791C53.2411 28.5004 53.9121 28.4684 54.615 28.3832C55.3391 28.2767 56.0633 28.1915 56.7875 28.1276C57.533 28.0637 58.2998 28.085 59.0879 28.1915C59.8973 28.298 60.6214 28.543 61.2604 28.9264C62.5597 29.6932 63.2839 30.8114 63.433 32.2811C63.5821 33.7294 63.0709 34.9754 61.8994 36.0191ZM51.8034 17.5524C51.3135 17.7015 51.1218 18.266 51.2283 19.2457C51.3348 20.2042 51.6863 21.2372 52.2827 22.3448C52.7726 23.3033 53.2837 24.0914 53.8162 24.7091C54.37 25.3268 54.8599 25.7421 55.2859 25.9551C55.7332 26.1681 56.0953 26.2107 56.3722 26.0829C56.6491 25.9551 56.8301 25.6995 56.9153 25.3161C57.0005 24.9327 56.9579 24.4109 56.7875 23.7506C56.6384 23.069 56.3402 22.3129 55.8929 21.4822C55.3178 20.3533 54.6256 19.3842 53.8162 18.5748C53.0281 17.7441 52.3572 17.4033 51.8034 17.5524ZM90.6937 21.8336C91.0558 24.0062 92.3338 25.2735 94.5277 25.6356C93.5053 25.8273 92.6533 26.2533 91.9717 26.9136C91.3114 27.5739 90.8854 28.4045 90.6937 29.4056C90.502 28.3832 90.0761 27.5419 89.4158 26.8816C88.7555 26.2 87.9141 25.7847 86.8918 25.6356C89.0643 25.2522 90.3316 23.9849 90.6937 21.8336ZM113.058 39.246C111.951 39.1821 111.141 38.639 110.63 37.6166C110.098 36.5303 110.14 35.5186 110.758 34.5814C111.482 33.5803 112.717 33.0585 114.464 33.0159C115.21 33.0159 115.912 33.2182 116.573 33.6229C117.254 34.0063 117.787 34.5069 118.17 35.1245C118.554 35.7422 118.82 36.4238 118.969 37.1693C119.139 37.9148 119.075 38.6283 118.777 39.3099C118.415 40.2897 117.68 41.0565 116.573 41.6103C115.486 42.1853 113.953 42.3877 111.972 42.2173C108.734 41.9404 105.891 40.5453 103.442 38.0319C100.992 35.5399 98.7769 31.5995 96.7961 26.2107C94.6235 20.2681 92.8876 15.6674 91.5883 12.4086C91.567 12.3873 91.5564 12.3553 91.5564 12.3127C91.3434 11.8015 91.1517 11.3862 90.9813 11.0667C90.8322 10.7259 90.5766 10.3106 90.2145 9.82068C89.8737 9.30949 89.4584 8.95805 88.9685 8.76635C88.4999 8.57466 87.9887 8.564 87.4349 8.7344C86.2634 9.05389 85.5499 9.95913 85.2943 11.4501C85.06 12.9198 85.486 14.3042 86.5723 15.6035C87.6799 16.9028 89.2986 17.4672 91.4286 17.2968C90.8961 18.0849 90.1932 18.7132 89.3199 19.1818C88.4466 19.6291 87.5521 19.8741 86.6362 19.9167C85.7416 19.9593 84.8577 19.8741 83.9844 19.6611C83.1324 19.4268 82.3869 19.0434 81.7479 18.5109C81.1089 17.9571 80.6936 17.3075 80.5019 16.562C80.2037 15.4544 80.2037 14.3575 80.5019 13.2712C80.8001 12.1636 81.3326 11.2051 82.0994 10.3958C82.8662 9.56508 83.8033 8.85155 84.9109 8.25516C86.0398 7.63747 87.2645 7.25408 88.5851 7.10498C89.927 6.95589 91.3221 7.01979 92.7704 7.29668C93.7715 7.55228 94.6448 7.90372 95.3903 8.35101C96.1571 8.777 96.7961 9.30949 97.3073 9.94848C97.8184 10.5875 98.2231 11.2158 98.5213 11.8335C98.8408 12.4512 99.1816 13.2073 99.5437 14.1019C99.7141 14.6131 100.3 16.2531 101.301 19.0221C102.323 21.7697 103.314 24.4215 104.272 26.9775C104.357 27.1905 104.475 27.5206 104.624 27.9679C104.901 28.6921 105.114 29.2672 105.263 29.6932C105.433 30.0979 105.678 30.7155 105.997 31.5462C106.338 32.3556 106.626 33.0159 106.86 33.5271C107.116 34.0383 107.446 34.6666 107.851 35.4121C108.255 36.1363 108.628 36.7327 108.969 37.2013C109.331 37.6698 109.746 38.1597 110.215 38.6709C110.705 39.2034 111.184 39.6081 111.653 39.885C112.121 40.1832 112.632 40.4175 113.186 40.5879C113.761 40.7796 114.347 40.8435 114.943 40.7796C115.731 40.7157 116.466 40.3962 117.148 39.8211C117.851 39.246 118.138 38.6283 118.01 37.968C117.861 37.0096 117.329 36.3706 116.413 36.0511C115.518 35.7103 114.688 35.8381 113.921 36.4345C113.154 37.0096 112.867 37.9467 113.058 39.246ZM84.4317 26.626C83.9844 27.8401 83.7714 28.8305 83.7927 29.5973C83.814 30.3428 84.1867 31.1841 84.9109 32.1213L78.7766 32.1533C79.8629 31.706 80.7682 31.0776 81.4923 30.2682C82.2378 29.4589 82.8555 28.2341 83.3454 26.5941L85.1346 20.7473C85.4967 20.7686 85.8587 20.7686 86.2208 20.7473L84.4317 26.626ZM113.141 24.8049C113.141 28.3619 113.418 30.8114 113.972 32.1533H106.719C107.081 31.3439 107.337 30.2043 107.486 28.7347C107.656 27.265 107.72 25.8166 107.678 24.3896C107.635 22.9412 107.528 21.5993 107.358 20.364C107.188 19.1286 106.975 18.2873 106.719 17.84C108.934 17.627 111.075 17.1584 113.141 16.4342V22.1531C113.929 19.2564 114.962 17.4246 116.24 16.6578C116.645 16.4235 117.092 16.2744 117.582 16.2105C118.072 16.1253 118.572 16.1573 119.083 16.3064C119.616 16.4342 120.095 16.6791 120.521 17.0412C120.947 17.382 121.299 17.9145 121.576 18.6387C121.852 19.3416 121.991 20.1829 121.991 21.1627C121.991 21.2266 121.98 21.5993 121.959 22.2809C121.959 22.9625 121.959 23.5163 121.959 23.9423C121.98 24.347 121.991 24.9434 121.991 25.7314C122.012 26.4982 122.033 27.1585 122.055 27.7123C122.097 28.2661 122.151 28.8518 122.214 29.4695C122.278 30.0872 122.353 30.6303 122.438 31.0989C122.545 31.5462 122.672 31.8977 122.822 32.1533H115.825C116.038 31.8764 116.219 31.0883 116.368 29.789C116.517 28.4684 116.613 27.084 116.655 25.6356C116.698 24.1659 116.623 22.8454 116.432 21.6739C116.261 20.4811 115.963 19.8634 115.537 19.8208C115.068 19.7995 114.653 20.1936 114.291 21.0029C113.929 21.8123 113.578 22.9093 113.237 24.2937C113.194 24.4641 113.162 24.6345 113.141 24.8049ZM129.802 24.8049C129.802 28.3619 130.079 30.8114 130.633 32.1533H123.38C123.742 31.3439 123.998 30.2043 124.147 28.7347C124.317 27.265 124.381 25.8166 124.339 24.3896C124.296 22.9412 124.19 21.5993 124.019 20.364C123.849 19.1286 123.636 18.2873 123.38 17.84C125.595 17.627 127.736 17.1584 129.802 16.4342V22.1531C130.59 19.2564 131.623 17.4246 132.901 16.6578C133.306 16.4235 133.753 16.2744 134.243 16.2105C134.733 16.1253 135.233 16.1573 135.745 16.3064C136.277 16.4342 136.756 16.6791 137.182 17.0412C137.608 17.382 137.96 17.9145 138.237 18.6387C138.513 19.3416 138.652 20.1829 138.652 21.1627C138.652 21.2266 138.641 21.5993 138.62 22.2809C138.62 22.9625 138.62 23.5163 138.62 23.9423C138.641 24.347 138.652 24.9434 138.652 25.7314C138.673 26.4982 138.695 27.1585 138.716 27.7123C138.758 28.2661 138.812 28.8518 138.876 29.4695C138.939 30.0872 139.014 30.6303 139.099 31.0989C139.206 31.5462 139.334 31.8977 139.483 32.1533H132.486C132.699 31.8764 132.88 31.0883 133.029 29.789C133.178 28.4684 133.274 27.084 133.316 25.6356C133.359 24.1659 133.284 22.8454 133.093 21.6739C132.922 20.4811 132.624 19.8634 132.198 19.8208C131.73 19.7995 131.314 20.1936 130.952 21.0029C130.59 21.8123 130.239 22.9093 129.898 24.2937C129.855 24.4641 129.823 24.6345 129.802 24.8049Z" fill="#738942"/>
<mask id="mask0_68_41" style="mask-type:luminance" maskUnits="userSpaceOnUse" x="39" y="8" width="15" height="14">
<path d="M39.8048 8.55434H53.7715V21.9984H39.8048V8.55434Z" fill="white"/>
</mask>
<g mask="url(#mask0_68_41)">
<path d="M46.3244 19.2702L46.0466 21.9983L45.7687 19.2702C45.5944 17.5607 44.2432 16.2089 42.5343 16.0345L39.8073 15.7565L42.5343 15.4786C44.2432 15.3041 45.5944 13.9524 45.7687 12.2427L46.0466 9.51463L46.3244 12.2427C46.4989 13.9524 47.8501 15.3041 49.5589 15.4786L52.286 15.7565L49.5589 16.0345C47.8501 16.2089 46.4989 17.5607 46.3244 19.2702ZM52.5489 11.4648L53.7661 11.3408L52.5489 11.2168C51.7861 11.1389 51.1831 10.5357 51.1053 9.77253L50.9813 8.55493L50.8574 9.77253C50.7795 10.5357 50.1764 11.1389 49.4137 11.2168L48.1966 11.3408L49.4137 11.4648C50.1764 11.5427 50.7795 12.1459 50.8574 12.9091L50.9813 14.1267L51.1053 12.9091C51.1831 12.1459 51.7861 11.5427 52.5489 11.4648Z" fill="#738942"/>
</g>
<mask id="mask1_68_41" style="mask-type:luminance" maskUnits="userSpaceOnUse" x="0" y="26" width="12" height="12">
<path d="M-3.8147e-05 26.3618H11.2448V37.186H-3.8147e-05V26.3618Z" fill="white"/>
</mask>
<g mask="url(#mask1_68_41)">
<path d="M5.24896 34.9894L5.02525 37.1859L4.80155 34.9894C4.66121 33.613 3.57333 32.5247 2.19739 32.3843L0.00187683 32.1605L2.19739 31.9367C3.57333 31.7962 4.66121 30.7079 4.80155 29.3314L5.02525 27.135L5.24896 29.3314C5.38939 30.7079 6.47727 31.7962 7.85312 31.9367L10.0487 32.1605L7.85312 32.3843C6.47727 32.5247 5.38939 33.613 5.24896 34.9894ZM10.2604 28.7051L11.2404 28.6053L10.2604 28.5055C9.64628 28.4427 9.16082 27.957 9.09813 27.3426L8.99833 26.3623L8.89853 27.3426C8.83584 27.957 8.35029 28.4427 7.73623 28.5055L6.75628 28.6053L7.73623 28.7051C8.35029 28.7678 8.83584 29.2535 8.89853 29.8679L8.99833 30.8482L9.09813 29.8679C9.16082 29.2535 9.64628 28.7678 10.2604 28.7051Z" fill="#738942"/>
</g>
<mask id="mask2_68_41" style="mask-type:luminance" maskUnits="userSpaceOnUse" x="115" y="37" width="11" height="11">
<path d="M115.225 37.8843H125.7V47.9673H115.225V37.8843Z" fill="white"/>
</mask>
<g mask="url(#mask2_68_41)">
<path d="M120.114 45.9212L119.906 47.9672L119.698 45.9212C119.567 44.639 118.554 43.6252 117.272 43.4944L115.227 43.2859L117.272 43.0774C118.554 42.9466 119.567 41.9328 119.698 40.6505L119.906 38.6045L120.114 40.6505C120.245 41.9328 121.259 42.9466 122.54 43.0774L124.586 43.2859L122.54 43.4944C121.259 43.6252 120.245 44.639 120.114 45.9212ZM124.783 40.0671L125.696 39.9741L124.783 39.8811C124.211 39.8227 123.759 39.3703 123.7 38.7979L123.607 37.8847L123.514 38.7979C123.456 39.3703 123.003 39.8227 122.431 39.8811L121.519 39.9741L122.431 40.0671C123.003 40.1256 123.456 40.578 123.514 41.1503L123.607 42.0635L123.7 41.1503C123.759 40.578 124.211 40.1256 124.783 40.0671Z" fill="#738942"/>
</g>
<mask id="mask3_68_41" style="mask-type:luminance" maskUnits="userSpaceOnUse" x="134" y="10" width="11" height="11">
<path d="M134.525 10.0984H145V20.1814H134.525V10.0984Z" fill="white"/>
</mask>
<g mask="url(#mask3_68_41)">
<path d="M139.415 18.1354L139.207 20.1815L138.998 18.1354C138.868 16.8533 137.854 15.8394 136.572 15.7086L134.527 15.5001L136.572 15.2917C137.854 15.1608 138.868 14.147 138.998 12.8648L139.207 10.8187L139.415 12.8648C139.546 14.147 140.559 15.1608 141.841 15.2917L143.886 15.5001L141.841 15.7086C140.559 15.8394 139.546 16.8533 139.415 18.1354ZM144.083 12.2813L144.996 12.1883L144.083 12.0954C143.511 12.0369 143.059 11.5845 143.001 11.0121L142.908 10.0989L142.815 11.0121C142.756 11.5845 142.304 12.0369 141.732 12.0954L140.819 12.1883L141.732 12.2813C142.304 12.3398 142.756 12.7922 142.815 13.3645L142.908 14.2777L143.001 13.3645C143.059 12.7922 143.511 12.3398 144.083 12.2813Z" fill="#738942"/>
</g>
</svg>
